<svg width="20" height="20" viewBox="0 0 20 20" fill="none" xmlns="http://www.w3.org/2000/svg">
<path fill-rule="evenodd" clip-rule="evenodd" d="M9.99996 -0.000488281C4.48608 -0.000488281 0 4.48444 0 9.9995C0 15.5135 4.48608 19.999 9.99996 19.999C15.5138 19.999 20 15.5135 20 9.9995C20 4.48444 15.5138 -0.000488281 9.99996 -0.000488281ZM15.575 6.66454L9.42112 13.5877C9.2696 13.7576 9.05846 13.8452 8.84571 13.8452C8.67691 13.8452 8.50731 13.7898 8.3654 13.6775L4.51916 10.6C4.18761 10.335 4.13384 9.85057 4.39921 9.51831C4.66426 9.18714 5.1488 9.13283 5.48035 9.39842L8.7561 12.0189L14.4249 5.64196C14.7066 5.32369 15.1934 5.29519 15.5107 5.578C15.8284 5.86026 15.8573 6.34627 15.575 6.66454Z" fill="#3FDBB1"/>
</svg>
