<svg width="32" height="33" viewBox="0 0 32 33" fill="none" xmlns="http://www.w3.org/2000/svg">
<path fill-rule="evenodd" clip-rule="evenodd" d="M15.9998 3.65723L32 12.9117V22.7886L15.9998 13.5345V3.65723Z" fill="#37BEFF"/>
<path fill-rule="evenodd" clip-rule="evenodd" d="M15.9997 3.65723L0 12.9117V22.7886L15.9997 13.5345V3.65723Z" fill="#404F54"/>
<path fill-rule="evenodd" clip-rule="evenodd" d="M15.9997 0C22.1114 0 27.0676 4.963 27.0676 11.0828C27.0676 17.2027 22.1113 22.1658 15.9997 22.1658C9.88814 22.1658 4.93164 17.2027 4.93164 11.0829C4.93164 4.96308 9.88806 0 15.9997 0Z" fill="#CCCCCC"/>
<path fill-rule="evenodd" clip-rule="evenodd" d="M15.9998 0C22.1136 0 27.0716 4.963 27.0716 11.0828C27.0716 17.2027 22.1136 22.1658 15.9998 22.1658C12.4905 19.8008 11.0385 15.0361 11.0385 11.0892C11.0385 7.14225 12.4905 2.36958 15.9998 0Z" fill="#E5E5E5"/>
<path fill-rule="evenodd" clip-rule="evenodd" d="M15.9998 32.0433L32 22.7886V12.9116L15.9998 22.1658V32.0433Z" fill="#37BEFF"/>
<path fill-rule="evenodd" clip-rule="evenodd" d="M15.9997 32.0433L0 22.7886V12.9116L15.9997 22.1658V32.0433Z" fill="#404F54"/>
</svg>
