<svg width="553" height="443" viewBox="0 0 553 443" fill="none" xmlns="http://www.w3.org/2000/svg">
<g clip-path="url(#clip0_622_895)">
<path d="M604.005 381.729H-67.1117V382.065H604.005V381.729Z" fill="#EBEBEB"/>
<path d="M107.871 394.512H3.30053V394.847H107.871V394.512Z" fill="#EBEBEB"/>
<path d="M536.76 404.721H485.888V405.057H536.76V404.721Z" fill="#EBEBEB"/>
<path d="M134.975 406.976H109.215V407.312H134.975V406.976Z" fill="#EBEBEB"/>
<path d="M262.219 390.869H204.244V391.205H262.219V390.869Z" fill="#EBEBEB"/>
<path d="M282.669 390.869H274.169V391.205H282.669V390.869Z" fill="#EBEBEB"/>
<path d="M430.708 399.055H372.694V399.39H430.708V399.055Z" fill="#EBEBEB"/>
<path d="M251.016 321.868H-8.16748C-12.3915 321.868 -15.8289 318.43 -15.8289 314.206V-50.1188C-15.8289 -54.3428 -12.3915 -57.7803 -8.16748 -57.7803H251.016C255.239 -57.7803 258.676 -54.3428 258.676 -50.1188V314.206C258.676 318.43 255.239 321.868 251.016 321.868ZM-8.16748 -57.4434C-12.2076 -57.4434 -15.4934 -54.1576 -15.4934 -50.1175V314.208C-15.4934 318.248 -12.2076 321.533 -8.16748 321.533H251.016C255.055 321.533 258.341 318.248 258.341 314.208V-50.1188C258.341 -54.1576 255.055 -57.4447 251.016 -57.4447L-8.16748 -57.4434Z" fill="#EBEBEB"/>
<path d="M541.336 321.868H282.153C277.929 321.868 274.493 318.43 274.493 314.206V-50.1188C274.493 -54.3428 277.931 -57.7803 282.153 -57.7803H541.336C545.561 -57.7803 548.997 -54.3428 548.997 -50.1188V314.206C548.999 318.43 545.561 321.868 541.336 321.868ZM282.153 -57.4434C278.115 -57.4434 274.829 -54.1576 274.829 -50.1175V314.208C274.829 318.248 278.115 321.533 282.153 321.533H541.336C545.376 321.533 548.662 318.248 548.662 314.208V-50.1188C548.662 -54.1576 545.376 -57.4447 541.336 -57.4447L282.153 -57.4434Z" fill="#EBEBEB"/>
<path d="M111.227 351.045H45.2803C42.3408 351.045 39.8456 348.888 39.4201 345.979L22.912 233.134C22.3898 229.559 25.1602 226.354 28.7721 226.354H94.7187C97.6582 226.354 100.153 228.511 100.579 231.42L117.086 344.265C117.609 347.838 114.839 351.045 111.227 351.045Z" fill="#F0F0F0"/>
<path d="M53.1242 351.044H22.0287C19.0892 351.044 16.594 348.887 16.1685 345.979L-0.33824 233.135C-0.860368 229.56 1.91 226.355 5.52195 226.355H36.6161C39.5556 226.355 42.0508 228.512 42.4763 231.421L58.9831 344.266C59.5066 347.838 56.7362 351.044 53.1242 351.044Z" fill="#FAFAFA"/>
<path d="M446.727 197.755H126.195C118.055 197.755 110.89 203.86 110.193 211.39L102.126 298.515C101.429 306.045 107.463 312.15 115.604 312.15H436.136C444.276 312.15 451.441 306.045 452.138 298.515L460.205 211.39C460.901 203.86 454.868 197.755 446.727 197.755Z" fill="#E0E0E0"/>
<path d="M424.97 197.755H104.438C96.2972 197.755 89.1323 203.86 88.4357 211.39L80.3689 298.515C79.6709 306.045 85.7056 312.15 93.8463 312.15H414.378C422.519 312.15 429.684 306.045 430.38 298.515L438.447 211.39C439.144 203.86 433.11 197.755 424.97 197.755Z" fill="#E6E6E6"/>
<path d="M63.9722 341.388V310.367C63.9722 305.033 68.2955 300.71 73.6295 300.71H194.355C199.688 300.71 204.013 305.033 204.013 310.367V341.388C204.013 346.722 199.689 351.045 194.355 351.045H73.6295C68.2955 351.045 63.9722 346.722 63.9722 341.388Z" fill="#EBEBEB"/>
<path d="M238.538 342.208V309.549C238.538 304.668 242.494 300.711 247.375 300.711H388.273C393.153 300.711 397.11 304.668 397.11 309.549V342.208C397.11 347.088 393.153 351.045 388.273 351.045H247.375C242.494 351.045 238.538 347.088 238.538 342.208Z" fill="#E0E0E0"/>
<path d="M204.011 342.208V309.549C204.011 304.668 207.968 300.711 212.849 300.711H353.747C358.627 300.711 362.584 304.668 362.584 309.549V342.208C362.584 347.088 358.627 351.045 353.747 351.045H212.849C207.968 351.045 204.011 347.088 204.011 342.208Z" fill="#EBEBEB"/>
<path d="M445.844 351.045H396.786C393.174 351.045 390.811 347.84 391.79 344.265L422.687 231.42C423.483 228.511 426.253 226.354 429.192 226.354H478.251C481.863 226.354 484.225 229.559 483.247 233.134L452.35 345.978C451.554 348.888 448.784 351.045 445.844 351.045Z" fill="#F0F0F0"/>
<path d="M404.628 351.045H373.534C369.922 351.045 367.56 347.84 368.538 344.265L399.435 231.42C400.231 228.511 403.001 226.354 405.941 226.354H437.035C440.647 226.354 443.009 229.559 442.031 233.134L411.134 345.978C410.338 348.888 407.569 351.045 404.628 351.045Z" fill="#FAFAFA"/>
<path d="M378.613 381.728H373.894L362.584 351.045H374.275L378.613 381.728Z" fill="#E0E0E0"/>
<path d="M438.502 381.728H433.783L422.473 351.045H434.164L438.502 381.728Z" fill="#E0E0E0"/>
<path d="M98.0797 381.728H102.799L114.107 351.045H102.418L98.0797 381.728Z" fill="#E0E0E0"/>
<path d="M38.1906 381.728H42.9098L54.2195 351.045H42.5286L38.1906 381.728Z" fill="#E0E0E0"/>
<path d="M447.408 -0.446777H89.4853V127.214H447.408V-0.446777Z" fill="#E0E0E0"/>
<path d="M444.127 -0.446777H86.2049V127.214H444.127V-0.446777Z" fill="#F0F0F0"/>
<path d="M433.389 116.476V10.291L96.9422 10.291V116.476L433.389 116.476Z" fill="#FAFAFA"/>
<path d="M265.165 95.2234C282.75 95.2234 297.005 80.9679 297.005 63.3829C297.005 45.7979 282.75 31.5425 265.165 31.5425C247.58 31.5425 233.324 45.7979 233.324 63.3829C233.324 80.9679 247.58 95.2234 265.165 95.2234Z" fill="#F0F0F0"/>
<path d="M151.558 116.476L173.858 10.291H223.072L200.774 116.476H151.558Z" fill="white"/>
<path d="M221.54 116.476L243.839 10.291H268.447L246.148 116.476H221.54Z" fill="white"/>
<path d="M371.79 116.476L394.09 10.291H418.698L396.399 116.476H371.79Z" fill="white"/>
<path d="M526.529 206.385C518.177 242.576 538.606 279.957 530.255 316.148C527.498 316.034 524.742 315.918 521.985 315.804C519.228 315.69 516.471 315.575 513.716 315.46C527.58 279.499 512.663 242.346 526.529 206.385Z" fill="#F0F0F0"/>
<path d="M505.127 222.08C511.969 256.68 490.008 291.278 496.849 325.879C499.609 325.879 502.367 325.879 505.127 325.879C507.885 325.879 510.645 325.879 513.404 325.879C501.044 291.277 517.487 256.68 505.127 222.08Z" fill="#F0F0F0"/>
<path d="M520.404 193.311C509.457 230.21 529.806 270.03 518.86 306.929C515.863 306.649 512.865 306.37 509.867 306.089C506.87 305.808 503.872 305.529 500.875 305.249C517.816 268.91 503.462 229.65 520.404 193.311Z" fill="#E6E6E6"/>
<path d="M536.53 246.444C540.061 266.397 520.372 282.086 523.903 302.038C526.127 302.446 528.351 302.854 530.575 303.264C532.8 303.672 535.024 304.08 537.248 304.489C529.269 283.719 544.509 267.214 536.53 246.444Z" fill="#E6E6E6"/>
<path d="M543.829 300.711C525.804 300.711 507.779 300.711 489.754 300.711C477.235 326.266 477.235 356.174 489.754 381.729C507.779 381.729 525.804 381.729 543.829 381.729C556.348 356.174 556.348 326.266 543.829 300.711Z" fill="#E0E0E0"/>
<path d="M39.7289 77.946C105.512 -75.0444 475.693 -50.2668 369.066 147.896C328.255 223.741 234.031 269.238 148.295 257.309C52.7848 244.02 -1.81458 174.565 39.7289 77.946Z" fill="#407BFF"/>
<path opacity="0.9" d="M39.7289 77.946C105.512 -75.0444 475.693 -50.2668 369.066 147.896C328.255 223.741 234.031 269.238 148.295 257.309C52.7848 244.02 -1.81458 174.565 39.7289 77.946Z" fill="white"/>
<path d="M268.447 442.348C412.176 442.348 528.691 435.543 528.691 427.15C528.691 418.756 412.176 411.952 268.447 411.952C124.718 411.952 8.2025 418.756 8.2025 427.15C8.2025 435.543 124.718 442.348 268.447 442.348Z" fill="#F5F5F5"/>
<path d="M448.032 237.032H157.979C154.852 237.032 152.435 234.473 152.606 231.346L162.375 53.5202C162.547 50.3928 165.246 47.8345 168.374 47.8345H458.426C461.553 47.8345 463.971 50.3928 463.799 53.5202L454.03 231.346C453.858 234.473 451.159 237.032 448.032 237.032Z" fill="#263238"/>
<path d="M326.02 78.0755H297.982C288.634 78.0755 281.403 70.4382 281.916 61.103L282.2 55.9153C282.697 46.87 290.516 39.4702 299.574 39.4702H327.593C336.953 39.4702 344.19 47.1156 343.676 56.4615L343.393 61.6318C342.898 70.6758 335.079 78.0755 326.02 78.0755Z" fill="#263238"/>
<path d="M351.544 421.545H342.561L317.83 43.4312H326.814L351.544 421.545Z" fill="#263238"/>
<path d="M284.116 421.545H293.099L317.83 43.4312H308.846L284.116 421.545Z" fill="#263238"/>
<path d="M446.488 237.032H156.436C153.308 237.032 150.891 234.473 151.063 231.346L160.832 53.5202C161.004 50.3928 163.703 47.8345 166.829 47.8345H456.881C460.009 47.8345 462.426 50.3928 462.254 53.5202L452.486 231.346C452.314 234.473 449.614 237.032 446.488 237.032Z" fill="#407BFF"/>
<path opacity="0.4" d="M161.038 231.583C158.535 231.583 156.609 229.547 156.747 227.042L166.042 57.824C166.179 55.3207 168.328 53.2832 170.833 53.2832H452.279C454.782 53.2832 456.707 55.3207 456.57 57.824L447.275 227.042C447.137 229.545 444.989 231.583 442.486 231.583H161.038Z" fill="#263238"/>
<path opacity="0.1" d="M444.229 141.887H359.512C357.382 141.887 355.749 140.16 355.866 138.03L360.097 61.0044C360.113 60.7037 359.883 60.4595 359.581 60.4595C359.279 60.4595 359.023 60.7037 359.007 61.0044L354.776 138.03C354.66 140.16 352.837 141.887 350.707 141.887H262.668C260.538 141.887 258.906 140.16 259.023 138.03L263.253 61.0044C263.27 60.7037 263.04 60.4595 262.738 60.4595C262.436 60.4595 262.18 60.7037 262.164 61.0044L257.933 138.03C257.816 140.16 255.995 141.887 253.863 141.887H169.145C168.845 141.887 168.587 142.132 168.571 142.432C168.555 142.733 168.784 142.977 169.086 142.977H253.804C255.934 142.977 257.566 144.705 257.45 146.835L253.219 223.86C253.203 224.161 253.432 224.405 253.734 224.405C254.035 224.405 254.293 224.161 254.309 223.86L258.54 146.835C258.656 144.705 260.479 142.977 262.609 142.977H350.648C352.778 142.977 354.41 144.705 354.293 146.835L350.062 223.86C350.046 224.161 350.276 224.405 350.578 224.405C350.878 224.405 351.136 224.161 351.152 223.86L355.383 146.835C355.5 144.705 357.323 142.977 359.453 142.977H444.17C444.471 142.977 444.729 142.733 444.745 142.432C444.761 142.132 444.53 141.887 444.229 141.887Z" fill="white"/>
<path opacity="0.4" d="M306.102 74.4209H272.073L270.171 109.029L304.151 109.938L306.102 74.4209Z" fill="#263238"/>
<path d="M302.412 108.45C291.028 107.896 279.643 107.34 268.257 106.786C270.147 95.0225 271.332 83.231 271.81 71.4717C283.263 72.026 294.715 72.5804 306.165 73.1361C305.621 84.8954 304.369 96.6896 302.412 108.45Z" fill="white"/>
<path opacity="0.4" d="M347.124 97.54L313.052 100.139L313.799 134.646L347.891 132.954L347.124 97.54Z" fill="#263238"/>
<path d="M346.036 131.609C334.596 131.927 323.153 132.245 311.711 132.563C312.703 120.739 312.986 108.941 312.563 97.2287C324.073 96.9053 335.582 96.5804 347.088 96.2583C347.444 107.977 347.093 119.784 346.036 131.609Z" fill="#407BFF"/>
<path opacity="0.4" d="M247.611 160.483L184.792 158.084L179.155 213.968L241.826 217.833L247.611 160.483Z" fill="#263238"/>
<path d="M238.708 215.303C217.728 213.602 196.744 211.9 175.76 210.2C179.973 191.293 182.886 172.29 184.49 153.289C205.599 154.994 226.704 156.698 247.807 158.404C246.08 177.404 243.042 196.406 238.708 215.303Z" fill="white"/>
<g opacity="0.3">
<path d="M182.956 82.2406C181.008 82.2406 179.502 80.6473 179.608 78.6984C179.716 76.7508 181.396 75.1562 183.345 75.1562C185.293 75.1562 186.799 76.7495 186.693 78.6984C186.585 80.6473 184.903 82.2406 182.956 82.2406Z" fill="#263238"/>
<path opacity="0.8" d="M238.465 82.2406H194.877C192.93 82.2406 191.424 80.6473 191.53 78.6984C191.637 76.7508 193.318 75.1562 195.267 75.1562H238.854C240.802 75.1562 242.308 76.7495 242.202 78.6984C242.095 80.6473 240.413 82.2406 238.465 82.2406Z" fill="#263238"/>
<path d="M182.107 97.6845C180.16 97.6845 178.654 96.0913 178.76 94.1437C178.867 92.1961 180.548 90.6016 182.495 90.6016C184.443 90.6016 185.949 92.1948 185.843 94.1437C185.737 96.0913 184.055 97.6845 182.107 97.6845Z" fill="#263238"/>
<path opacity="0.8" d="M245.336 97.6845H194.029C192.082 97.6845 190.576 96.0913 190.683 94.1437C190.79 92.1961 192.471 90.6016 194.418 90.6016H245.725C247.673 90.6016 249.179 92.1948 249.073 94.1437C248.964 96.0913 247.284 97.6845 245.336 97.6845Z" fill="#263238"/>
<path d="M181.259 113.129C179.312 113.129 177.806 111.536 177.912 109.587C178.019 107.639 179.7 106.044 181.649 106.044C183.596 106.044 185.102 107.638 184.996 109.587C184.889 111.536 183.207 113.129 181.259 113.129Z" fill="#263238"/>
<path opacity="0.8" d="M218.153 113.129H193.181C191.233 113.129 189.727 111.536 189.833 109.587C189.941 107.639 191.621 106.044 193.569 106.044H218.541C220.489 106.044 221.994 107.638 221.888 109.587C221.781 111.536 220.101 113.129 218.153 113.129Z" fill="#263238"/>
<path opacity="0.8" d="M241.277 128.574H216.305C214.357 128.574 212.851 126.98 212.957 125.031C213.065 123.084 214.745 121.489 216.694 121.489H241.666C243.614 121.489 245.12 123.082 245.014 125.031C244.906 126.98 243.226 128.574 241.277 128.574Z" fill="#263238"/>
<path d="M180.411 128.574C178.463 128.574 176.957 126.98 177.063 125.031C177.171 123.084 178.851 121.489 180.799 121.489C182.746 121.489 184.252 123.082 184.146 125.031C184.04 126.98 182.358 128.574 180.411 128.574Z" fill="#263238"/>
<path opacity="0.8" d="M203.865 128.574H192.333C190.385 128.574 188.879 126.98 188.985 125.031C189.093 123.084 190.773 121.489 192.721 121.489H204.253C206.201 121.489 207.707 123.082 207.601 125.031C207.493 126.98 205.813 128.574 203.865 128.574Z" fill="#263238"/>
</g>
<path d="M288.775 174.532H271.872L269.549 216.823H286.451L288.775 174.532Z" fill="#407BFF"/>
<path d="M314.411 183.25H297.508L295.665 216.824H312.567L314.411 183.25Z" fill="#407BFF"/>
<path d="M341.765 160.73H324.862L321.781 216.825H338.683L341.765 160.73Z" fill="#407BFF"/>
<path d="M275.634 198.397C273.96 198.397 272.273 198.353 270.566 198.265C267.614 198.114 263.785 197.741 260.341 196.192C259.792 195.945 259.548 195.299 259.795 194.75C260.041 194.201 260.686 193.957 261.235 194.202C264.347 195.602 267.916 195.945 270.677 196.087C290.957 197.13 308.716 191.848 326.589 179.466C330.851 176.514 337.213 171.053 341.123 165.378C341.464 164.881 342.143 164.758 342.638 165.099C343.134 165.44 343.259 166.119 342.918 166.614C338.847 172.527 332.455 178.055 327.831 181.258C311.044 192.888 294.333 198.397 275.634 198.397Z" fill="white"/>
<path d="M345.434 173.729C345.296 173.729 345.155 173.702 345.018 173.646C344.461 173.416 344.198 172.779 344.428 172.223C345.971 168.486 346.296 164.285 345.366 160.484C341.118 163.34 336.582 165.749 331.863 167.653C331.303 167.877 330.67 167.608 330.444 167.05C330.219 166.492 330.489 165.857 331.047 165.631C336.078 163.602 340.895 160.981 345.363 157.841C345.644 157.644 346.002 157.59 346.328 157.697C346.656 157.805 346.912 158.058 347.022 158.385C348.589 163.025 348.377 168.372 346.441 173.057C346.268 173.475 345.863 173.729 345.434 173.729Z" fill="white"/>
<path d="M434.439 132.034H371.564C370.497 132.034 369.514 131.617 368.797 130.86C368.079 130.101 367.715 129.094 367.774 128.026L370.694 74.8723C370.813 72.6952 372.683 70.9248 374.86 70.9248H437.736C438.803 70.9248 439.785 71.3422 440.502 72.0993C441.22 72.8576 441.584 73.8643 441.525 74.9327L438.605 128.085C438.486 130.262 436.616 132.034 434.439 132.034ZM374.861 72.0147C373.253 72.0147 371.872 73.3234 371.784 74.9327L368.864 128.085C368.823 128.852 369.08 129.571 369.589 130.111C370.098 130.647 370.799 130.944 371.564 130.944H434.439C436.047 130.944 437.428 129.635 437.517 128.026L440.436 74.8723C440.478 74.1059 440.22 73.3865 439.711 72.8482C439.203 72.3113 438.502 72.0147 437.737 72.0147H374.861Z" fill="#407BFF"/>
<path d="M440.391 86.1753H370.65C370.349 86.1753 370.105 85.931 370.105 85.6304C370.105 85.3297 370.349 85.0854 370.65 85.0854H440.391C440.691 85.0854 440.936 85.3297 440.936 85.6304C440.936 85.931 440.693 86.1753 440.391 86.1753Z" fill="#407BFF"/>
<path d="M384.598 132.034C384.587 132.034 384.578 132.034 384.567 132.033C384.267 132.017 384.037 131.759 384.053 131.458L386.572 85.6009C386.589 85.3002 386.842 85.0653 387.147 85.0868C387.448 85.1029 387.677 85.3606 387.661 85.6613L385.142 131.52C385.126 131.809 384.885 132.034 384.598 132.034Z" fill="#407BFF"/>
<path d="M432.403 91.6241H394.54C394.239 91.6241 393.995 91.3798 393.995 91.0791C393.995 90.7785 394.239 90.5342 394.54 90.5342H432.403C432.704 90.5342 432.948 90.7785 432.948 91.0791C432.948 91.3798 432.704 91.6241 432.403 91.6241Z" fill="#407BFF"/>
<path d="M426.699 98.3116H394.172C393.872 98.3116 393.627 98.0673 393.627 97.7666C393.627 97.466 393.872 97.2217 394.172 97.2217H426.699C426.999 97.2217 427.243 97.466 427.243 97.7666C427.243 98.0673 426.999 98.3116 426.699 98.3116Z" fill="#407BFF"/>
<path d="M412.726 105.211H393.794C393.493 105.211 393.249 104.967 393.249 104.667C393.249 104.366 393.493 104.122 393.794 104.122H412.726C413.027 104.122 413.271 104.366 413.271 104.667C413.271 104.967 413.027 105.211 412.726 105.211Z" fill="#407BFF"/>
<path d="M416.165 118.677H393.054C392.753 118.677 392.509 118.433 392.509 118.132C392.509 117.832 392.753 117.587 393.054 117.587H416.165C416.465 117.587 416.71 117.832 416.71 118.132C416.71 118.434 416.465 118.677 416.165 118.677Z" fill="#407BFF"/>
<path d="M411.606 125.577H392.674C392.374 125.577 392.129 125.333 392.129 125.032C392.129 124.732 392.374 124.487 392.674 124.487H411.606C411.907 124.487 412.151 124.732 412.151 125.032C412.151 125.333 411.907 125.577 411.606 125.577Z" fill="#407BFF"/>
<path d="M422.689 125.577H416.622C416.322 125.577 416.077 125.333 416.077 125.032C416.077 124.732 416.322 124.487 416.622 124.487H422.689C422.99 124.487 423.234 124.732 423.234 125.032C423.234 125.333 422.99 125.577 422.689 125.577Z" fill="#407BFF"/>
<path d="M428.88 111.898H393.426C393.125 111.898 392.881 111.654 392.881 111.353C392.881 111.052 393.125 110.808 393.426 110.808H428.88C429.18 110.808 429.425 111.052 429.425 111.353C429.425 111.654 429.18 111.898 428.88 111.898Z" fill="#407BFF"/>
<path d="M395.83 209.364C387.615 209.364 380.885 206.936 376.704 202.421C372.241 197.601 370.39 190.02 371.624 181.623C372.38 176.479 374.06 172.164 376.62 168.795C379.189 165.415 382.904 162.629 387.664 160.512C398.165 155.841 410.32 156.005 420.18 160.951C424.599 163.167 427.367 165.971 428.41 169.284C428.591 169.857 428.271 170.469 427.697 170.65C427.122 170.831 426.512 170.512 426.331 169.937C425.472 167.208 423.073 164.839 419.202 162.899C409.92 158.242 398.46 158.096 388.548 162.504C384.128 164.47 380.699 167.03 378.354 170.114C376.02 173.185 374.48 177.165 373.778 181.939C372.64 189.681 374.288 196.607 378.301 200.94C383.878 206.964 393.112 207.395 398.12 207.12C407.429 206.604 415.438 203.352 420.672 197.963C426.792 191.661 428.509 182.233 424.664 176.034C423.919 174.832 422.316 172.783 419.962 172.548C419.363 172.489 418.925 171.955 418.986 171.356C419.045 170.757 419.583 170.324 420.178 170.38C422.614 170.623 424.864 172.223 426.516 174.886C430.873 181.91 429.032 192.484 422.237 199.484C416.62 205.266 408.099 208.751 398.242 209.298C397.426 209.341 396.62 209.364 395.83 209.364Z" fill="white"/>
<path d="M117.203 95.7475L113.332 102.493L109.538 109.382C107.041 113.984 104.654 118.624 102.476 123.287C101.391 125.626 100.359 127.953 99.4166 130.293L99.2421 130.715C99.2274 130.749 99.2086 130.782 99.1858 130.816C99.1254 130.884 99.1052 130.943 99.0703 131.001C98.9979 131.119 98.9509 131.233 98.8878 131.386C98.7871 131.688 98.826 132.205 99.0489 132.891C99.4757 134.284 100.736 136.102 102.282 137.792C103.798 139.493 105.759 141.233 107.524 142.759L104.378 149.461C102.779 149.005 101.449 148.544 100.039 147.928C98.6462 147.34 97.2919 146.629 95.9416 145.826C93.2746 144.179 90.5955 142.143 88.3768 138.81C87.2976 137.142 86.3728 135.078 86.0104 132.688C85.8453 131.499 85.7863 130.254 85.9393 129.04C86.0077 128.431 86.0963 127.825 86.248 127.251L86.4668 126.379L86.6319 125.848C87.4949 123.103 88.3875 120.388 89.4358 117.769C91.476 112.501 93.7739 107.41 96.2812 102.455C97.5335 99.9755 98.8328 97.5259 100.2 95.1139C101.576 92.6818 102.916 90.3342 104.49 87.8833L117.203 95.7475Z" fill="#FFC3BD"/>
<path d="M104.156 142.002L111.21 140.169L111.614 151.555C111.614 151.555 106.097 152.375 102.719 149L104.156 142.002Z" fill="#FFC3BD"/>
<path d="M121.202 138.25L119.612 148.247L111.612 151.556L111.208 140.169L121.202 138.25Z" fill="#FFC3BD"/>
<path d="M150.375 42.0877C150.533 42.8675 151.074 43.4152 151.584 43.3118C152.094 43.2084 152.377 42.493 152.219 41.7132C152.06 40.9334 151.519 40.3857 151.009 40.4891C150.501 40.5938 150.216 41.3092 150.375 42.0877Z" fill="#263238"/>
<path d="M151.003 43.4297C151.003 43.4297 153.688 47.5665 156.08 49.3382C154.963 50.9059 152.499 50.7945 152.499 50.7945L151.003 43.4297Z" fill="#ED847E"/>
<path d="M146.642 38.3412C146.529 38.3412 146.415 38.2996 146.325 38.2177C146.136 38.0419 146.124 37.7466 146.299 37.5573C148.054 35.6594 150.181 35.9963 150.272 36.0124C150.526 36.0554 150.698 36.297 150.655 36.5506C150.611 36.8043 150.368 36.9734 150.118 36.9332C150.048 36.9224 148.384 36.6782 146.984 38.1909C146.893 38.2915 146.768 38.3412 146.642 38.3412Z" fill="#263238"/>
<path d="M128.173 53.0508C129.587 60.2639 130.998 73.4823 125.951 78.2955C125.951 78.2955 127.923 85.6134 141.327 85.6134C156.066 85.6134 148.371 78.2968 148.371 78.2968C140.327 76.3761 140.535 70.4072 141.936 64.8034L128.173 53.0508Z" fill="#FFC3BD"/>
<path d="M123.044 79.6342C121.966 77.6303 120.78 75.3364 123.235 74.6183C125.935 73.8277 143.282 72.362 148.379 73.8452C146.812 76.6303 149.463 80.053 149.463 80.053L123.044 79.6342Z" fill="#263238"/>
<path d="M79.377 415.933C80.3662 416.146 81.3554 416.204 81.8319 415.799C82.0319 415.628 82.2332 415.302 82.0587 414.714C81.9675 414.405 81.7648 414.173 81.4574 414.027C80.1259 413.391 77.067 414.639 76.9354 414.691C76.8509 414.726 76.7945 414.808 76.7918 414.901C76.7891 414.993 76.8401 415.078 76.9234 415.118C77.3905 415.342 78.3837 415.717 79.377 415.933ZM80.9809 414.356C81.0816 414.377 81.1742 414.408 81.2547 414.447C81.44 414.536 81.5568 414.666 81.6104 414.846C81.7353 415.266 81.5796 415.399 81.5286 415.442C80.9984 415.893 79.0293 415.477 77.6428 414.922C78.5837 414.591 80.1058 414.167 80.9809 414.356Z" fill="#407BFF"/>
<path d="M76.9759 415.135C77.0134 415.143 77.0524 415.141 77.0913 415.131C78.2053 414.804 80.5905 413.111 80.62 411.992C80.6254 411.79 80.5542 411.422 80.0227 411.237C79.6778 411.116 79.3301 411.145 78.9879 411.32C77.6698 411.992 76.8376 414.724 76.8027 414.839C76.7785 414.921 76.8 415.01 76.8604 415.071C76.8913 415.104 76.9316 415.125 76.9759 415.135ZM79.7664 411.649C79.7999 411.656 79.8348 411.666 79.8684 411.678C80.1569 411.779 80.1529 411.92 80.1516 411.98C80.1355 412.641 78.561 413.971 77.4067 414.509C77.6953 413.721 78.3543 412.167 79.1986 411.736C79.3919 411.637 79.5784 411.609 79.7664 411.649Z" fill="#407BFF"/>
<path d="M152.178 417.587C153.444 417.587 154.667 417.412 155.076 416.844C155.22 416.646 155.333 416.306 155.056 415.824C154.902 415.553 154.652 415.369 154.317 415.278C152.675 414.832 149.23 416.796 149.083 416.879C148.999 416.928 148.953 417.023 148.969 417.12C148.985 417.216 149.059 417.291 149.154 417.312C149.783 417.435 150.999 417.587 152.178 417.587ZM153.742 415.674C153.907 415.674 154.059 415.69 154.193 415.728C154.409 415.787 154.558 415.893 154.651 416.054C154.816 416.344 154.756 416.487 154.697 416.571C154.237 417.208 151.745 417.223 149.913 416.964C150.826 416.494 152.589 415.674 153.742 415.674Z" fill="#407BFF"/>
<path d="M149.2 417.315C149.232 417.315 149.264 417.308 149.295 417.295C150.486 416.76 152.843 414.628 152.663 413.514C152.62 413.252 152.435 412.926 151.793 412.861C151.314 412.813 150.88 412.947 150.498 413.261C149.243 414.291 148.978 416.947 148.966 417.06C148.958 417.142 148.995 417.223 149.063 417.272C149.103 417.3 149.152 417.315 149.2 417.315ZM151.605 413.318C151.651 413.318 151.698 413.32 151.746 413.324C152.166 413.367 152.193 413.532 152.201 413.587C152.31 414.256 150.707 415.932 149.493 416.662C149.619 415.887 149.97 414.297 150.794 413.622C151.043 413.417 151.309 413.318 151.605 413.318Z" fill="#407BFF"/>
<path d="M138.356 417.081H148.218L149.199 394.246H139.339L138.356 417.081Z" fill="#FFC3BD"/>
<path d="M65.9844 412.515L75.6216 414.602L85.2964 393.333L75.6592 391.246L65.9844 412.515Z" fill="#FFC3BD"/>
<path d="M76.5477 413.635L65.7212 411.292C65.3266 411.206 64.9266 411.406 64.7588 411.772L61.0006 419.926C60.6113 420.772 61.1268 421.764 62.0408 421.945C65.834 422.698 67.7185 422.874 72.4807 423.905C75.4095 424.538 82.0226 426.15 86.0681 427.025C90.025 427.882 91.5069 424.016 89.9297 423.295C82.8562 420.063 79.9006 417.218 77.9865 414.565C77.6389 414.088 77.1235 413.76 76.5477 413.635Z" fill="#263238"/>
<path d="M148.152 415.938H137.383C136.98 415.938 136.631 416.219 136.543 416.612L134.595 425.377C134.394 426.286 135.084 427.147 136.014 427.131C139.898 427.066 145.512 426.837 150.393 426.837C156.102 426.837 161.032 427.149 167.727 427.149C171.775 427.149 172.899 423.056 171.203 422.686C163.489 420.999 157.192 420.818 150.525 416.708C149.803 416.261 149.003 415.938 148.152 415.938Z" fill="#263238"/>
<path d="M108.297 80.5253C99.0556 82.6447 91.4357 106.237 91.4357 106.237L109.995 120.383C109.995 120.383 116.807 113.96 119.837 102.159C123.013 89.7935 117.746 78.359 108.297 80.5253Z" fill="#407BFF"/>
<path opacity="0.2" d="M108.297 80.5253C99.0556 82.6447 91.4357 106.237 91.4357 106.237L109.995 120.383C109.995 120.383 116.807 113.96 119.837 102.159C123.013 89.7935 117.746 78.359 108.297 80.5253Z" fill="#FAFAFA"/>
<path opacity="0.2" d="M116.217 97.875C111.197 102.841 109.56 111.888 109.171 119.753L109.989 120.384C109.989 120.384 116.808 113.955 119.841 102.157C120.029 101.418 120.19 100.68 120.325 99.9555L116.217 97.875Z" fill="black"/>
<path d="M163.538 81.0327C163.538 81.0327 174.033 92.8874 164.122 166.261C148.231 166.261 119.114 166.261 111.381 166.261C111.018 158.164 116.105 118.67 108.297 80.524C108.297 80.524 117.337 78.7093 125.953 78.2946C132.692 77.9698 142.447 77.755 148.372 78.2959C156.181 79.0087 163.538 81.0327 163.538 81.0327Z" fill="#407BFF"/>
<path opacity="0.2" d="M163.538 81.0327C163.538 81.0327 174.033 92.8874 164.122 166.261C148.231 166.261 119.114 166.261 111.381 166.261C111.018 158.164 116.105 118.67 108.297 80.524C108.297 80.524 117.337 78.7093 125.953 78.2946C132.692 77.9698 142.447 77.755 148.372 78.2959C156.181 79.0087 163.538 81.0327 163.538 81.0327Z" fill="#FAFAFA"/>
<path opacity="0.2" d="M168.148 103.46L167.947 103.285L155.961 106.158C155.276 114.265 163.612 123.956 167.907 128.385C168.497 118.036 168.484 109.876 168.148 103.46Z" fill="black"/>
<path opacity="0.2" d="M149.197 394.253L148.692 406.023H138.827L139.332 394.253H149.197Z" fill="black"/>
<path opacity="0.2" d="M75.6549 391.253L85.2962 393.34L80.3031 404.302L70.6632 402.215L75.6549 391.253Z" fill="black"/>
<path d="M124.043 45.7196C126.575 55.1716 127.578 60.8332 133.411 64.7632C142.186 70.6758 153.11 63.8908 153.452 53.871C153.76 44.8525 149.565 30.9094 139.422 29.0048C129.428 27.1297 121.51 36.2676 124.043 45.7196Z" fill="#FFC3BD"/>
<path d="M128.383 61.1336C132.402 63.4342 147.055 55.7472 144.046 44.0967C144.046 44.0967 149.628 37.3841 148.997 29.9764C148.366 22.5686 143.282 19.7459 137.873 21.3351C133.105 22.7364 133.244 25.347 133.244 25.347C133.244 25.347 110.71 27.9992 115.519 37.1586C106.348 47.1583 123.367 58.2626 128.383 61.1336Z" fill="#263238"/>
<path d="M116.152 37.9219C116.152 37.9219 113.467 33.2764 109.552 35.8777C111.399 35.9045 114.419 36.2199 116.152 37.9219Z" fill="#263238"/>
<path d="M148.279 34.8586C148.279 34.8586 153.191 23.7731 145.534 20.2041C148.116 23.7959 149.52 29.5944 148.279 34.8586Z" fill="#263238"/>
<path d="M140.127 46.116C140.769 48.5965 142.4 50.7306 144.106 51.999C146.673 53.9077 148.589 52.0286 148.407 49.1253C148.243 46.512 146.71 42.3685 143.879 41.594C141.089 40.8317 139.391 43.2799 140.127 46.116Z" fill="#FFC3BD"/>
<path d="M145.412 166.262C145.412 166.262 134.222 241.618 128.079 269.849C121.351 300.765 85.2775 403.047 85.2775 403.047L67.6258 399.226C67.6258 399.226 92.8504 315.872 98.4972 272.652C102.834 239.453 111.381 166.262 111.381 166.262H145.412Z" fill="#263238"/>
<path d="M89.5042 397.155C89.5793 397.171 86.2144 403.538 86.2144 403.538L66.3547 399.239L68.0284 393.269L89.5042 397.155Z" fill="#407BFF"/>
<path opacity="0.3" d="M138.34 193.111C125.401 195.647 126.77 243.901 128.327 268.718C132.058 251.176 137.521 217.418 141.253 193.459C140.394 193.03 139.427 192.896 138.34 193.111Z" fill="black"/>
<path d="M164.122 166.262C164.122 166.262 165.48 239.987 164.407 270.057C163.292 301.334 152.368 403.745 152.368 403.745H135.664C135.664 403.745 135.05 303.162 134.308 272.445C133.497 238.958 129.454 166.264 129.454 166.264H164.122V166.262Z" fill="#263238"/>
<path opacity="0.4" d="M256.854 114.285H222.826L220.925 148.893L254.904 149.802L256.854 114.285Z" fill="#263238"/>
<path d="M238.967 136.552C227.608 135.15 216.249 133.748 204.887 132.346C207.641 120.804 209.69 109.182 211.03 97.5396C222.458 98.9462 233.886 100.352 245.311 101.758C243.905 113.399 241.789 125.019 238.967 136.552Z" fill="#407BFF"/>
<path d="M155.581 397.09C155.658 397.09 154.639 404.025 154.639 404.025H134.319L133.77 397.836L155.581 397.09Z" fill="#407BFF"/>
<path d="M168.402 90.0293C169.917 92.3903 171.646 95.0425 173.371 97.4921C175.131 99.9632 176.888 102.434 178.738 104.809C182.407 109.563 186.297 114.13 190.486 117.921C191.523 118.881 192.585 119.769 193.657 120.589L194.463 121.196C194.39 121.153 194.134 121.067 193.99 121.034C193.64 120.966 193.47 121.027 193.563 121.075C193.767 121.181 194.749 121.012 195.773 120.568C196.813 120.126 197.996 119.528 199.167 118.805C203.888 115.879 208.763 111.791 213.345 107.818L219.105 112.47C215.532 118.227 211.599 123.433 206.197 128.219C204.823 129.398 203.354 130.57 201.583 131.613C199.803 132.64 197.781 133.691 194.812 134.128C193.329 134.322 191.533 134.284 189.679 133.693C188.774 133.425 187.819 132.947 187.071 132.488L185.907 131.751C184.37 130.757 182.909 129.708 181.521 128.614C175.971 124.217 171.337 119.259 167.064 114.102C164.96 111.501 162.922 108.869 161.032 106.135C159.119 103.372 157.323 100.731 155.543 97.6545L168.402 90.0293Z" fill="#FFC3BD"/>
<path d="M149.032 95.9477C145.878 109.167 169.798 122.113 169.798 122.113L185.334 103.91C185.334 103.91 178.261 93.1908 169.461 84.7454C158.592 74.3136 151.432 85.885 149.032 95.9477Z" fill="#407BFF"/>
<path opacity="0.2" d="M149.032 95.9477C145.878 109.167 169.798 122.113 169.798 122.113L185.334 103.91C185.334 103.91 178.261 93.1908 169.461 84.7454C158.592 74.3136 151.432 85.885 149.032 95.9477Z" fill="#FAFAFA"/>
<path d="M211.783 110.567L215.45 98.792L225.101 103.601C225.101 103.601 223.694 112.193 216.67 113.683L211.783 110.567Z" fill="#FFC3BD"/>
<path d="M219.32 95.5273L228.023 97.9219L225.099 103.6L215.449 98.7916L219.32 95.5273Z" fill="#FFC3BD"/>
</g>
<defs>
<clipPath id="clip0_622_895">
<rect width="553" height="442.937" fill="white"/>
</clipPath>
</defs>
</svg>
