<svg width="435" height="479" viewBox="0 0 435 479" fill="none" xmlns="http://www.w3.org/2000/svg">
<path d="M104.593 75.7683C89.9488 96.27 106.513 129.932 84.9417 145.24C63.944 160.141 38.605 135.088 18.829 147.897C-10.5078 166.898 -6.11696 255.302 35.9003 310.643C48.5362 327.286 59.1721 333.822 63.7159 352.541C73.4733 392.737 37.4481 416.208 44.0472 436.107C58.9063 480.913 294.257 520.854 390.26 387.68C435.097 325.482 442.659 235.066 403.91 165.926C333.892 40.9916 137.453 29.7665 104.593 75.7683Z" fill="#F4F7FA"/>
<path d="M242.513 387.351C245.004 400.306 236.988 410.652 230.123 417.25C228.948 416.965 228.186 417.121 226.928 417.115C215.581 417.058 210.891 414.485 199.817 412.568C197.434 412.155 190.912 408.681 188.344 407.076L183.606 404C183.606 404 181.436 373.456 197.827 369.243C214.219 365.031 215.678 335.532 218.28 319.893C225.34 277.46 269.371 292.424 282.802 238.622C286.374 224.312 288.402 195.828 303.304 187.428C320.281 177.858 327.15 193.094 338.69 184.431C356.727 170.891 380.662 170.376 389.683 191.169C398.586 211.69 374.025 242.029 327.323 259.709C295.256 276.187 293.13 282.979 291.029 300.284C289.557 312.404 293.158 345.828 274.155 354.091C255.151 362.356 239.665 372.541 242.513 387.351Z" fill="url(#paint0_linear_624_696)"/>
<mask id="mask0_624_696" style="mask-type:luminance" maskUnits="userSpaceOnUse" x="184" y="174" width="208" height="252">
<path d="M220.813 425.034L184.223 405.244C184.223 405.244 181.436 373.456 197.827 369.243C214.219 365.031 215.678 335.532 218.28 319.893C225.34 277.46 269.371 292.424 282.802 238.622C286.374 224.312 288.401 195.828 303.303 187.428C320.281 177.858 327.15 193.094 338.69 184.431C356.727 170.891 380.662 170.376 389.683 191.169C398.586 211.69 374.025 242.028 327.323 259.708C295.256 276.188 293.13 282.979 291.029 300.284C289.557 312.404 293.158 345.828 274.154 354.092C255.151 362.356 239.665 372.541 242.513 387.351C246.846 409.886 220.813 425.034 220.813 425.034Z" fill="white"/>
</mask>
<g mask="url(#mask0_624_696)">
<g opacity="0.5">
<path d="M205.372 414.414L204.603 414.117C206.369 409.532 208.207 404.929 210.066 400.437C223.83 367.18 240.2 336.412 258.722 308.985C274.417 285.747 291.873 264.577 310.605 246.065C325.67 231.177 341.638 217.92 358.066 206.661C369.615 198.746 381.269 191.892 392.707 186.292C394.7 185.315 396.793 184.428 398.817 183.571C401.514 182.428 404.303 181.246 406.876 179.843L407.271 180.567C404.662 181.99 401.854 183.179 399.139 184.33C397.125 185.184 395.043 186.066 393.07 187.033C381.668 192.616 370.048 199.448 358.532 207.341C342.144 218.572 326.215 231.799 311.185 246.652C292.491 265.126 275.07 286.253 259.406 309.447C240.914 336.827 224.571 367.547 210.828 400.753C208.972 405.238 207.136 409.834 205.372 414.414Z" fill="#FCFDFE"/>
<path d="M289.329 270.113L288.689 269.594C311.012 242.123 312.485 181.482 312.497 180.873L313.322 180.889C313.309 181.502 311.831 242.423 289.329 270.113Z" fill="#FCFDFE"/>
<path d="M233.618 352.434L232.922 351.992C245.909 331.548 291.926 324.716 292.389 324.649L292.506 325.466C292.047 325.532 246.402 332.309 233.618 352.434Z" fill="#FCFDFE"/>
<path d="M227.253 364.671L226.489 364.359C232.473 349.725 232.814 326.57 227.449 299.162C227.18 297.784 227.18 297.784 227.237 297.638L228.004 297.941L227.621 297.79L228.031 297.786C228.039 297.88 228.14 298.4 228.259 299.004C233.654 326.568 233.297 349.889 227.253 364.671Z" fill="#FCFDFE"/>
<path d="M208.714 406.091L208.072 405.574C219 392.015 244.828 392.014 245.088 392.015L245.083 392.84C244.827 392.839 219.392 392.843 208.714 406.091Z" fill="#FCFDFE"/>
<path d="M204.147 414.175C204.435 400.136 200.702 385.555 192.734 369.599L193.472 369.23C201.501 385.309 205.262 400.016 204.971 414.192L204.147 414.175Z" fill="#FCFDFE"/>
<path d="M348.966 214.131L348.356 213.576C361.618 198.995 372.172 180.601 375.64 174.557C376.479 173.094 376.776 172.58 376.911 172.419L377.543 172.948C377.442 173.072 376.962 173.909 376.355 174.968C372.876 181.031 362.289 199.483 348.966 214.131Z" fill="#FCFDFE"/>
<path d="M323.894 234.65L323.475 233.94C339.388 224.535 375.159 233.856 376.674 234.258L376.463 235.055C376.095 234.958 339.51 225.421 323.894 234.65Z" fill="#FCFDFE"/>
</g>
</g>
<mask id="mask1_624_696" style="mask-type:luminance" maskUnits="userSpaceOnUse" x="199" y="258" width="193" height="192">
<path d="M201.562 429.258L234.149 449.123C234.149 449.123 250.474 436.146 249.679 419.48C248.058 385.478 277.952 386.431 290.532 384.958C309.504 382.735 325.254 372.503 310.206 354.695C295.157 336.887 331.978 319.187 363.135 320.014C393.624 320.823 412.656 267.091 346.826 259.281C307.512 254.617 292.462 290.138 280.597 306.27C268.732 322.401 242.538 308.367 238.524 334.462C235.095 356.751 241.266 378.29 223.078 383.964C204.889 389.638 195.426 402.662 201.562 429.258Z" fill="white"/>
</mask>
<g mask="url(#mask1_624_696)">
<path d="M201.562 429.258L234.149 449.123C234.149 449.123 250.474 436.146 249.679 419.48C248.058 385.478 277.952 386.431 290.532 384.958C309.504 382.735 323.082 373.197 312.771 355.357C301.106 335.17 331.978 319.187 363.135 320.014C393.624 320.823 412.656 267.091 346.826 259.281C307.512 254.617 292.462 290.138 280.597 306.27C268.732 322.401 242.538 308.367 238.524 334.462C235.095 356.751 241.266 378.29 223.078 383.964C204.889 389.638 195.426 402.662 201.562 429.258Z" fill="url(#paint1_linear_624_696)"/>
</g>
<mask id="mask2_624_696" style="mask-type:luminance" maskUnits="userSpaceOnUse" x="199" y="258" width="193" height="192">
<path d="M201.562 429.258L234.149 449.123C234.149 449.123 250.474 436.146 249.679 419.48C248.058 385.478 277.952 386.431 290.532 384.958C309.504 382.735 325.254 372.503 310.206 354.695C295.157 336.887 331.978 319.187 363.135 320.014C393.624 320.823 412.656 267.091 346.826 259.281C307.512 254.617 292.462 290.138 280.597 306.27C268.732 322.401 242.538 308.367 238.524 334.462C235.095 356.751 241.266 378.29 223.078 383.964C204.889 389.638 195.426 402.662 201.562 429.258Z" fill="white"/>
</mask>
<g mask="url(#mask2_624_696)">
<g opacity="0.5">
<path d="M213.822 440.88L214.574 441.168C214.753 440.702 232.808 394.117 264.632 353.333C293.95 315.759 341.294 275.563 400.345 297.447L400.625 296.692C374.338 286.95 348.148 288.487 322.78 301.26C302.516 311.463 282.735 328.82 263.987 352.85C232.093 393.729 214.001 440.413 213.822 440.88Z" fill="#BEB8F2"/>
<path d="M312.41 307.055L313.145 307.386C324.167 282.94 352.498 255.941 352.783 255.671L352.229 255.086C351.943 255.357 323.497 282.466 312.41 307.055Z" fill="#BEB8F2"/>
<path d="M329.546 299.008C361.5 298.696 378.916 318.809 379.088 319.012L379.703 318.491C379.528 318.285 361.883 297.887 329.538 298.202L329.546 299.008Z" fill="#BEB8F2"/>
<path d="M245.28 381.13C272.743 353.384 321.706 372.32 322.168 372.545L322.566 371.845C322.134 371.582 272.414 352.571 244.707 380.563L245.28 381.13Z" fill="#BEB8F2"/>
<path d="M253.445 367.256L254.204 367.527C262.568 344.061 248.713 315.961 248.572 315.68L247.851 316.041C247.991 316.319 261.692 344.118 253.445 367.256Z" fill="#BEB8F2"/>
<path d="M217.577 433.9C226.265 421.881 250.382 422.872 250.625 422.883L250.662 422.079C249.655 422.031 225.868 421.054 216.924 433.429L217.577 433.9Z" fill="#BEB8F2"/>
<path d="M221.704 422.811L222.453 423.109C226.784 412.212 218.568 392.123 215.868 385.522C215.486 384.589 215.157 383.784 215.127 383.628L214.334 383.772C214.374 383.992 214.591 384.528 215.122 385.827C217.792 392.354 225.916 412.216 221.704 422.811Z" fill="#BEB8F2"/>
</g>
</g>
<path d="M259.119 459.425C258.963 459.456 258.805 459.487 258.648 459.516C249.335 461.286 238.845 461.576 227.127 459.443C224.872 458.866 222.617 458.289 220.362 457.712C219.647 451.9 220.007 446.244 227.384 445.671C238.84 444.781 243.197 425.914 241.696 418.581C239.839 409.505 235.948 388.283 253.637 386.63C268.363 385.253 278.147 387.374 282.953 369.838C287.759 352.302 299.841 343.327 315.705 347.865C332.4 352.642 351.167 333.104 363.41 343.647C384.742 362.019 354.375 396.383 322.522 401.349C290.668 406.314 305.24 420.559 302.89 435.252C299.682 455.312 273.797 445.275 265.031 451.532C262.062 453.651 260.232 456.47 259.119 459.425Z" fill="url(#paint2_linear_624_696)"/>
<mask id="mask3_624_696" style="mask-type:luminance" maskUnits="userSpaceOnUse" x="220" y="340" width="151" height="131">
<path d="M257.536 470.521L220.697 462.244C219.723 456.547 219.144 446.311 227.384 445.671C238.84 444.782 243.197 425.915 241.696 418.582C239.839 409.506 235.949 388.284 253.637 386.63C268.363 385.253 278.147 387.375 282.953 369.838C287.759 352.302 299.841 343.327 315.705 347.866C332.4 352.642 351.167 333.104 363.41 343.648C384.742 362.019 354.375 396.384 322.522 401.349C290.668 406.314 305.24 420.559 302.89 435.253C299.682 455.313 273.797 445.276 265.031 451.532C258.16 456.437 257.366 465.085 257.536 470.521Z" fill="white"/>
</mask>
<g mask="url(#mask3_624_696)">
<g opacity="0.5">
<path d="M241.492 460.829L240.743 460.499C264.882 405.77 315.463 363.024 372.749 348.942L372.944 349.736C315.9 363.759 265.53 406.327 241.492 460.829Z" fill="#FCFDFE"/>
<path d="M257.208 432.117L256.409 431.942C261.461 408.984 245.745 386.763 245.586 386.541L246.25 386.064C246.412 386.288 262.34 408.798 257.208 432.117Z" fill="#FCFDFE"/>
<path d="M246.207 450.882L245.587 450.348C261.147 432.295 304.076 438.702 304.507 438.769L304.382 439.578C303.955 439.512 261.471 433.172 246.207 450.882Z" fill="#FCFDFE"/>
<path d="M296.531 388.631L295.867 388.152C306.943 372.83 301.623 344.331 301.568 344.045L302.371 343.89C302.427 344.18 307.811 373.026 296.531 388.631Z" fill="#FCFDFE"/>
<path d="M327.952 367.28L327.683 366.507C348.031 359.435 374.454 371.63 374.719 371.755L374.372 372.496C374.11 372.372 347.983 360.318 327.952 367.28Z" fill="#FCFDFE"/>
</g>
</g>
<path opacity="0.75" d="M322.216 201.665C322.216 130.505 261.633 72.8184 186.899 72.8184C112.166 72.8184 51.582 130.505 51.582 201.665C51.582 244.85 73.8963 283.071 108.145 306.449C122.674 316.367 131.486 332.714 131.486 350.306V360.166C131.486 381.59 148.853 398.957 170.277 398.957H203.522C224.945 398.957 242.313 381.59 242.313 360.166V350.306C242.313 332.714 251.124 316.367 265.654 306.449C299.902 283.071 322.216 244.85 322.216 201.665Z" fill="#F4F7FA"/>
<path d="M186.899 472.297C203.477 472.297 216.916 465.182 216.916 456.405C216.916 447.628 203.477 440.513 186.899 440.513C170.321 440.513 156.882 447.628 156.882 456.405C156.882 465.182 170.321 472.297 186.899 472.297Z" fill="url(#paint3_linear_624_696)"/>
<path d="M147.018 428.016V444.245C147.018 449.735 150.142 454.766 155.098 457.13C161.979 460.411 173.418 464.012 190.043 463.586C203.53 463.24 212.325 461.038 217.917 458.724C223.318 456.488 226.781 451.147 226.781 445.301V436.321L147.018 428.016Z" fill="url(#paint4_linear_624_696)"/>
<path opacity="0.3" d="M147.018 442.231C148.233 443.412 149.641 444.415 151.222 445.169C158.941 448.85 209.501 457.075 221.697 452.493C223.281 451.898 224.706 451.101 225.954 450.141C226.487 448.608 226.781 446.977 226.781 445.3V436.321L147.017 428.015V442.231H147.018Z" fill="url(#paint5_linear_624_696)"/>
<path d="M150.559 416.974C146.066 416.506 142.157 420.03 142.157 424.546V425.006C142.157 431.166 145.662 436.81 151.222 439.462C158.941 443.143 209.501 451.368 221.697 446.785C227.836 444.478 231.641 439.207 231.641 432.649V432.279C231.641 428.379 228.695 425.11 224.817 424.706L150.559 416.974Z" fill="url(#paint6_linear_624_696)"/>
<path opacity="0.3" d="M224.817 424.706L150.559 416.974C147.629 416.669 144.955 418.067 143.444 420.325C144.936 423.84 147.652 426.78 151.223 428.483C158.941 432.164 211.655 441.461 221.697 436.729C225.606 434.887 228.672 431.777 230.315 427.997C229.091 426.203 227.122 424.946 224.817 424.706Z" fill="url(#paint7_linear_624_696)"/>
<path d="M147.653 390.68C144.618 390.68 142.157 393.141 142.157 396.177V408.887C142.157 415.047 145.662 420.691 151.223 423.342C158.941 427.024 211.655 436.321 221.697 431.589C227.63 428.793 231.641 423.088 231.641 416.53V396.177C231.641 393.141 229.181 390.68 226.145 390.68H147.653Z" fill="url(#paint8_linear_624_696)"/>
<path d="M186.899 404.954C210.998 404.954 230.535 400.335 230.535 394.637C230.535 388.94 210.998 384.321 186.899 384.321C162.8 384.321 143.264 388.94 143.264 394.637C143.264 400.335 162.8 404.954 186.899 404.954Z" fill="url(#paint9_linear_624_696)"/>
<path d="M322.216 201.665C322.216 130.505 261.633 72.8184 186.899 72.8184C112.166 72.8184 51.582 130.505 51.582 201.665C51.582 244.85 73.8963 283.071 108.145 306.449C122.674 316.367 131.486 332.714 131.486 350.306V360.166C131.486 381.59 148.853 398.957 170.277 398.957H203.522C224.945 398.957 242.313 381.59 242.313 360.166V350.306C242.313 332.714 251.124 316.367 265.654 306.449C299.902 283.071 322.216 244.85 322.216 201.665Z" fill="url(#paint10_linear_624_696)"/>
<path opacity="0.5" d="M186.899 394.051C204.533 394.051 218.828 390.672 218.828 386.502C218.828 382.333 204.533 378.954 186.899 378.954C169.265 378.954 154.97 382.333 154.97 386.502C154.97 390.672 169.265 394.051 186.899 394.051Z" fill="#F4F7FA"/>
<path d="M178.579 391.116C177.664 391.116 176.871 390.437 176.751 389.506L153.262 206.836C153.132 205.826 153.846 204.901 154.857 204.771C155.869 204.635 156.792 205.355 156.922 206.366L180.411 389.035C180.541 390.046 179.827 390.971 178.816 391.1C178.736 391.111 178.657 391.116 178.579 391.116Z" fill="url(#paint11_linear_624_696)"/>
<path d="M193.168 391.116C193.09 391.116 193.011 391.111 192.931 391.101C191.92 390.971 191.206 390.046 191.336 389.036L214.825 206.366C214.955 205.355 215.879 204.635 216.891 204.772C217.902 204.901 218.616 205.826 218.486 206.837L194.996 389.506C194.876 390.437 194.083 391.116 193.168 391.116Z" fill="url(#paint12_linear_624_696)"/>
<path d="M212.298 206.689C211.699 206.689 211.11 206.397 210.756 205.859L204.273 196.024C204.206 195.923 204.104 195.865 204.01 195.876C203.849 195.88 203.781 195.994 203.759 196.031L199.479 203.2C198.769 204.388 197.526 205.117 196.152 205.152C194.787 205.196 193.497 204.518 192.728 203.365L186.851 194.554C186.787 194.458 186.701 194.409 186.597 194.408C186.472 194.431 186.413 194.452 186.351 194.542L181.188 202.004C180.442 203.083 179.22 203.728 177.917 203.731H177.909C176.607 203.731 175.382 203.089 174.631 202.013L167.188 191.35C167.121 191.254 167.026 191.22 166.926 191.21C166.819 191.215 166.736 191.269 166.677 191.37L159.884 203.097C159.373 203.978 158.244 204.279 157.362 203.769C156.48 203.258 156.18 202.129 156.691 201.247L163.484 189.519C164.175 188.327 165.404 187.581 166.771 187.524C168.126 187.454 169.425 188.107 170.214 189.238L177.657 199.901C177.722 199.993 177.806 200.041 177.909 200.041H177.909C178.009 200.04 178.091 199.995 178.153 199.905L183.316 192.443C184.072 191.352 185.315 190.702 186.628 190.718C187.95 190.729 189.181 191.398 189.921 192.507L195.797 201.317C195.864 201.416 195.963 201.499 196.06 201.462C196.22 201.459 196.288 201.345 196.31 201.308L200.59 194.139C201.302 192.947 202.55 192.218 203.928 192.187C205.292 192.156 206.589 192.832 207.354 193.993L213.837 203.828C214.398 204.679 214.162 205.823 213.311 206.384C212.999 206.591 212.647 206.689 212.298 206.689Z" fill="url(#paint13_linear_624_696)"/>
<path opacity="0.3" d="M189.355 303.295C192.254 253.633 275.974 242.011 275.615 197.66C275.395 170.345 242.126 150.059 235.022 145.996C182.676 116.057 118.246 150.63 104.939 126.161C101.626 120.068 103.18 113.437 104.064 109.66C105.402 103.952 108.429 98.6353 112.919 93.7725C75.9874 116.779 51.582 156.505 51.582 201.665C51.582 244.85 73.8963 283.072 108.145 306.449C122.674 316.368 131.486 332.715 131.486 350.306V360.166C131.486 381.59 148.853 398.957 170.277 398.957H203.522C224.945 398.957 242.313 381.59 242.313 360.166V352.283C237.737 355.79 232.482 358.235 226.719 358.188C206.724 358.023 187.912 328.008 189.355 303.295Z" fill="url(#paint14_linear_624_696)"/>
<path opacity="0.44" d="M189.063 318.985C253.373 318.985 305.506 268.708 305.506 206.688C305.506 144.669 253.373 94.3916 189.063 94.3916C124.754 94.3916 72.6205 144.669 72.6205 206.688C72.6205 268.708 124.754 318.985 189.063 318.985Z" fill="#F4F7FA"/>
<mask id="mask4_624_696" style="mask-type:luminance" maskUnits="userSpaceOnUse" x="127" y="72" width="196" height="236">
<path d="M322.216 201.666C322.216 130.506 261.633 72.8193 186.899 72.8193C165.736 72.8193 145.71 77.4486 127.872 85.6963C127.015 96.6732 128.347 105.681 130.398 112.932C141.479 152.095 176.579 151.809 205.01 203.391C227.035 243.349 215.988 261.693 238.685 287.247C246.275 295.793 255.12 302.3 264.5 307.264C264.881 306.989 265.264 306.716 265.654 306.45C299.902 283.072 322.216 244.851 322.216 201.666Z" fill="white"/>
</mask>
<g mask="url(#mask4_624_696)">
<path d="M322.216 201.666C322.216 130.506 261.633 72.8193 186.899 72.8193C112.166 72.8193 51.5821 130.506 51.5821 201.666C51.5821 244.851 73.8965 283.072 108.145 306.45C122.674 316.368 131.486 332.715 131.486 350.307V360.167C131.486 381.591 148.853 398.958 170.277 398.958H203.522C224.945 398.958 242.313 381.591 242.313 360.167V350.307C242.313 332.715 251.124 316.368 265.654 306.45C299.902 283.072 322.216 244.851 322.216 201.666Z" fill="url(#paint15_linear_624_696)"/>
</g>
<mask id="mask5_624_696" style="mask-type:luminance" maskUnits="userSpaceOnUse" x="127" y="72" width="196" height="236">
<path d="M322.216 201.666C322.216 130.506 261.633 72.8193 186.899 72.8193C165.736 72.8193 145.71 77.4486 127.872 85.6963C127.015 96.6732 128.347 105.681 130.398 112.932C141.479 152.095 176.579 151.809 205.01 203.391C227.035 243.349 215.988 261.693 238.685 287.247C246.275 295.793 255.12 302.3 264.5 307.264C264.881 306.989 265.264 306.716 265.654 306.45C299.902 283.072 322.216 244.851 322.216 201.666Z" fill="white"/>
</mask>
<g mask="url(#mask5_624_696)">
<path opacity="0.3" d="M242.513 387.351C245.004 400.306 236.988 410.652 230.123 417.25C228.948 416.965 228.186 417.121 226.928 417.115C215.581 417.058 210.891 414.485 199.817 412.568C197.434 412.155 190.912 408.681 188.344 407.076L183.606 404C183.606 404 181.436 373.456 197.827 369.243C214.219 365.031 215.678 335.532 218.28 319.893C225.34 277.46 269.371 292.424 282.802 238.622C286.374 224.312 288.402 195.828 303.304 187.428C320.281 177.858 327.15 193.094 338.69 184.431C356.728 170.891 380.662 170.376 389.683 191.169C398.586 211.69 374.025 242.029 327.324 259.709C295.256 276.187 293.13 282.979 291.029 300.284C289.558 312.404 293.158 345.828 274.155 354.091C255.152 362.356 239.666 372.541 242.513 387.351Z" fill="url(#paint16_linear_624_696)"/>
</g>
<mask id="mask6_624_696" style="mask-type:luminance" maskUnits="userSpaceOnUse" x="127" y="72" width="196" height="236">
<path d="M322.216 201.666C322.216 130.506 261.633 72.8193 186.899 72.8193C165.736 72.8193 145.71 77.4486 127.872 85.6963C127.015 96.6732 128.347 105.681 130.398 112.932C141.479 152.095 176.579 151.809 205.01 203.391C227.035 243.349 215.988 261.693 238.685 287.247C246.275 295.793 255.12 302.3 264.5 307.264C264.881 306.989 265.264 306.716 265.654 306.45C299.902 283.072 322.216 244.851 322.216 201.666Z" fill="white"/>
</mask>
<g mask="url(#mask6_624_696)">
<path opacity="0.3" d="M127.872 85.6963C140.761 85.5251 158.485 87.5092 171.116 99.5059C186.904 114.501 179.664 130.824 190.484 152.769C208.689 189.689 245.385 176.346 270.599 214.396C293.531 249.001 285.013 292.989 275.441 299.793C274.582 300.403 264.5 307.264 264.5 307.264L115.212 243.008L127.872 85.6963Z" fill="url(#paint17_linear_624_696)"/>
</g>
<mask id="mask7_624_696" style="mask-type:luminance" maskUnits="userSpaceOnUse" x="127" y="72" width="196" height="236">
<path d="M322.216 201.666C322.216 130.506 261.633 72.8193 186.899 72.8193C165.736 72.8193 145.71 77.4486 127.872 85.6963C127.015 96.6732 128.347 105.681 130.398 112.932C141.479 152.095 176.579 151.809 205.01 203.391C227.035 243.349 215.988 261.693 238.685 287.247C246.275 295.793 255.12 302.3 264.5 307.264C264.881 306.989 265.264 306.716 265.654 306.45C299.902 283.072 322.216 244.851 322.216 201.666Z" fill="white"/>
</mask>
<g mask="url(#mask7_624_696)">
<path d="M186.899 325.711C152.139 325.711 119.458 312.816 94.8768 289.402C70.2885 265.981 56.747 234.839 56.747 201.713C56.747 168.587 70.2885 137.445 94.8768 114.024C119.458 90.6093 152.139 77.7144 186.899 77.7144C221.66 77.7144 254.34 90.6093 278.922 114.024C303.51 137.445 317.052 168.587 317.052 201.713C317.052 234.839 303.51 265.981 278.922 289.402C254.34 312.816 221.66 325.711 186.899 325.711ZM186.899 78.7643C152.41 78.7643 119.986 91.5562 95.6013 114.784C71.2227 138.005 57.7971 168.877 57.7971 201.713C57.7971 234.549 71.2227 265.421 95.6013 288.642C119.986 311.869 152.41 324.661 186.899 324.661C221.388 324.661 253.812 311.869 278.197 288.642C302.576 265.421 316.002 234.549 316.002 201.713C316.002 168.877 302.576 138.005 278.197 114.784C253.812 91.5562 221.388 78.7643 186.899 78.7643Z" fill="white"/>
<path d="M186.899 325.711C161.39 325.711 137.416 312.795 119.394 289.342C101.404 265.929 91.4961 234.809 91.4961 201.713C91.4961 168.617 101.404 137.496 119.394 114.084C137.416 90.6306 161.39 77.7144 186.899 77.7144C212.409 77.7144 236.383 90.6306 254.405 114.084C272.395 137.496 282.303 168.617 282.303 201.713C282.303 234.809 272.395 265.929 254.405 289.342C236.383 312.795 212.409 325.711 186.899 325.711ZM186.899 78.7643C134.873 78.7643 92.546 133.919 92.546 201.713C92.546 269.507 134.873 324.661 186.899 324.661C238.926 324.661 281.253 269.507 281.253 201.713C281.253 133.919 238.926 78.7643 186.899 78.7643Z" fill="white"/>
<path d="M186.899 325.711C173.995 325.711 161.908 312.748 152.864 289.21C143.882 265.83 138.935 234.756 138.935 201.713C138.935 168.669 143.882 137.595 152.864 114.215C161.908 90.6768 173.995 77.7139 186.899 77.7139C199.803 77.7139 211.89 90.6768 220.934 114.215C229.916 137.595 234.863 168.669 234.863 201.713C234.863 234.756 229.916 265.83 220.934 289.21C211.89 312.748 199.803 325.711 186.899 325.711ZM186.899 78.7641C161.031 78.7641 139.985 133.919 139.985 201.713C139.985 269.507 161.031 324.661 186.899 324.661C212.768 324.661 233.813 269.507 233.813 201.713C233.813 133.919 212.768 78.7641 186.899 78.7641Z" fill="white"/>
<path d="M187.424 78.2393H186.374V325.186H187.424V78.2393Z" fill="white"/>
<path d="M186.899 216.116C152.26 216.116 119.692 214.975 95.1947 212.903C83.2703 211.895 73.9041 210.719 67.356 209.41C57.8469 207.508 56.7472 205.77 56.7472 204.628C56.7472 203.485 57.8469 201.747 67.356 199.845C73.9043 198.536 83.2703 197.36 95.1947 196.352C119.692 194.28 152.26 193.139 186.899 193.139C221.538 193.139 254.106 194.28 278.604 196.352C290.528 197.36 299.894 198.536 306.443 199.845C315.952 201.747 317.051 203.485 317.051 204.628C317.051 205.77 315.952 207.508 306.443 209.41C299.894 210.719 290.528 211.895 278.604 212.903C254.106 214.975 221.538 216.116 186.899 216.116ZM186.899 194.189C152.289 194.189 119.752 195.329 95.2834 197.398C59.6043 200.416 57.7971 203.95 57.7971 204.628C57.7971 205.305 59.6043 208.839 95.2834 211.857C119.752 213.927 152.289 215.066 186.899 215.066C221.509 215.066 254.046 213.926 278.515 211.857C314.194 208.839 316.002 205.305 316.002 204.628C316.002 203.95 314.194 200.416 278.515 197.398C254.046 195.329 221.51 194.189 186.899 194.189Z" fill="white"/>
<path d="M186.899 169.376C127.857 169.376 66.7873 163.79 66.7873 154.443C66.7873 149.125 86.0859 145.684 102.276 143.733C124.883 141.01 154.936 139.51 186.899 139.51C218.862 139.51 248.915 141.01 271.522 143.733C287.712 145.684 307.011 149.125 307.011 154.443C307.011 163.79 245.941 169.376 186.899 169.376ZM186.899 140.56C115.679 140.56 67.8373 147.738 67.8373 154.443C67.8373 161.148 115.679 168.326 186.899 168.326C258.119 168.326 305.961 161.148 305.961 154.443C305.961 147.738 258.119 140.56 186.899 140.56Z" fill="white"/>
<path d="M186.538 111.328C151.457 111.328 115.171 106.951 115.171 99.6253C115.171 92.2998 151.457 87.9224 186.538 87.9224C221.619 87.9224 257.906 92.2998 257.906 99.6253C257.906 106.951 221.62 111.328 186.538 111.328ZM186.538 88.9723C144.476 88.9723 116.221 94.4804 116.221 99.6253C116.221 104.77 144.476 110.278 186.538 110.278C228.601 110.278 256.856 104.77 256.856 99.6253C256.856 94.4804 228.601 88.9723 186.538 88.9723Z" fill="white"/>
<path d="M186.899 262.992C154.936 262.992 124.883 261.492 102.276 258.768C86.0861 256.818 66.7874 253.377 66.7874 248.059C66.7874 242.741 86.0861 239.3 102.276 237.35C124.883 234.626 154.936 233.126 186.899 233.126C218.862 233.126 248.915 234.626 271.523 237.35C287.712 239.3 307.011 242.741 307.011 248.059C307.011 253.377 287.712 256.818 271.523 258.768C248.915 261.492 218.862 262.992 186.899 262.992ZM186.899 234.176C115.679 234.176 67.8373 241.354 67.8373 248.059C67.8373 254.764 115.679 261.942 186.899 261.942C258.119 261.942 305.961 254.764 305.961 248.059C305.961 241.354 258.119 234.176 186.899 234.176Z" fill="white"/>
<path d="M186.538 314.579C151.457 314.579 115.171 310.202 115.171 302.876C115.171 295.551 151.457 291.173 186.538 291.173C221.619 291.173 257.906 295.551 257.906 302.876C257.906 310.202 221.62 314.579 186.538 314.579ZM186.538 292.223C144.476 292.223 116.221 297.731 116.221 302.876C116.221 308.021 144.476 313.529 186.538 313.529C228.601 313.529 256.856 308.021 256.856 302.876C256.856 297.732 228.601 292.223 186.538 292.223Z" fill="white"/>
</g>
<mask id="mask8_624_696" style="mask-type:luminance" maskUnits="userSpaceOnUse" x="127" y="72" width="196" height="236">
<path d="M322.216 201.666C322.216 130.506 261.633 72.8193 186.899 72.8193C165.736 72.8193 145.71 77.4486 127.872 85.6963C127.015 96.6732 128.347 105.681 130.398 112.932C141.479 152.095 176.579 151.809 205.01 203.391C227.035 243.349 215.988 261.693 238.685 287.247C246.275 295.793 255.12 302.3 264.5 307.264C264.881 306.989 265.264 306.716 265.654 306.45C299.902 283.072 322.216 244.851 322.216 201.666Z" fill="white"/>
</mask>
<g mask="url(#mask8_624_696)">
<path d="M277.312 168.395C280.047 168.395 282.264 166.178 282.264 163.443C282.264 160.708 280.047 158.491 277.312 158.491C274.577 158.491 272.36 160.708 272.36 163.443C272.36 166.178 274.577 168.395 277.312 168.395Z" fill="white"/>
</g>
<mask id="mask9_624_696" style="mask-type:luminance" maskUnits="userSpaceOnUse" x="127" y="72" width="196" height="236">
<path d="M322.216 201.666C322.216 130.506 261.633 72.8193 186.899 72.8193C165.736 72.8193 145.71 77.4486 127.872 85.6963C127.015 96.6732 128.347 105.681 130.398 112.932C141.479 152.095 176.579 151.809 205.01 203.391C227.035 243.349 215.988 261.693 238.685 287.247C246.275 295.793 255.12 302.3 264.5 307.264C264.881 306.989 265.264 306.716 265.654 306.45C299.902 283.072 322.216 244.851 322.216 201.666Z" fill="white"/>
</mask>
<g mask="url(#mask9_624_696)">
<path d="M232.577 173.039C235.312 173.039 237.53 170.822 237.53 168.087C237.53 165.352 235.312 163.135 232.577 163.135C229.842 163.135 227.625 165.352 227.625 168.087C227.625 170.822 229.842 173.039 232.577 173.039Z" fill="white"/>
</g>
<mask id="mask10_624_696" style="mask-type:luminance" maskUnits="userSpaceOnUse" x="127" y="72" width="196" height="236">
<path d="M322.216 201.666C322.216 130.506 261.633 72.8193 186.899 72.8193C165.736 72.8193 145.71 77.4486 127.872 85.6963C127.015 96.6732 128.347 105.681 130.398 112.932C141.479 152.095 176.579 151.809 205.01 203.391C227.035 243.349 215.988 261.693 238.685 287.247C246.275 295.793 255.12 302.3 264.5 307.264C264.881 306.989 265.264 306.716 265.654 306.45C299.902 283.072 322.216 244.851 322.216 201.666Z" fill="white"/>
</mask>
<g mask="url(#mask10_624_696)">
<path d="M280.569 216.594C283.304 216.594 285.521 214.377 285.521 211.642C285.521 208.907 283.304 206.689 280.569 206.689C277.834 206.689 275.617 208.907 275.617 211.642C275.617 214.377 277.834 216.594 280.569 216.594Z" fill="white"/>
</g>
<mask id="mask11_624_696" style="mask-type:luminance" maskUnits="userSpaceOnUse" x="127" y="72" width="196" height="236">
<path d="M322.216 201.666C322.216 130.506 261.633 72.8193 186.899 72.8193C165.736 72.8193 145.71 77.4486 127.872 85.6963C127.015 96.6732 128.347 105.681 130.398 112.932C141.479 152.095 176.579 151.809 205.01 203.391C227.035 243.349 215.988 261.693 238.685 287.247C246.275 295.793 255.12 302.3 264.5 307.264C264.881 306.989 265.264 306.716 265.654 306.45C299.902 283.072 322.216 244.851 322.216 201.666Z" fill="white"/>
</mask>
<g mask="url(#mask11_624_696)">
<path d="M234.063 219.403C236.798 219.403 239.015 217.186 239.015 214.451C239.015 211.716 236.798 209.499 234.063 209.499C231.328 209.499 229.111 211.716 229.111 214.451C229.111 217.186 231.328 219.403 234.063 219.403Z" fill="white"/>
</g>
<mask id="mask12_624_696" style="mask-type:luminance" maskUnits="userSpaceOnUse" x="115" y="113" width="234" height="199">
<path d="M339.552 191.845C312.319 126.101 234.27 95.9894 165.223 124.59C145.671 132.689 128.941 144.63 115.616 159.077C119.025 169.546 123.703 177.359 128.373 183.273C153.598 215.215 185.918 201.518 231.926 238.294C267.566 266.782 264.381 287.958 295.13 302.881C305.412 307.872 316.074 310.499 326.64 311.495C326.887 311.095 327.137 310.697 327.395 310.302C350.09 275.596 356.079 231.744 339.552 191.845Z" fill="white"/>
</mask>
<g mask="url(#mask12_624_696)">
<path d="M308.105 157.781C310.632 156.734 311.832 153.837 310.785 151.31C309.738 148.783 306.841 147.584 304.315 148.63C301.788 149.677 300.588 152.574 301.635 155.101C302.681 157.627 305.578 158.827 308.105 157.781Z" fill="white"/>
</g>
<mask id="mask13_624_696" style="mask-type:luminance" maskUnits="userSpaceOnUse" x="127" y="72" width="196" height="236">
<path d="M322.216 201.666C322.216 130.506 261.633 72.8193 186.899 72.8193C165.736 72.8193 145.71 77.4486 127.872 85.6963C127.015 96.6732 128.347 105.681 130.398 112.932C141.479 152.095 176.579 151.809 205.01 203.391C227.035 243.349 215.988 261.693 238.685 287.247C246.275 295.793 255.12 302.3 264.5 307.264C264.881 306.989 265.264 306.716 265.654 306.45C299.902 283.072 322.216 244.851 322.216 201.666Z" fill="white"/>
</mask>
<g mask="url(#mask13_624_696)">
<path d="M316.104 209.707C318.839 209.707 321.056 207.49 321.056 204.755C321.056 202.02 318.839 199.803 316.104 199.803C313.369 199.803 311.152 202.02 311.152 204.755C311.152 207.49 313.369 209.707 316.104 209.707Z" fill="white"/>
</g>
<mask id="mask14_624_696" style="mask-type:luminance" maskUnits="userSpaceOnUse" x="127" y="72" width="196" height="236">
<path d="M322.216 201.666C322.216 130.506 261.633 72.8193 186.899 72.8193C165.736 72.8193 145.71 77.4486 127.872 85.6963C127.015 96.6732 128.347 105.681 130.398 112.932C141.479 152.095 176.579 151.809 205.01 203.391C227.035 243.349 215.988 261.693 238.685 287.247C246.275 295.793 255.12 302.3 264.5 307.264C264.881 306.989 265.264 306.716 265.654 306.45C299.902 283.072 322.216 244.851 322.216 201.666Z" fill="white"/>
</mask>
<g mask="url(#mask14_624_696)">
<path d="M186.899 173.678C189.634 173.678 191.851 171.461 191.851 168.726C191.851 165.991 189.634 163.774 186.899 163.774C184.164 163.774 181.947 165.991 181.947 168.726C181.947 171.461 184.164 173.678 186.899 173.678Z" fill="white"/>
</g>
<mask id="mask15_624_696" style="mask-type:luminance" maskUnits="userSpaceOnUse" x="127" y="72" width="196" height="236">
<path d="M322.216 201.666C322.216 130.506 261.633 72.8193 186.899 72.8193C165.736 72.8193 145.71 77.4486 127.872 85.6963C127.015 96.6732 128.347 105.681 130.398 112.932C141.479 152.095 176.579 151.809 205.01 203.391C227.035 243.349 215.988 261.693 238.685 287.247C246.275 295.793 255.12 302.3 264.5 307.264C264.881 306.989 265.264 306.716 265.654 306.45C299.902 283.072 322.216 244.851 322.216 201.666Z" fill="white"/>
</mask>
<g mask="url(#mask15_624_696)">
<path d="M186.899 115.573C189.634 115.573 191.851 113.356 191.851 110.621C191.851 107.886 189.634 105.668 186.899 105.668C184.164 105.668 181.947 107.886 181.947 110.621C181.947 113.356 184.164 115.573 186.899 115.573Z" fill="white"/>
</g>
<mask id="mask16_624_696" style="mask-type:luminance" maskUnits="userSpaceOnUse" x="171" y="26" width="251" height="170">
<path d="M332.232 29.6088C262.979 13.2563 192.917 58.9598 175.743 131.691C170.88 152.286 170.783 172.839 174.71 192.095C185.196 195.452 194.269 196.226 201.796 195.895C242.456 194.111 250.245 159.886 306.977 144.07C350.926 131.818 366.24 146.784 396.325 130.568C406.385 125.145 414.75 118.033 421.737 110.045C421.557 109.611 421.379 109.175 421.21 108.735C406.329 70.0324 374.26 39.5328 332.232 29.6088Z" fill="white"/>
</mask>
<g mask="url(#mask16_624_696)">
<path d="M223.328 110.458C223.956 107.796 222.308 105.129 219.646 104.5C216.985 103.872 214.317 105.52 213.689 108.182C213.06 110.843 214.709 113.51 217.37 114.139C220.032 114.767 222.699 113.119 223.328 110.458Z" fill="white"/>
</g>
<mask id="mask17_624_696" style="mask-type:luminance" maskUnits="userSpaceOnUse" x="127" y="72" width="196" height="236">
<path d="M322.216 201.666C322.216 130.506 261.633 72.8193 186.899 72.8193C165.736 72.8193 145.71 77.4486 127.872 85.6963C127.015 96.6732 128.347 105.681 130.398 112.932C141.479 152.095 176.579 151.809 205.01 203.391C227.035 243.349 215.988 261.693 238.685 287.247C246.275 295.793 255.12 302.3 264.5 307.264C264.881 306.989 265.264 306.716 265.654 306.45C299.902 283.072 322.216 244.851 322.216 201.666Z" fill="white"/>
</mask>
<g mask="url(#mask17_624_696)">
<path d="M245.398 110.511C248.133 110.511 250.35 108.294 250.35 105.559C250.35 102.824 248.133 100.606 245.398 100.606C242.663 100.606 240.446 102.824 240.446 105.559C240.446 108.294 242.663 110.511 245.398 110.511Z" fill="white"/>
</g>
<mask id="mask18_624_696" style="mask-type:luminance" maskUnits="userSpaceOnUse" x="127" y="72" width="196" height="236">
<path d="M322.216 201.666C322.216 130.506 261.633 72.8193 186.899 72.8193C165.736 72.8193 145.71 77.4486 127.872 85.6963C127.015 96.6732 128.347 105.681 130.398 112.932C141.479 152.095 176.579 151.809 205.01 203.391C227.035 243.349 215.988 261.693 238.685 287.247C246.275 295.793 255.12 302.3 264.5 307.264C264.881 306.989 265.264 306.716 265.654 306.45C299.902 283.072 322.216 244.851 322.216 201.666Z" fill="white"/>
</mask>
<g mask="url(#mask18_624_696)">
<path d="M257.283 103.677C260.018 103.677 262.235 101.46 262.235 98.725C262.235 95.9901 260.018 93.7729 257.283 93.7729C254.548 93.7729 252.331 95.9901 252.331 98.725C252.331 101.46 254.548 103.677 257.283 103.677Z" fill="white"/>
</g>
<mask id="mask19_624_696" style="mask-type:luminance" maskUnits="userSpaceOnUse" x="127" y="72" width="196" height="236">
<path d="M322.216 201.666C322.216 130.506 261.633 72.8193 186.899 72.8193C165.736 72.8193 145.71 77.4486 127.872 85.6963C127.015 96.6732 128.347 105.681 130.398 112.932C141.479 152.095 176.579 151.809 205.01 203.391C227.035 243.349 215.988 261.693 238.685 287.247C246.275 295.793 255.12 302.3 264.5 307.264C264.881 306.989 265.264 306.716 265.654 306.45C299.902 283.072 322.216 244.851 322.216 201.666Z" fill="white"/>
</mask>
<g mask="url(#mask19_624_696)">
<path d="M186.899 83.2187C189.634 83.2187 191.851 81.0015 191.851 78.2666C191.851 75.5316 189.634 73.3145 186.899 73.3145C184.164 73.3145 181.947 75.5316 181.947 78.2666C181.947 81.0015 184.164 83.2187 186.899 83.2187Z" fill="white"/>
</g>
<mask id="mask20_624_696" style="mask-type:luminance" maskUnits="userSpaceOnUse" x="127" y="72" width="196" height="236">
<path d="M322.216 201.666C322.216 130.506 261.633 72.8193 186.899 72.8193C165.736 72.8193 145.71 77.4486 127.872 85.6963C127.015 96.6732 128.347 105.681 130.398 112.932C141.479 152.095 176.579 151.809 205.01 203.391C227.035 243.349 215.988 261.693 238.685 287.247C246.275 295.793 255.12 302.3 264.5 307.264C264.881 306.989 265.264 306.716 265.654 306.45C299.902 283.072 322.216 244.851 322.216 201.666Z" fill="white"/>
</mask>
<g mask="url(#mask20_624_696)">
<path d="M228.451 266.778C231.186 266.778 233.403 264.561 233.403 261.826C233.403 259.091 231.186 256.874 228.451 256.874C225.716 256.874 223.499 259.091 223.499 261.826C223.499 264.561 225.716 266.778 228.451 266.778Z" fill="white"/>
</g>
<mask id="mask21_624_696" style="mask-type:luminance" maskUnits="userSpaceOnUse" x="48" y="145" width="257" height="157">
<path d="M267.957 182.198C217.64 131.881 134.011 133.93 81.1666 186.774C66.2025 201.738 55.3155 219.172 48.5337 237.617C55.6895 245.985 63.0008 251.413 69.5783 255.089C105.106 274.946 129.723 249.925 186.3 266.294C230.128 278.975 235.288 299.758 269.406 301.778C280.816 302.453 291.671 300.8 301.814 297.678C301.889 297.214 301.967 296.75 302.054 296.287C309.741 255.539 298.493 212.734 267.957 182.198Z" fill="white"/>
</mask>
<g mask="url(#mask21_624_696)">
<path d="M275.087 260.925C277.021 258.992 277.021 255.856 275.087 253.922C273.153 251.988 270.018 251.988 268.084 253.922C266.15 255.856 266.15 258.992 268.084 260.925C270.017 262.859 273.153 262.859 275.087 260.925Z" fill="white"/>
</g>
<mask id="mask22_624_696" style="mask-type:luminance" maskUnits="userSpaceOnUse" x="64" y="167" width="257" height="157">
<path d="M283.805 203.732C233.487 153.415 149.859 155.464 97.0145 208.308C82.0504 223.272 71.1634 240.706 64.3816 259.152C71.5374 267.519 78.8486 272.947 85.4262 276.623C120.953 296.481 145.571 271.459 202.148 287.829C245.976 300.509 251.136 321.292 285.254 323.312C296.664 323.988 307.519 322.335 317.662 319.212C317.737 318.748 317.815 318.284 317.902 317.821C325.589 277.073 314.341 234.269 283.805 203.732Z" fill="white"/>
</mask>
<g mask="url(#mask22_624_696)">
<path d="M309.004 252.562C310.938 250.628 310.938 247.493 309.004 245.559C307.07 243.625 303.934 243.625 302 245.559C300.067 247.493 300.067 250.628 302 252.562C303.934 254.496 307.07 254.496 309.004 252.562Z" fill="white"/>
</g>
<path d="M279.049 469.525C278.717 469.525 278.448 469.256 278.448 468.924V312.065C278.448 311.733 278.717 311.463 279.049 311.463C279.382 311.463 279.651 311.733 279.651 312.065V468.924C279.651 469.256 279.382 469.525 279.049 469.525Z" fill="#97A6B7"/>
<path d="M321.309 459.672C320.976 459.672 320.707 459.402 320.707 459.07V308.109C320.707 307.777 320.976 307.508 321.309 307.508C321.641 307.508 321.91 307.777 321.91 308.109V459.07C321.91 459.402 321.641 459.672 321.309 459.672Z" fill="#97A6B7"/>
<path d="M419.011 466.702C418.765 466.702 418.534 466.55 418.445 466.305L361.954 310.649C361.841 310.337 362.003 309.991 362.315 309.878C362.626 309.765 362.972 309.926 363.085 310.238L419.576 465.895C419.689 466.207 419.528 466.552 419.216 466.665C419.148 466.69 419.079 466.702 419.011 466.702Z" fill="#97A6B7"/>
<path d="M377.308 478.882C377.051 478.882 376.813 478.716 376.733 478.458L326.032 314.346C325.934 314.028 326.112 313.691 326.43 313.593C326.748 313.495 327.083 313.674 327.182 313.991L377.882 478.103C377.98 478.42 377.803 478.757 377.485 478.855C377.426 478.873 377.366 478.882 377.308 478.882Z" fill="#97A6B7"/>
<path d="M320.844 307.953L278.451 311.09V312.044L326.9 314.216L363.111 309.779V308.825L320.844 307.953Z" fill="#97A6B7"/>
<path d="M320.844 306.999L278.451 311.09L326.9 313.262L363.111 308.825L320.844 306.999Z" fill="#E7EBEF"/>
<path d="M366.338 443.378C366.072 443.378 365.827 443.2 365.757 442.929C365.673 442.608 365.864 442.279 366.186 442.195L406.55 431.605C406.87 431.521 407.2 431.713 407.285 432.035C407.369 432.356 407.178 432.685 406.856 432.769L366.492 443.359C366.44 443.372 366.389 443.378 366.338 443.378Z" fill="#97A6B7"/>
<path d="M354.904 406.229C354.617 406.229 354.364 406.024 354.312 405.732C354.254 405.405 354.472 405.093 354.799 405.035L394.414 398.021C394.744 397.964 395.054 398.181 395.111 398.508C395.169 398.835 394.951 399.148 394.624 399.206L355.01 406.22C354.974 406.226 354.939 406.229 354.904 406.229Z" fill="#97A6B7"/>
<path d="M343.016 367.885C342.717 367.885 342.459 367.664 342.42 367.36C342.377 367.031 342.61 366.729 342.939 366.687L381.278 361.745C381.618 361.7 381.909 361.936 381.952 362.265C381.994 362.594 381.761 362.896 381.432 362.938L343.093 367.88C343.067 367.884 343.042 367.885 343.016 367.885Z" fill="#97A6B7"/>
<path d="M335.398 341.277C335.107 341.277 334.851 341.065 334.804 340.768C334.753 340.44 334.977 340.132 335.306 340.08L371.352 334.44C371.681 334.388 371.988 334.613 372.039 334.941C372.09 335.27 371.866 335.577 371.538 335.629L335.491 341.27C335.46 341.274 335.429 341.277 335.398 341.277Z" fill="#97A6B7"/>
<path d="M72.0325 438.865L71.6071 445.688C71.6071 445.688 72.576 446.714 74.4396 445.999L76.4741 439.299L72.0325 438.865Z" fill="url(#paint18_linear_624_696)"/>
<path d="M72.8875 443.881C72.8875 443.881 69.5465 445.245 70.1953 446.722C70.5436 447.516 71.7493 449.308 72.791 450.798C73.755 452.176 75.4963 452.786 77.108 452.303C77.6487 452.141 78.2019 451.982 78.6916 451.856C79.7044 451.595 79.7634 450.179 78.7769 449.831C78.2985 449.663 77.8247 449.526 77.4121 449.463C76.1889 449.274 74.5053 446.385 74.308 445.227C74.1108 444.07 72.8875 443.881 72.8875 443.881Z" fill="url(#paint19_linear_624_696)"/>
<path d="M64.8433 373.387C69.7652 375.084 87.9658 381.96 92.0225 397.739C92.2391 398.581 92.7945 400.924 92.8204 404.75C92.928 420.677 83.6686 434.158 76.9343 442C74.8107 441.965 72.6872 441.93 70.5637 441.895C69.5031 437.83 68.528 431.751 70.051 424.909C72.3786 414.453 78.4215 411.74 77.2552 406.609C75.1372 397.29 53.4976 398.704 51.457 390.359C50.7198 387.345 52.3374 382.229 64.8433 373.387Z" fill="url(#paint20_linear_624_696)"/>
<path d="M3.98885 468.75L13.2298 468.533C13.7994 468.519 14.0436 467.809 13.6075 467.443C13.1777 467.082 12.5835 466.786 11.8241 466.866C10.0674 467.049 6.12382 464.591 4.33489 465.119C3.7504 465.291 3.27596 466.666 3.03248 467.046C2.55468 467.793 3.10279 468.771 3.98885 468.75Z" fill="url(#paint21_linear_624_696)"/>
<path d="M8.13927 461.649L4.33475 465.119C4.33475 465.119 5.66345 466.111 7.60155 465.685L11.4905 463.008L8.13927 461.649Z" fill="url(#paint22_linear_624_696)"/>
<g opacity="0.3">
<path d="M81.177 414.477C83.7282 407.585 86.7873 399.088 83.2907 394.264C79.7522 389.382 72.0025 393.505 64.2268 389.572C61.3426 388.113 58.3784 385.503 55.9119 380.777C51.5479 385.284 50.9554 388.308 51.4571 390.359C53.4977 398.704 75.1371 397.29 77.2552 406.609C78.4216 411.74 72.3788 414.453 70.0511 424.909C68.7418 430.791 69.2798 436.106 70.1301 440.065C70.8867 436.388 72.0627 432.526 73.8613 428.628C76.6491 422.585 78.4893 421.737 81.177 414.477Z" fill="url(#paint23_linear_624_696)"/>
</g>
<path d="M67.6623 371.396C64.6691 385.149 58.2902 406.15 43.6705 428.073C32.8472 444.302 20.9557 455.866 11.6283 463.592C10.9648 463.791 9.83359 464.035 8.4468 463.865C7.41631 463.738 6.59888 463.427 6.04924 463.165C6.6912 459.288 8.04542 453.56 11.2583 447.374C17.1372 436.053 22.3744 436.415 28.2795 426.424C32.6034 419.108 34.0084 411.336 36.8183 395.794C38.988 383.792 38.9891 380.923 41.9624 377.482C47.9739 370.523 59.2644 370.442 67.6623 371.396Z" fill="url(#paint24_linear_624_696)"/>
<g opacity="0.3">
<path d="M13.5133 449.933C15.6116 446.62 19.335 443.17 26.6794 436.364C34.2698 429.33 33.9784 430.601 35.4721 428.523C42.1604 419.217 38.5361 409.276 40.1878 397.277C41.1094 390.583 44.0637 381.835 52.6673 372.035C48.6344 372.779 44.7732 374.379 41.9622 377.481C38.5107 381.29 38.766 385.02 36.8181 395.793C34.0083 411.336 32.6032 419.107 28.2793 426.423C22.3742 436.415 17.1372 436.053 11.2581 447.373C8.0452 453.56 6.69097 459.288 6.04901 463.165C6.59865 463.427 7.41593 463.738 8.44658 463.864C9.26385 463.964 9.98865 463.92 10.5852 463.826C10.0989 455.961 12.4489 451.613 13.5133 449.933Z" fill="url(#paint25_linear_624_696)"/>
</g>
<path d="M75.734 282.026C75.734 282.026 78.1984 300.348 58.8939 313.27L79.4391 318.167C79.4391 318.167 86.0122 305.871 81.248 285.506L75.734 282.026Z" fill="url(#paint26_linear_624_696)"/>
<path d="M79.3499 285.507C79.3499 285.507 80.4564 282.773 80.2777 281.543C80.0989 280.313 77.1697 278.671 75.1729 276.976C73.1763 275.281 75.2481 278.681 75.7125 279.455C76.1768 280.229 77.8057 281.389 77.572 284.019L79.3499 285.507Z" fill="url(#paint27_linear_624_696)"/>
<path d="M56.3647 299.46C57.3734 297.472 57.7894 297.484 58.037 296.435C58.6013 294.045 57.1429 291.009 55.9065 290.967C55.1094 290.94 55.0437 292.179 53.3568 294.111C51.2902 296.477 50.0358 296.167 48.8197 298.221C48.5353 298.701 47.2552 300.864 48.0428 302.477C49.0482 304.537 53.0108 304.862 54.6669 303.273C55.4525 302.519 55.1224 301.908 56.3647 299.46Z" fill="url(#paint28_linear_624_696)"/>
<path d="M53.3948 301.605C53.3948 301.605 54.1031 305.381 53.6001 308.452C53.145 311.227 48.0046 314.111 47.0194 314.938C46.0343 315.765 49.6332 316.662 52.9346 316.229C56.2358 315.796 65.2745 312.902 66.6479 311.29C68.0212 309.678 65.0483 310.472 62.5479 310.168C60.0475 309.863 57.6598 305.673 57.5865 303.534C57.5133 301.395 53.3948 301.605 53.3948 301.605Z" fill="url(#paint29_linear_624_696)"/>
<path d="M54.4719 304.423C54.4719 304.423 56.9994 305.533 59.2377 303.742C61.2417 302.139 58.2606 297.216 56.2217 297.153C55.5415 297.133 54.5488 297.62 53.9628 298.333C53.6166 298.754 53.5961 299.035 53.0171 299.712C52.4834 300.337 52.2485 300.393 52.1674 300.696C52.0658 301.075 52.2404 301.709 53.6129 302.799C52.9291 302.673 52.3396 302.853 52.1112 303.252C52.0748 303.315 51.9992 303.514 52.0218 303.719C52.1042 304.462 53.0747 304.806 54.4719 304.423Z" fill="url(#paint30_linear_624_696)"/>
<path d="M110.012 291.277C110.012 291.277 111.542 291.063 111.065 288.14C110.69 285.849 110.973 285.078 111.514 285.484C112.055 285.89 112.132 287.214 112.132 287.214C112.132 287.214 114.104 285.531 114.916 283.326C115.728 281.121 116.251 282.977 116.425 284.08C116.6 285.182 115.266 288.606 114.511 289.245C113.757 289.883 112.655 292.697 112.655 292.697L110.012 291.277Z" fill="url(#paint31_linear_624_696)"/>
<path d="M114.09 292.059C112.349 290.84 110.607 289.621 108.866 288.402C106.75 301.425 101.935 306.537 97.8457 308.774C87.9795 314.169 79.1713 304.559 60.2854 308.485C55.0811 309.567 46.0097 311.582 40.9808 318.997C39.6588 320.946 39.1888 322.422 36.9956 336.403C34.1923 354.275 34.0931 357.394 34.4895 361.242C35.215 368.284 35.6545 372.552 38.9024 376.328C47.5264 386.357 65.8514 381.182 68.1488 380.501C72.3931 379.243 78.9897 377.288 81.6096 371.678C82.8425 369.039 82.7109 366.627 80.8138 356.976C77.0559 337.86 76.5759 336.623 77.6235 334.529C81.159 327.463 92.366 331.504 101.831 324.932C107.366 321.09 113.603 312.718 114.09 292.059Z" fill="url(#paint32_linear_624_696)"/>
<path opacity="0.3" d="M59.5603 377.949C61.4075 374.159 58.9234 370.667 61.647 366.111C65.118 360.305 71.3653 362.275 73.7152 357.985C77.7339 350.649 61.9087 340.421 65.1218 328.741C66.656 323.165 72.0156 319.128 76.4931 317.598C86.434 314.201 92.9381 322.854 102.258 320.146C104.467 319.504 107.002 318.175 109.566 315.417C107.3 320.2 104.486 323.089 101.831 324.932C92.3658 331.504 81.1589 327.463 77.6234 334.529C76.5758 336.622 77.0557 337.86 80.8136 356.976C82.7109 366.626 82.8423 369.039 81.6095 371.678C78.9895 377.287 72.3931 379.243 68.1487 380.501C66.891 380.874 60.83 382.588 54.1876 382.423C57.151 381.219 58.7455 379.621 59.5603 377.949Z" fill="url(#paint33_linear_624_696)"/>
<path d="M140.866 257.314C145.183 259.505 150.607 257.492 152.979 252.817C155.352 248.142 153.775 242.576 149.457 240.385C149.234 240.271 149.005 240.176 148.777 240.084C149.578 237.498 150.182 234.891 150.587 232.283C150.835 232.282 151.083 232.278 151.335 232.255C156.261 231.815 160.169 227.289 160.065 222.144C159.961 217 155.884 213.186 150.958 213.626C150.701 213.65 150.448 213.69 150.197 213.735C149.682 211.186 148.976 208.695 148.087 206.285C148.313 206.153 148.539 206.016 148.759 205.861C152.972 202.908 154.318 197.081 151.766 192.846C149.213 188.611 143.728 187.572 139.514 190.525C139.298 190.676 139.095 190.839 138.894 191.005C137.23 189.166 135.404 187.461 133.429 185.905C133.567 185.678 133.703 185.447 133.826 185.205C136.199 180.53 139.299 175.423 134.948 173.3C124.882 168.388 120.564 172.595 118.191 177.27C118.068 177.512 117.962 177.758 117.861 178.004C115.439 177.329 112.985 176.862 110.517 176.604C110.533 176.344 110.544 176.084 110.539 175.82C110.435 170.676 111.961 167.892 107.017 167.797C96.2357 167.589 92.599 172.269 92.7029 177.413C92.7084 177.682 92.7309 177.945 92.7575 178.206C90.287 178.911 87.8607 179.812 85.4992 180.901C85.3869 180.672 85.2704 180.444 85.137 180.222C82.5841 175.987 77.099 174.948 72.8855 177.901C68.672 180.854 67.3258 186.681 69.8787 190.916C70.0092 191.133 70.1527 191.336 70.2981 191.536C68.4323 193.403 66.6851 195.43 65.0706 197.604C64.8618 197.473 64.6498 197.345 64.4262 197.232C60.1087 195.041 54.6854 197.054 52.3129 201.729C49.9402 206.404 51.517 211.97 55.8346 214.161C56.0584 214.275 56.2867 214.37 56.5157 214.461C55.7142 217.048 55.1098 219.655 54.7048 222.263C54.4571 222.264 54.2089 222.268 53.9569 222.29C49.0312 222.731 45.1231 227.257 45.227 232.402C45.3311 237.546 49.4084 241.359 54.3338 240.919C54.591 240.896 54.844 240.856 55.0953 240.811C55.6102 243.36 56.3156 245.85 57.2053 248.26C56.9788 248.393 56.7534 248.53 56.5333 248.684C52.3199 251.637 50.9738 257.465 53.5265 261.7C56.0793 265.935 64.5286 267.901 68.742 264.948C68.9579 264.797 66.1969 263.706 66.3976 263.54C68.0624 265.38 69.8882 267.085 71.8634 268.641C71.7248 268.869 71.5887 269.099 71.466 269.341C69.0934 274.016 70.6701 279.582 74.9876 281.773C79.3051 283.965 84.7286 281.951 87.1011 277.276C87.224 277.034 87.3299 276.788 87.4317 276.542C89.8537 277.217 92.3075 277.684 94.7752 277.942C94.7599 278.202 94.748 278.462 94.7532 278.726C94.8573 283.87 98.9345 287.684 103.86 287.244C108.785 286.804 112.694 282.277 112.589 277.133C112.584 276.864 112.561 276.601 112.535 276.34C115.005 275.635 117.432 274.734 119.793 273.645C119.905 273.874 120.022 274.102 120.156 274.324C122.708 278.558 128.193 279.598 132.407 276.645C136.62 273.691 137.967 267.864 135.414 263.629C135.283 263.412 135.14 263.21 134.994 263.009C136.86 261.143 138.607 259.116 140.222 256.942C140.43 257.073 140.642 257.201 140.866 257.314ZM87.0486 258.007C71.3728 250.052 65.6479 229.842 74.262 212.869C82.8761 195.895 102.567 188.584 118.243 196.539C133.919 204.495 139.644 224.704 131.03 241.678C122.416 258.652 102.725 265.963 87.0486 258.007Z" fill="#D8DEE8"/>
<path d="M151.335 232.255C156.261 231.815 160.169 227.288 160.065 222.144C159.961 217 155.884 213.186 150.958 213.626C150.701 213.649 150.448 213.69 150.197 213.735C149.682 211.185 148.976 208.695 148.087 206.285C148.313 206.153 148.539 206.016 148.759 205.861C152.972 202.908 158.184 195.774 155.21 191.823C149.566 184.325 143.728 187.572 139.514 190.525C139.298 190.676 139.095 190.84 138.894 191.006C137.23 189.166 135.404 187.461 133.429 185.905C133.567 185.678 133.703 185.447 133.826 185.205C135.117 182.661 135.231 179.856 134.377 177.471C130.308 184.636 126.295 191.83 122.352 199.064C134.859 208.225 138.843 226.281 131.03 241.678C124.409 254.725 111.243 262.053 98.3873 261.137C97.8142 262.624 97.2514 264.12 96.6374 265.593C94.9716 269.59 93.0792 273.505 91.1842 277.415C92.3766 277.64 93.574 277.817 94.7748 277.942C94.7595 278.202 94.7476 278.462 94.7528 278.726C94.8569 283.87 97.9809 288.24 106.907 287.765C111.845 287.503 112.693 282.277 112.589 277.133C112.583 276.864 112.561 276.601 112.534 276.34C115.005 275.635 117.431 274.734 119.793 273.645C119.905 273.874 120.021 274.102 120.155 274.324C122.708 278.559 131.561 280.357 135.775 277.404C139.988 274.45 137.966 267.865 135.413 263.63C135.282 263.413 135.139 263.21 134.994 263.01C136.859 261.143 138.607 259.116 140.221 256.942C140.43 257.073 140.642 257.201 140.865 257.314C145.183 259.506 150.606 257.492 152.979 252.817C155.351 248.142 153.775 242.576 149.457 240.385C149.234 240.271 149.005 240.176 148.776 240.085C149.578 237.498 150.182 234.891 150.587 232.283C150.835 232.282 151.083 232.278 151.335 232.255Z" fill="#D8DEE8"/>
<path d="M145.509 257.841C149.827 260.032 155.25 258.019 157.623 253.344C159.995 248.669 158.418 243.103 154.101 240.912C153.877 240.798 153.649 240.703 153.42 240.611C154.221 238.025 154.826 235.418 155.231 232.81C155.478 232.809 155.726 232.805 155.979 232.782C160.904 232.342 164.812 227.816 164.708 222.671C164.604 217.527 160.527 213.713 155.602 214.153C155.344 214.176 155.092 214.217 154.84 214.262C154.325 211.713 153.62 209.222 152.73 206.812C152.956 206.68 153.182 206.543 153.402 206.388C157.615 203.435 158.962 197.608 156.409 193.373C153.856 189.138 148.371 188.099 144.157 191.052C143.941 191.203 143.739 191.367 143.538 191.532C141.873 189.693 140.047 187.988 138.072 186.432C138.211 186.204 138.347 185.974 138.47 185.732C140.842 181.057 139.265 175.491 134.948 173.3C130.63 171.108 125.207 173.122 122.834 177.797C122.711 178.039 122.606 178.285 122.504 178.532C120.082 177.856 117.628 177.389 115.16 177.131C115.176 176.871 115.188 176.611 115.182 176.347C115.078 171.203 111.001 167.39 106.076 167.829C101.15 168.269 97.2419 172.796 97.346 177.94C97.3515 178.209 97.3739 178.472 97.4007 178.733C94.9302 179.438 92.5039 180.339 90.1423 181.428C90.0301 181.199 89.9135 180.971 89.7802 180.749C87.2275 176.514 81.7421 175.475 77.5287 178.428C73.3153 181.382 71.9692 187.209 74.5219 191.443C74.6527 191.66 74.7959 191.863 74.9414 192.063C73.0756 193.93 71.3283 195.957 69.7138 198.131C69.5048 198 69.2931 197.872 69.0694 197.759C64.7519 195.568 59.3285 197.581 56.956 202.256C54.5834 206.931 56.1602 212.497 60.4777 214.688C60.7014 214.802 60.9296 214.897 61.1586 214.989C60.3571 217.575 59.7527 220.182 59.3477 222.79C59.1003 222.791 58.8518 222.795 58.5996 222.817C53.6744 223.258 49.766 227.784 49.87 232.929C49.974 238.073 54.0513 241.886 58.9767 241.446C59.2339 241.423 59.4869 241.383 59.7383 241.338C60.2533 243.887 60.9587 246.377 61.8484 248.788C61.622 248.92 61.3964 249.057 61.1763 249.212C56.9629 252.165 55.6168 257.992 58.1695 262.227C60.7224 266.462 66.2074 267.501 70.4208 264.548C70.6368 264.397 70.8399 264.233 71.0406 264.067C72.7056 265.907 74.5312 267.612 76.5065 269.168C76.3678 269.395 76.2318 269.626 76.1089 269.868C73.7364 274.543 75.3132 280.109 79.6307 282.3C83.9481 284.491 89.3716 282.478 91.744 277.803C91.8669 277.561 91.9728 277.315 92.0746 277.068C94.4964 277.744 96.9506 278.211 99.4181 278.469C99.4028 278.729 99.3908 278.989 99.396 279.253C99.5002 284.397 103.577 288.211 108.503 287.77C113.428 287.331 117.336 282.804 117.232 277.659C117.227 277.391 117.204 277.128 117.178 276.867C119.648 276.162 122.074 275.261 124.436 274.172C124.548 274.401 124.665 274.629 124.798 274.85C127.351 279.085 132.836 280.125 137.05 277.172C141.263 274.218 142.609 268.391 140.057 264.156C139.926 263.939 139.783 263.736 139.637 263.536C141.503 261.67 143.25 259.643 144.865 257.469C145.074 257.6 145.285 257.728 145.509 257.841ZM91.6922 258.534C76.0161 250.579 70.2912 230.37 78.9055 213.396C87.5199 196.422 107.211 189.111 122.886 197.066C138.562 205.022 144.287 225.231 135.673 242.205C127.059 259.179 107.368 266.489 91.6922 258.534Z" fill="white"/>
<path d="M203.522 399.483H170.277C148.598 399.483 130.961 381.846 130.961 360.167V350.307C130.961 332.996 122.321 316.763 107.849 306.884C90.6535 295.146 76.3762 279.535 66.5605 261.739C56.4177 243.351 51.0569 222.577 51.0569 201.666C51.0569 167.104 65.19 134.613 90.8534 110.178C116.51 85.7482 150.619 72.2944 186.899 72.2944C223.179 72.2944 257.289 85.7482 282.945 110.178C308.608 134.614 322.742 167.104 322.742 201.666C322.742 222.577 317.381 243.351 307.238 261.739C297.422 279.536 283.145 295.146 265.949 306.884C251.478 316.762 242.838 332.995 242.838 350.307V360.167C242.838 381.846 225.201 399.483 203.522 399.483ZM186.899 73.3443C150.89 73.3443 117.038 86.6954 91.5775 110.938C66.1249 135.174 52.1071 167.395 52.1071 201.666C52.1071 222.4 57.4228 242.998 67.48 261.232C77.2167 278.885 91.3807 294.371 108.44 306.017C123.2 316.091 132.011 332.648 132.011 350.307V360.167C132.011 381.267 149.177 398.433 170.277 398.433H203.522C224.621 398.433 241.788 381.267 241.788 360.167V350.307C241.788 332.648 250.599 316.091 265.358 306.017C282.417 294.371 296.582 278.885 306.319 261.232C316.376 242.998 321.692 222.401 321.692 201.666C321.692 167.395 307.674 135.174 282.221 110.938C256.761 86.6954 222.908 73.3443 186.899 73.3443Z" fill="white"/>
<path d="M248.631 329.321C251.485 329.321 253.799 327.007 253.799 324.153C253.799 321.299 251.485 318.985 248.631 318.985C245.777 318.985 243.463 321.299 243.463 324.153C243.463 327.007 245.777 329.321 248.631 329.321Z" fill="white"/>
<path d="M208.974 358.031C211.149 358.031 212.911 356.268 212.911 354.094C212.911 351.919 211.149 350.156 208.974 350.156C206.799 350.156 205.036 351.919 205.036 354.094C205.036 356.268 206.799 358.031 208.974 358.031Z" fill="white"/>
<path d="M208.476 355.531L207.838 354.697L248.43 323.646L248.578 323.631L307.593 317.645L307.699 318.69L248.832 324.66L208.476 355.531Z" fill="white"/>
<path d="M309.166 322.624C311.175 321.792 312.129 319.489 311.297 317.48C310.465 315.47 308.161 314.516 306.152 315.349C304.143 316.181 303.189 318.484 304.021 320.493C304.853 322.502 307.157 323.457 309.166 322.624Z" fill="white"/>
<path d="M300.804 304.406C300.804 304.406 291.175 309.299 291.018 310.08C290.861 310.861 297.21 309.818 299.802 309.931C302.395 310.043 304.527 309.187 304.292 307.959C304.058 306.731 303.15 303.644 303.15 303.644L300.804 304.406Z" fill="url(#paint34_linear_624_696)"/>
<path d="M300.452 300.435L301.038 305.282C301.038 305.282 302.562 305.889 303.586 305.172L304.023 299.855L300.452 300.435Z" fill="url(#paint35_linear_624_696)"/>
<path d="M345.799 300.551L346.919 302.562C347.232 303.124 347.325 303.8 347.175 304.441C346.783 306.113 346.001 309.371 345.66 310.221C345.196 311.378 338.964 312.065 338.964 312.065C338.964 312.065 338.409 311.191 339.702 310.135C340.996 309.079 341.828 308.913 342.284 307.355C342.741 305.796 343.046 301.389 343.046 301.389L345.799 300.551Z" fill="url(#paint36_linear_624_696)"/>
<path d="M341.137 295.443C341.546 295.807 343.547 302.599 343.547 302.599C343.547 302.599 344.195 303.525 345.426 302.158C346.656 300.791 345.982 301.545 345.982 301.545L345.751 294.865L341.137 295.443Z" fill="url(#paint37_linear_624_696)"/>
<path d="M295.154 203.051C294.646 217.51 294.625 233.219 295.37 250.002C296.207 268.9 297.891 286.366 300.013 302.2C300.801 302.228 301.63 302.232 302.496 302.205C303.081 302.187 303.647 302.155 304.195 302.113C305.296 298.83 306.597 294.512 307.763 289.355C308.988 283.933 309.727 279.069 310.254 274.417C312.108 258.04 309.935 256.611 311.44 244.474C312.773 233.725 314.668 233.305 316.893 218.044C319.307 201.485 317.51 199.001 316.636 198.103C312.915 194.283 304.176 196.884 295.154 203.051Z" fill="url(#paint38_linear_624_696)"/>
<path opacity="0.3" d="M316.636 198.104C313.087 194.46 304.972 196.666 296.401 202.228C306.261 214.139 307.336 221.865 306.154 226.879C304.818 232.545 300.757 234.177 300.772 240.373C300.791 247.987 306.937 250.004 306.807 258.061C306.72 263.389 304.02 263.333 303.382 269.914C302.627 277.699 306.155 280.382 305.013 286.143C304.521 288.621 303.118 291.859 299.121 295.195C299.409 297.561 299.705 299.903 300.013 302.2C300.801 302.228 301.63 302.233 302.496 302.205C303.081 302.188 303.647 302.156 304.195 302.113C305.296 298.83 306.597 294.513 307.763 289.356C308.988 283.933 309.727 279.069 310.254 274.418C312.108 258.041 309.935 256.612 311.44 244.475C312.772 233.726 314.668 233.306 316.893 218.045C319.307 201.485 317.51 199.001 316.636 198.104Z" fill="url(#paint39_linear_624_696)"/>
<path d="M301.262 202.808C309.752 216.697 318.909 233.983 327.098 254.673C333.287 270.309 337.775 284.99 341.071 298.074C341.517 298.305 342.569 298.765 343.913 298.566C345.746 298.295 346.845 296.987 347.132 296.622C348.474 287.242 348.326 279.299 347.871 273.566C347.579 269.895 347.063 263.783 344.971 256.237C342.627 247.784 341.016 247.309 337.958 238.366C334.784 229.084 335.553 226.768 332.513 215.152C331.265 210.38 329.175 203.278 325.726 194.784C317.571 197.459 309.416 200.133 301.262 202.808Z" fill="url(#paint40_linear_624_696)"/>
<path d="M291.056 141.408C284.289 134.036 280.654 133.76 279.514 128.398C278.388 123.094 280.298 115.621 285.16 112.644C285.517 112.425 289.196 110.252 293.04 111.765C298.853 114.054 297.361 121.754 303.211 126.947C308.168 131.348 314.921 130.863 319.492 130.535C330.497 129.745 333.631 123.743 338.632 126.102C344.897 129.058 342.778 139.804 349.178 142.131C353.455 143.686 355.674 139.349 361.767 139.552C368.926 139.79 375.242 146.092 378.048 152.512C383.178 164.247 377.443 178.348 370.398 186.052C364.61 192.381 354.033 198.662 347.395 195.038C342.152 192.176 342.128 184.64 337.124 184.113C333.565 183.739 332.491 187.434 327.947 188.318C320.485 189.77 313.795 181.671 311.97 179.462C306.769 173.165 308.548 170.439 302.692 158.981C300.379 154.455 297.048 147.936 291.056 141.408Z" fill="url(#paint41_linear_624_696)"/>
<path d="M231.86 118.645C231.86 118.645 230.276 116.428 229.27 114.781C228.265 113.134 223.573 108.506 223.573 108.506C223.573 108.506 223.215 109.24 224.225 110.415C225.235 111.59 227.361 113.604 226.872 114.456C226.384 115.308 225.008 116.059 226.001 117.668C226.994 119.277 228.72 118.178 229.603 119.469C230.486 120.759 231.39 122.167 231.39 122.167L231.86 118.645Z" fill="url(#paint42_linear_624_696)"/>
<path d="M232.478 117.199C231.41 119.006 230.341 120.813 229.272 122.621C230.385 126.254 232.302 131.299 235.662 136.622C237.144 138.97 241.738 145.859 249.516 151.398C260.105 158.938 279.396 165.973 285.043 157.949C290.082 150.789 281.949 134.919 280.451 132.069C277.42 133.659 272.438 135.766 266.035 136.265C263.937 136.428 258.475 136.8 252.322 134.687C240.934 130.776 234.611 120.904 232.478 117.199Z" fill="url(#paint43_linear_624_696)"/>
<path d="M268.097 141.424C268.629 144.101 276.958 142.665 278.676 147.526C279.599 150.134 277.641 151.79 277.558 156.22C277.466 161.178 279.83 163.994 281.643 167.895C284.298 173.608 284.308 179.209 284.328 190.409C284.356 206.353 280.83 209.559 283.84 214.698C287.757 221.386 297.163 221.813 299.705 221.929C308.4 222.324 309.431 217.705 318.865 217.154C329.64 216.524 331.174 222.38 338.88 219.882C345.919 217.601 348.287 211.531 353.769 212.788C357.194 213.573 358.103 216.364 361.335 216.062C364.583 215.758 367.94 212.54 368.169 209.239C368.454 205.137 363.969 199.969 356.942 199.961C354.149 201.057 349.52 202.328 344.371 200.917C335.936 198.604 331.549 190.584 326.676 181.677C323.304 175.515 317.108 164.189 317.034 149.338C317.004 143.214 318.039 141.423 316.546 138.149C311.699 127.52 292.892 129.106 291.299 129.26C278.485 130.495 267.453 138.191 268.097 141.424Z" fill="url(#paint44_linear_624_696)"/>
<path d="M263.895 154.802L287.518 155.832C287.777 155.844 288.004 156.03 288.092 156.303L299.22 190.818C299.38 191.314 298.879 192.552 298.411 192.496L275.056 188.944C274.819 188.915 274.616 188.74 274.53 188.491L262.952 156.274C262.788 155.796 263.438 154.782 263.895 154.802Z" fill="url(#paint45_linear_624_696)"/>
<path d="M263.529 155.647L287.151 156.677C287.41 156.689 287.638 156.875 287.726 157.148L298.854 191.664C299.013 192.159 298.654 192.67 298.186 192.614L274.69 189.789C274.452 189.76 274.249 189.585 274.163 189.336L262.909 156.614C262.745 156.136 263.071 155.627 263.529 155.647Z" fill="url(#paint46_linear_624_696)"/>
<path d="M269.988 156.932L269.078 154.18C268.995 153.932 269.16 153.668 269.397 153.668H277.995C278.144 153.668 278.275 153.775 278.32 153.933L279.184 156.977C279.255 157.227 279.084 157.48 278.85 157.472L270.297 157.18C270.158 157.175 270.036 157.077 269.988 156.932Z" fill="url(#paint47_linear_624_696)"/>
<path opacity="0.3" d="M284.529 184.258C282.995 178.695 285.52 175.072 282.943 170.749C279.297 164.635 271.465 167.223 269.03 162.289C268.374 160.958 268.06 158.976 268.945 155.882L263.529 155.647C263.071 155.627 262.745 156.136 262.909 156.614L274.163 189.336C274.249 189.585 274.452 189.759 274.69 189.788L288.97 191.506C286.426 189.026 285.153 186.519 284.529 184.258Z" fill="url(#paint48_linear_624_696)"/>
<path d="M301.78 180.125C301.78 180.125 298.21 179.331 296.833 178.362C295.457 177.393 293.997 175.836 291.967 175.921C289.937 176.006 287.895 177.16 288.832 177.425C289.77 177.689 291.522 179.769 292.86 180.588C294.198 181.407 297.255 181.48 297.825 181.436C298.394 181.391 300.642 182.903 300.642 182.903L301.78 180.125Z" fill="url(#paint49_linear_624_696)"/>
<path opacity="0.3" d="M356.942 199.961C354.149 201.057 349.52 202.328 344.371 200.917C335.936 198.605 331.549 190.585 326.676 181.677C323.304 175.516 317.108 164.19 317.035 149.339C317.004 143.214 318.039 141.423 316.546 138.15C316.309 137.629 316.029 137.145 315.728 136.682C312.046 139.465 310.618 142.252 310.2 144.699C309.185 150.656 313.974 155.526 311.482 160.664C309.095 165.585 303.193 164.223 301.963 168.441C300.635 172.992 307.166 175.737 307.454 182.768C307.8 191.207 298.725 195.34 300.315 200.985C301.694 205.877 309.289 205.524 309.285 208.148C309.28 211.268 309.52 204.826 300.315 200.985C297.526 199.821 284.397 209.511 282.801 207.81C282.457 210.56 282.519 212.443 283.84 214.698C287.757 221.387 297.163 221.814 299.705 221.93C308.4 222.324 309.431 217.706 318.865 217.154C329.64 216.524 331.174 222.381 338.88 219.883C345.919 217.601 348.288 211.531 353.769 212.788C357.194 213.573 358.103 216.365 361.335 216.063C364.583 215.759 367.94 212.54 368.169 209.24C368.454 205.138 363.969 199.969 356.942 199.961Z" fill="url(#paint50_linear_624_696)"/>
<path d="M301.688 178.47C300.59 180.654 299.491 182.837 298.393 185.02C300.086 185.947 318.191 195.525 331.313 186.043C332.936 184.871 337.248 181.756 339.572 175.655C342.134 168.93 340.697 162.678 339.765 158.617C337.457 148.565 330.931 138.02 321.672 133.783C318.135 132.165 313.936 131.346 309.987 130.577C306.637 129.923 301.373 129.123 301.261 129.69C301.206 129.966 302.43 130.32 303.279 130.857C308.496 134.157 301.872 147.784 308.004 154.319C313.878 160.579 321.501 159.545 322.729 165.219C323.301 167.856 322.118 170.229 321.592 171.286C318.653 177.184 310.742 179.824 301.688 178.47Z" fill="url(#paint51_linear_624_696)"/>
<path d="M289.4 119.459C289.4 119.459 291.526 126.37 294.174 127.446C296.822 128.522 301.008 129.757 301.534 130.236C302.059 130.714 287.466 136.012 279.283 133.574C281.614 132.433 282.238 132.068 282.238 132.068C282.861 131.704 284.022 131.025 285.112 129.946C285.853 129.212 287.014 127.846 287.888 125.575L287.123 121.652L289.4 119.459Z" fill="url(#paint52_linear_624_696)"/>
<path d="M290.355 122.476C290.355 122.476 289.122 125.539 286.2 125.069C283.583 124.648 283.716 117.288 285.494 116.035C286.087 115.617 287.29 115.458 288.183 115.824C288.811 116.08 290.68 117.792 290.263 120.299C290.84 119.956 291.414 120.01 291.613 120.318C291.866 120.709 291.456 121.418 291.364 121.579C291.042 122.136 290.574 122.381 290.355 122.476Z" fill="url(#paint53_linear_624_696)"/>
<path d="M303.358 428.582L337.945 402.02L332.109 394.798L297.583 421.437L303.358 428.582Z" fill="url(#paint54_linear_624_696)"/>
<path d="M313.74 444.844L351.914 415.812L341.339 402.726L303.288 431.91L313.74 444.844Z" fill="url(#paint55_linear_624_696)"/>
<path d="M327.601 478.3H394.981L380.35 441.767L353.28 418.039L315.229 447.222L327.601 478.3Z" fill="url(#paint56_linear_624_696)"/>
<path d="M247.996 333.611L246.208 331.398L247.969 329.967L297.228 390.921L300.416 390.445L301.612 387.497L252.286 326.461L254.054 325.025L255.846 327.244L332.969 366.261L333.509 390.552L315.391 404.548L310.989 407.949L293.119 421.754L269.678 415.63L247.996 333.611Z" fill="url(#paint57_linear_624_696)"/>
<defs>
<linearGradient id="paint0_linear_624_696" x1="371.852" y1="169.6" x2="153.012" y2="444.322" gradientUnits="userSpaceOnUse">
<stop stop-color="#FF9085"/>
<stop offset="1" stop-color="#FB6FBB"/>
</linearGradient>
<linearGradient id="paint1_linear_624_696" x1="374.845" y1="274.746" x2="197.58" y2="419.582" gradientUnits="userSpaceOnUse">
<stop offset="0.0036" stop-color="#E38DDD"/>
<stop offset="1" stop-color="#9571F6"/>
</linearGradient>
<linearGradient id="paint2_linear_624_696" x1="354.114" y1="311.477" x2="159.715" y2="590.925" gradientUnits="userSpaceOnUse">
<stop stop-color="#FF9085"/>
<stop offset="1" stop-color="#FB6FBB"/>
</linearGradient>
<linearGradient id="paint3_linear_624_696" x1="184.081" y1="478.954" x2="186.484" y2="459.728" gradientUnits="userSpaceOnUse">
<stop offset="0.0036" stop-color="#26264F"/>
<stop offset="1" stop-color="#444B8C"/>
</linearGradient>
<linearGradient id="paint4_linear_624_696" x1="174.197" y1="461.431" x2="198.229" y2="418.172" gradientUnits="userSpaceOnUse">
<stop offset="0.0036" stop-color="#26264F"/>
<stop offset="1" stop-color="#444B8C"/>
</linearGradient>
<linearGradient id="paint5_linear_624_696" x1="147.018" y1="440.931" x2="226.781" y2="440.931" gradientUnits="userSpaceOnUse">
<stop offset="0.0036" stop-color="#26264F"/>
<stop offset="1" stop-color="#444B8C"/>
</linearGradient>
<linearGradient id="paint6_linear_624_696" x1="176.484" y1="449.61" x2="200.216" y2="403.948" gradientUnits="userSpaceOnUse">
<stop offset="0.0036" stop-color="#26264F"/>
<stop offset="1" stop-color="#444B8C"/>
</linearGradient>
<linearGradient id="paint7_linear_624_696" x1="143.444" y1="427.488" x2="230.315" y2="427.488" gradientUnits="userSpaceOnUse">
<stop offset="0.0036" stop-color="#26264F"/>
<stop offset="1" stop-color="#444B8C"/>
</linearGradient>
<linearGradient id="paint8_linear_624_696" x1="142.157" y1="411.791" x2="231.641" y2="411.791" gradientUnits="userSpaceOnUse">
<stop offset="0.0036" stop-color="#26264F"/>
<stop offset="1" stop-color="#444B8C"/>
</linearGradient>
<linearGradient id="paint9_linear_624_696" x1="184.677" y1="405.042" x2="193.489" y2="363.786" gradientUnits="userSpaceOnUse">
<stop offset="0.0036" stop-color="#26264F"/>
<stop offset="1" stop-color="#444B8C"/>
</linearGradient>
<linearGradient id="paint10_linear_624_696" x1="167.754" y1="174.839" x2="342.582" y2="452.401" gradientUnits="userSpaceOnUse">
<stop stop-color="#FCB148"/>
<stop offset="0.0521" stop-color="#FDBA46"/>
<stop offset="0.1424" stop-color="#FFC244"/>
<stop offset="0.3183" stop-color="#FFC444"/>
<stop offset="0.4849" stop-color="#FDB946"/>
<stop offset="0.7754" stop-color="#F99C4D"/>
<stop offset="0.8658" stop-color="#F8924F"/>
<stop offset="1" stop-color="#F8924F"/>
</linearGradient>
<linearGradient id="paint11_linear_624_696" x1="135.816" y1="388.558" x2="171.464" y2="284.417" gradientUnits="userSpaceOnUse">
<stop offset="0.494" stop-color="#EBEFF2"/>
<stop offset="1" stop-color="white"/>
</linearGradient>
<linearGradient id="paint12_linear_624_696" x1="169.896" y1="400.225" x2="205.545" y2="296.083" gradientUnits="userSpaceOnUse">
<stop offset="0.494" stop-color="#EBEFF2"/>
<stop offset="1" stop-color="white"/>
</linearGradient>
<linearGradient id="paint13_linear_624_696" x1="123.402" y1="384.309" x2="159.05" y2="280.168" gradientUnits="userSpaceOnUse">
<stop offset="0.494" stop-color="#EBEFF2"/>
<stop offset="1" stop-color="white"/>
</linearGradient>
<linearGradient id="paint14_linear_624_696" x1="173.889" y1="112.275" x2="139.042" y2="399.464" gradientUnits="userSpaceOnUse">
<stop stop-color="#FCB148"/>
<stop offset="0.0521" stop-color="#FDBA46"/>
<stop offset="0.1424" stop-color="#FFC244"/>
<stop offset="0.3183" stop-color="#FFC444"/>
<stop offset="0.4849" stop-color="#FDB946"/>
<stop offset="0.7754" stop-color="#F99C4D"/>
<stop offset="0.8658" stop-color="#F8924F"/>
<stop offset="1" stop-color="#F8924F"/>
</linearGradient>
<linearGradient id="paint15_linear_624_696" x1="144.463" y1="292.841" x2="244.491" y2="77.9284" gradientUnits="userSpaceOnUse">
<stop offset="0.0054" stop-color="#D8DEE8"/>
<stop offset="1" stop-color="#F4F7FA"/>
</linearGradient>
<linearGradient id="paint16_linear_624_696" x1="371.852" y1="169.6" x2="153.012" y2="444.322" gradientUnits="userSpaceOnUse">
<stop stop-color="#FF9085"/>
<stop offset="1" stop-color="#FB6FBB"/>
</linearGradient>
<linearGradient id="paint17_linear_624_696" x1="115.212" y1="196.475" x2="285.247" y2="196.475" gradientUnits="userSpaceOnUse">
<stop stop-color="#FCB148"/>
<stop offset="0.0521" stop-color="#FDBA46"/>
<stop offset="0.1424" stop-color="#FFC244"/>
<stop offset="0.3183" stop-color="#FFC444"/>
<stop offset="0.4849" stop-color="#FDB946"/>
<stop offset="0.7754" stop-color="#F99C4D"/>
<stop offset="0.8658" stop-color="#F8924F"/>
<stop offset="1" stop-color="#F8924F"/>
</linearGradient>
<linearGradient id="paint18_linear_624_696" x1="71.1208" y1="442.833" x2="76.9083" y2="441.847" gradientUnits="userSpaceOnUse">
<stop offset="0.0036" stop-color="#F36F56"/>
<stop offset="1" stop-color="#FFC444"/>
</linearGradient>
<linearGradient id="paint19_linear_624_696" x1="78.2417" y1="417.081" x2="72.1396" y2="472.912" gradientUnits="userSpaceOnUse">
<stop stop-color="#444B8C"/>
<stop offset="0.9964" stop-color="#26264F"/>
</linearGradient>
<linearGradient id="paint20_linear_624_696" x1="89.6051" y1="392.158" x2="39.83" y2="433.061" gradientUnits="userSpaceOnUse">
<stop stop-color="#AB316D"/>
<stop offset="1" stop-color="#792D3D"/>
</linearGradient>
<linearGradient id="paint21_linear_624_696" x1="30.5429" y1="410.719" x2="12.5102" y2="457.033" gradientUnits="userSpaceOnUse">
<stop stop-color="#444B8C"/>
<stop offset="0.9964" stop-color="#26264F"/>
</linearGradient>
<linearGradient id="paint22_linear_624_696" x1="4.49074" y1="463.458" x2="11.3873" y2="464.106" gradientUnits="userSpaceOnUse">
<stop offset="0.0036" stop-color="#F36F56"/>
<stop offset="1" stop-color="#FFC444"/>
</linearGradient>
<linearGradient id="paint23_linear_624_696" x1="112.466" y1="427.104" x2="50.9606" y2="406.352" gradientUnits="userSpaceOnUse">
<stop stop-color="#AB316D"/>
<stop offset="1" stop-color="#792D3D"/>
</linearGradient>
<linearGradient id="paint24_linear_624_696" x1="48.6743" y1="392.03" x2="13.1849" y2="463.22" gradientUnits="userSpaceOnUse">
<stop stop-color="#AB316D"/>
<stop offset="1" stop-color="#792D3D"/>
</linearGradient>
<linearGradient id="paint25_linear_624_696" x1="44.2314" y1="391.734" x2="9.47896" y2="461.445" gradientUnits="userSpaceOnUse">
<stop stop-color="#AB316D"/>
<stop offset="1" stop-color="#792D3D"/>
</linearGradient>
<linearGradient id="paint26_linear_624_696" x1="70.6817" y1="318.019" x2="72.0037" y2="260.679" gradientUnits="userSpaceOnUse">
<stop stop-color="#FF9085"/>
<stop offset="1" stop-color="#FB6FBB"/>
</linearGradient>
<linearGradient id="paint27_linear_624_696" x1="77.2648" y1="279.93" x2="76.4162" y2="292.309" gradientUnits="userSpaceOnUse">
<stop offset="0.0036" stop-color="#F36F56"/>
<stop offset="1" stop-color="#FFC444"/>
</linearGradient>
<linearGradient id="paint28_linear_624_696" x1="52.8787" y1="301.661" x2="53.3058" y2="287.046" gradientUnits="userSpaceOnUse">
<stop stop-color="#444B8C"/>
<stop offset="0.9964" stop-color="#26264F"/>
</linearGradient>
<linearGradient id="paint29_linear_624_696" x1="55.2649" y1="288.112" x2="59.2773" y2="348.117" gradientUnits="userSpaceOnUse">
<stop offset="0.0036" stop-color="#F36F56"/>
<stop offset="1" stop-color="#FFC444"/>
</linearGradient>
<linearGradient id="paint30_linear_624_696" x1="44.8482" y1="294.808" x2="59.0307" y2="303.506" gradientUnits="userSpaceOnUse">
<stop offset="0.0036" stop-color="#F36F56"/>
<stop offset="1" stop-color="#FFC444"/>
</linearGradient>
<linearGradient id="paint31_linear_624_696" x1="111.78" y1="291.469" x2="109.383" y2="299.129" gradientUnits="userSpaceOnUse">
<stop offset="0.0036" stop-color="#F36F56"/>
<stop offset="1" stop-color="#FFC444"/>
</linearGradient>
<linearGradient id="paint32_linear_624_696" x1="25.3164" y1="398.042" x2="98.6351" y2="290.906" gradientUnits="userSpaceOnUse">
<stop stop-color="#FF9085"/>
<stop offset="1" stop-color="#FB6FBB"/>
</linearGradient>
<linearGradient id="paint33_linear_624_696" x1="88.1886" y1="316.01" x2="73.3492" y2="393.382" gradientUnits="userSpaceOnUse">
<stop stop-color="#FF9085"/>
<stop offset="1" stop-color="#FB6FBB"/>
</linearGradient>
<linearGradient id="paint34_linear_624_696" x1="295.951" y1="287.326" x2="298.634" y2="321.473" gradientUnits="userSpaceOnUse">
<stop offset="0.0036" stop-color="#26264F"/>
<stop offset="1" stop-color="#444B8C"/>
</linearGradient>
<linearGradient id="paint35_linear_624_696" x1="302.323" y1="306.381" x2="301.837" y2="271.11" gradientUnits="userSpaceOnUse">
<stop stop-color="#893976"/>
<stop offset="1" stop-color="#311944"/>
</linearGradient>
<linearGradient id="paint36_linear_624_696" x1="341.133" y1="283.333" x2="343.823" y2="317.569" gradientUnits="userSpaceOnUse">
<stop offset="0.0036" stop-color="#26264F"/>
<stop offset="1" stop-color="#444B8C"/>
</linearGradient>
<linearGradient id="paint37_linear_624_696" x1="343.753" y1="305.742" x2="343.266" y2="270.476" gradientUnits="userSpaceOnUse">
<stop stop-color="#893976"/>
<stop offset="1" stop-color="#311944"/>
</linearGradient>
<linearGradient id="paint38_linear_624_696" x1="294.789" y1="249.269" x2="318.103" y2="249.269" gradientUnits="userSpaceOnUse">
<stop stop-color="#AB316D"/>
<stop offset="1" stop-color="#792D3D"/>
</linearGradient>
<linearGradient id="paint39_linear_624_696" x1="296.401" y1="249.271" x2="318.103" y2="249.271" gradientUnits="userSpaceOnUse">
<stop stop-color="#AB316D"/>
<stop offset="1" stop-color="#792D3D"/>
</linearGradient>
<linearGradient id="paint40_linear_624_696" x1="301.262" y1="246.7" x2="348.194" y2="246.7" gradientUnits="userSpaceOnUse">
<stop stop-color="#AB316D"/>
<stop offset="1" stop-color="#792D3D"/>
</linearGradient>
<linearGradient id="paint41_linear_624_696" x1="325.432" y1="135.948" x2="355.209" y2="181.403" gradientUnits="userSpaceOnUse">
<stop offset="0.0036" stop-color="#26264F"/>
<stop offset="1" stop-color="#444B8C"/>
</linearGradient>
<linearGradient id="paint42_linear_624_696" x1="223.511" y1="115.337" x2="231.86" y2="115.337" gradientUnits="userSpaceOnUse">
<stop stop-color="#893976"/>
<stop offset="1" stop-color="#311944"/>
</linearGradient>
<linearGradient id="paint43_linear_624_696" x1="262.982" y1="153.575" x2="300.175" y2="286.849" gradientUnits="userSpaceOnUse">
<stop stop-color="#AA80F9"/>
<stop offset="0.9964" stop-color="#6165D7"/>
</linearGradient>
<linearGradient id="paint44_linear_624_696" x1="306.341" y1="141.474" x2="343.534" y2="274.749" gradientUnits="userSpaceOnUse">
<stop stop-color="#AA80F9"/>
<stop offset="0.9964" stop-color="#6165D7"/>
</linearGradient>
<linearGradient id="paint45_linear_624_696" x1="284.707" y1="167.678" x2="270.098" y2="191.894" gradientUnits="userSpaceOnUse">
<stop offset="0.0036" stop-color="#6165D7"/>
<stop offset="1" stop-color="#AA80F9"/>
</linearGradient>
<linearGradient id="paint46_linear_624_696" x1="294.64" y1="166.807" x2="258.446" y2="186.072" gradientUnits="userSpaceOnUse">
<stop stop-color="#FF9085"/>
<stop offset="1" stop-color="#FB6FBB"/>
</linearGradient>
<linearGradient id="paint47_linear_624_696" x1="278.186" y1="142.291" x2="273.891" y2="156.349" gradientUnits="userSpaceOnUse">
<stop offset="0.0036" stop-color="#26264F"/>
<stop offset="1" stop-color="#444B8C"/>
</linearGradient>
<linearGradient id="paint48_linear_624_696" x1="293.241" y1="164.487" x2="257.23" y2="183.654" gradientUnits="userSpaceOnUse">
<stop stop-color="#FF9085"/>
<stop offset="1" stop-color="#FB6FBB"/>
</linearGradient>
<linearGradient id="paint49_linear_624_696" x1="288.598" y1="179.41" x2="301.78" y2="179.41" gradientUnits="userSpaceOnUse">
<stop stop-color="#893976"/>
<stop offset="1" stop-color="#311944"/>
</linearGradient>
<linearGradient id="paint50_linear_624_696" x1="282.624" y1="179.318" x2="368.182" y2="179.318" gradientUnits="userSpaceOnUse">
<stop stop-color="#AA80F9"/>
<stop offset="0.9964" stop-color="#6165D7"/>
</linearGradient>
<linearGradient id="paint51_linear_624_696" x1="310.323" y1="140.363" x2="347.516" y2="273.638" gradientUnits="userSpaceOnUse">
<stop stop-color="#AA80F9"/>
<stop offset="0.9964" stop-color="#6165D7"/>
</linearGradient>
<linearGradient id="paint52_linear_624_696" x1="289.937" y1="133.066" x2="301.417" y2="105.636" gradientUnits="userSpaceOnUse">
<stop stop-color="#893976"/>
<stop offset="1" stop-color="#311944"/>
</linearGradient>
<linearGradient id="paint53_linear_624_696" x1="285.596" y1="121.698" x2="311.088" y2="98.0073" gradientUnits="userSpaceOnUse">
<stop stop-color="#893976"/>
<stop offset="1" stop-color="#311944"/>
</linearGradient>
<linearGradient id="paint54_linear_624_696" x1="299.307" y1="343.972" x2="412.696" y2="760.211" gradientUnits="userSpaceOnUse">
<stop stop-color="#444B8C"/>
<stop offset="0.9964" stop-color="#26264F"/>
</linearGradient>
<linearGradient id="paint55_linear_624_696" x1="305.387" y1="342.315" x2="418.776" y2="758.553" gradientUnits="userSpaceOnUse">
<stop stop-color="#444B8C"/>
<stop offset="0.9964" stop-color="#26264F"/>
</linearGradient>
<linearGradient id="paint56_linear_624_696" x1="317.449" y1="324.53" x2="449.359" y2="808.758" gradientUnits="userSpaceOnUse">
<stop stop-color="#444B8C"/>
<stop offset="0.9964" stop-color="#26264F"/>
</linearGradient>
<linearGradient id="paint57_linear_624_696" x1="289.028" y1="346.772" x2="402.417" y2="763.01" gradientUnits="userSpaceOnUse">
<stop stop-color="#444B8C"/>
<stop offset="0.9964" stop-color="#26264F"/>
</linearGradient>
</defs>
</svg>
