<svg width="436" height="442" viewBox="0 0 436 442" fill="none" xmlns="http://www.w3.org/2000/svg">
<path d="M139.655 28.9949C100.753 11.0661 37.895 16.8458 7.62727 62.7095C-22.0485 107.676 45.8588 158.04 25.5388 260.686C14.6104 315.889 -5.37913 335.104 6.82136 369.091C19.4077 404.152 56.7408 428.441 90.2698 436.941C159.435 454.476 189.567 399.031 267.305 418.224C294.055 424.828 303.163 434.523 331.256 434.601C337.985 434.62 390.416 434.813 417.825 404.186C460.347 356.67 390.049 293.751 403.395 147.937C405.625 123.567 410.246 96.2906 395.208 67.8537C374.368 28.4475 330.482 15.0134 313.569 9.46336C272.43 -4.03675 209.774 -5.97033 193.004 22.9797C187.583 32.338 163.311 39.8973 139.655 28.9949Z" fill="#F4F7FA"/>
<path d="M12.2015 114.256L11.8325 125.093C11.7243 128.272 14.2745 130.732 17.5267 130.587L23.4366 130.324C24.001 135.475 25.1326 140.422 26.776 145.106L21.7841 148.101C18.9168 149.82 17.833 153.382 19.3641 156.056L24.5785 165.16C26.1068 167.829 33.4866 169.415 36.3458 167.691L37.247 164.022C40.4074 167.971 44.0259 171.532 48.0297 174.64L45.2979 179.158C43.5905 181.982 44.4292 185.437 47.1699 186.876L56.4981 191.77C59.2303 193.203 68.1008 193.426 69.8 190.607L67.1376 184.919C71.9811 186.572 77.0972 187.697 82.4189 188.237L82.2555 193.039C82.1482 196.189 84.6522 198.604 87.8461 198.433L98.7144 197.851C101.897 197.681 104.562 194.996 104.669 191.855L104.832 187.068C110.172 185.974 115.333 184.32 120.247 182.174L122.543 186.229C124.032 188.861 133.179 190.214 135.969 188.505L139.788 182.078C142.569 180.373 143.621 176.863 142.139 174.236L139.765 170.028C143.895 166.552 147.67 162.673 151.017 158.461L155.427 160.822C158.091 162.248 165.982 162.978 167.641 160.2L168.902 148.913C170.558 146.14 169.747 142.734 167.091 141.303L162.457 138.806C164.36 134.04 165.784 129.064 166.673 123.941L172.364 123.687C175.488 123.548 178.105 120.912 178.211 117.798L178.573 107.187C178.679 104.074 176.234 101.657 173.11 101.787L167.084 102.039C166.399 97.1114 165.189 92.3809 163.508 87.9005L169.023 84.5761C171.785 82.9104 172.83 79.4242 171.359 76.7859L172.408 66.2417C170.934 63.5989 161.425 64.3462 158.656 66.0071L152.852 69.488C149.838 65.8436 146.424 62.54 142.669 59.6319L146.244 53.7026C147.909 50.9401 147.094 47.5106 144.421 46.0416L140.445 40.2889C137.764 38.8155 129.082 40.5998 127.408 43.3677L123.735 49.4434C119.255 47.9072 114.537 46.8155 109.629 46.2269L109.866 39.2712C109.973 36.1297 107.483 33.668 104.303 33.7722L93.4421 34.1283C90.2504 34.2329 87.5743 36.8713 87.4669 40.0217L87.2293 46.9972C82.2356 47.9294 77.3871 49.3577 72.7374 51.2211L74.8954 43.8622C73.3833 41.1819 64.3851 41.8477 61.5469 43.5215L51.8575 49.2367C49.0107 50.9156 47.9339 54.4548 49.4538 57.1387L52.7112 62.8918C48.6553 66.1209 44.9143 69.7323 41.554 73.6664L41.7993 69.98C39.0492 68.4986 29.4332 70.1605 27.7182 72.9692L21.8674 82.551C20.1495 85.3647 20.9936 88.8439 23.7519 90.3211L29.2481 93.2632C27.1897 97.9733 25.6016 102.903 24.544 107.992L18.2874 108.254C15.0354 108.39 12.3097 111.077 12.2015 114.256ZM52.3046 119.026C53.1165 95.1839 73.4132 75.1125 97.5051 74.2C121.451 73.2932 140.105 91.6776 139.302 115.259C138.499 138.84 118.536 158.896 94.5812 160.063C70.4804 161.237 51.4928 142.868 52.3046 119.026Z" fill="url(#paint0_linear_624_181)"/>
<path d="M19.48 114.164L19.1111 125.001C19.0027 128.18 21.5531 130.64 24.805 130.495L30.7151 130.231C31.2795 135.382 32.4112 140.33 34.0545 145.014L29.0626 148.008C26.1953 149.728 25.1114 153.29 26.6425 155.964L31.857 165.068C33.3854 167.736 36.9431 168.5 39.8023 166.777L44.5257 163.929C47.6861 167.878 51.3045 171.439 55.3082 174.548L52.5765 179.065C50.8691 181.889 51.7077 185.345 54.4484 186.784L63.7766 191.677C66.509 193.111 70.1004 191.986 71.7998 189.167L74.4165 184.827C79.26 186.48 84.3761 187.604 89.6978 188.145L89.5343 192.946C89.427 196.097 91.9311 198.512 95.125 198.34L105.993 197.759C109.176 197.588 111.841 194.904 111.948 191.763L112.111 186.975C117.451 185.882 122.612 184.228 127.525 182.082L129.822 186.137C131.311 188.769 134.781 189.514 137.571 187.804L147.066 181.985C149.848 180.28 150.9 176.771 149.417 174.144L147.044 169.936C151.173 166.46 154.949 162.581 158.296 158.369L162.706 160.73C165.37 162.156 168.873 161.059 170.532 158.281L176.181 148.821C177.836 146.048 177.026 142.642 174.37 141.211L169.735 138.713C171.639 133.948 173.063 128.972 173.951 123.848L179.642 123.595C182.767 123.455 185.384 120.819 185.49 117.706L185.851 107.095C185.957 103.982 183.512 101.564 180.388 101.695L174.363 101.947C173.677 97.0191 172.468 92.2887 170.786 87.808L176.302 84.4836C179.063 82.8181 180.109 79.3317 178.637 76.6936L173.617 67.6939C172.143 65.0511 168.704 64.2538 165.934 65.9148L160.131 69.3957C157.116 65.7512 153.702 62.4477 149.948 59.5395L153.522 53.6103C155.188 50.8476 154.372 47.4182 151.699 45.9493L142.573 40.9334C139.892 39.46 136.36 40.5074 134.687 43.2756L131.013 49.3513C126.533 47.8149 121.815 46.7234 116.907 46.1347L117.144 39.179C117.251 36.0374 114.761 33.5757 111.581 33.68L100.72 34.0362C97.5286 34.1409 94.8524 36.7791 94.7453 39.9296L94.5077 46.9051C89.514 47.8374 84.6655 49.2656 80.0158 51.1292L76.7008 45.2533C75.1887 42.5729 71.6635 41.7556 68.8253 43.4293L59.1359 49.1448C56.2891 50.8237 55.2123 54.3627 56.7322 57.0466L59.9896 62.7998C55.9337 66.0289 52.1927 69.6403 48.8324 73.5743L43.0819 70.476C40.3318 68.9945 36.7115 70.0683 34.9967 72.877L29.1459 82.4588C27.428 85.2727 28.2722 88.7518 31.0305 90.229L36.5266 93.1711C34.4683 97.8812 32.88 102.811 31.8226 107.9L25.5659 108.162C22.3139 108.297 19.5884 110.985 19.48 114.164ZM59.5832 118.934C60.3952 95.0917 80.6916 75.0205 104.784 74.1079C128.729 73.2009 147.384 91.5855 146.581 115.166C145.778 138.747 125.814 158.803 101.86 159.971C77.7589 161.145 58.7714 142.775 59.5832 118.934Z" fill="url(#paint1_linear_624_181)"/>
<path d="M274.973 232.208C277.656 246.163 269.021 257.307 261.627 264.414C260.361 264.108 259.539 264.276 258.185 264.269C245.962 264.207 240.911 261.436 228.982 259.371C226.415 258.926 219.389 255.184 216.623 253.455L211.52 250.142C211.52 250.142 209.182 217.24 226.838 212.703C244.495 208.165 246.067 176.39 248.87 159.544C256.474 113.836 303.904 129.956 318.371 72.001C322.219 56.5867 324.403 25.9045 340.455 16.8563C358.742 6.54798 366.141 22.9601 378.572 13.6284C398.001 -0.956847 423.783 -1.51158 433.5 20.8862C443.09 42.9916 416.634 75.6708 366.328 94.7153C331.786 112.466 329.496 119.782 327.233 138.422C325.648 151.478 329.526 187.48 309.056 196.382C288.587 205.284 271.906 216.255 274.973 232.208Z" fill="url(#paint2_linear_624_181)"/>
<mask id="mask0_624_181" style="mask-type:luminance" maskUnits="userSpaceOnUse" x="211" y="3" width="225" height="270">
<path d="M251.598 272.798L212.185 251.481C212.185 251.481 209.182 217.239 226.838 212.702C244.495 208.164 246.067 176.389 248.87 159.543C256.475 113.835 303.904 129.955 318.371 72C322.219 56.5859 324.403 25.9035 340.455 16.8553C358.742 6.547 366.141 22.9592 378.572 13.6275C398.001 -0.957824 423.783 -1.51255 433.5 20.8852C443.09 42.9906 416.634 75.67 366.328 94.7143C331.786 112.465 329.496 119.781 327.233 138.421C325.648 151.477 329.526 187.479 309.056 196.381C288.587 205.283 271.905 216.254 274.973 232.207C279.64 256.481 251.598 272.798 251.598 272.798Z" fill="white"/>
</mask>
<g mask="url(#mask0_624_181)">
<g opacity="0.5">
<path d="M234.966 261.358L234.137 261.039C236.04 256.1 238.02 251.142 240.022 246.304C254.848 210.48 272.481 177.337 292.433 147.794C309.34 122.762 328.143 99.9588 348.32 80.0179C364.547 63.9816 381.748 49.701 399.443 37.5729C411.883 29.0473 424.438 21.665 436.758 15.6322C438.905 14.5804 441.159 13.625 443.34 12.701C446.245 11.47 449.248 10.1971 452.021 8.68604L452.445 9.46615C449.635 10.998 446.611 12.2797 443.687 13.5191C441.517 14.4383 439.274 15.3892 437.149 16.4302C424.867 22.444 412.35 29.804 399.945 38.3058C382.293 50.4037 365.134 64.6507 348.945 80.6501C328.809 100.55 310.043 123.308 293.17 148.291C273.251 177.784 255.646 210.875 240.843 246.643C238.843 251.475 236.866 256.425 234.966 261.358Z" fill="#FCFDFE"/>
<path d="M325.402 105.922L324.712 105.362C348.758 75.7715 350.345 10.4512 350.358 9.79492L351.246 9.81253C351.233 10.4721 349.64 76.0947 325.402 105.922Z" fill="#FCFDFE"/>
<path d="M265.392 194.595L264.642 194.119C278.631 172.097 328.199 164.738 328.698 164.667L328.824 165.546C328.33 165.617 279.162 172.918 265.392 194.595Z" fill="#FCFDFE"/>
<path d="M258.535 207.777L257.713 207.44C264.158 191.677 264.525 166.736 258.747 137.212C258.456 135.728 258.456 135.728 258.518 135.571L259.344 135.897L258.931 135.734L259.373 135.73C259.381 135.831 259.491 136.392 259.618 137.042C265.43 166.734 265.045 191.854 258.535 207.777Z" fill="#FCFDFE"/>
<path d="M238.566 252.393L237.874 251.836C249.645 237.231 277.467 237.23 277.746 237.231L277.741 238.12C277.466 238.118 250.067 238.123 238.566 252.393Z" fill="#FCFDFE"/>
<path d="M233.646 261.101C233.957 245.978 229.935 230.272 221.352 213.085L222.147 212.688C230.796 230.007 234.848 245.849 234.534 261.119L233.646 261.101Z" fill="#FCFDFE"/>
<path d="M389.641 45.6192L388.984 45.0215C403.27 29.3146 414.638 9.50184 418.373 2.99113C419.277 1.41513 419.597 0.861464 419.742 0.687988L420.424 1.25774C420.315 1.3916 419.798 2.29252 419.144 3.43339C415.396 9.96474 403.992 29.8405 389.641 45.6192Z" fill="#FCFDFE"/>
<path d="M362.635 67.7219L362.183 66.9571C379.323 56.8263 417.856 66.8674 419.488 67.2996L419.26 68.1584C418.864 68.0536 379.455 57.7805 362.635 67.7219Z" fill="#FCFDFE"/>
</g>
</g>
<mask id="mask1_624_181" style="mask-type:luminance" maskUnits="userSpaceOnUse" x="228" y="93" width="208" height="206">
<path d="M230.862 277.348L265.964 298.746C265.964 298.746 283.548 284.767 282.692 266.816C280.946 230.189 313.146 231.216 326.698 229.629C347.134 227.235 364.099 216.213 347.889 197.031C331.68 177.849 371.342 158.783 404.903 159.673C437.746 160.545 458.246 102.666 387.336 94.2535C344.988 89.2294 328.776 127.492 315.996 144.869C303.215 162.245 275 147.128 270.676 175.236C266.982 199.246 273.629 222.447 254.038 228.558C234.446 234.67 224.252 248.7 230.862 277.348Z" fill="white"/>
</mask>
<g mask="url(#mask1_624_181)">
<path d="M230.862 277.348L265.964 298.746C265.964 298.746 283.548 284.767 282.692 266.816C280.946 230.19 313.146 231.217 326.698 229.629C347.134 227.235 361.759 216.961 350.653 197.744C338.087 176 371.342 158.783 404.903 159.673C437.746 160.545 458.246 102.666 387.336 94.2535C344.988 89.2294 328.776 127.492 315.996 144.869C303.215 162.245 275 147.128 270.676 175.236C266.982 199.246 273.629 222.447 254.038 228.558C234.446 234.67 224.252 248.7 230.862 277.348Z" fill="url(#paint3_linear_624_181)"/>
</g>
<mask id="mask2_624_181" style="mask-type:luminance" maskUnits="userSpaceOnUse" x="228" y="93" width="208" height="206">
<path d="M230.862 277.348L265.964 298.746C265.964 298.746 283.548 284.767 282.692 266.816C280.946 230.189 313.146 231.216 326.698 229.629C347.134 227.235 364.099 216.213 347.889 197.031C331.68 177.849 371.342 158.783 404.903 159.673C437.746 160.545 458.246 102.666 387.336 94.2535C344.988 89.2294 328.776 127.492 315.996 144.869C303.215 162.245 275 147.128 270.676 175.236C266.982 199.246 273.629 222.447 254.038 228.558C234.446 234.67 224.252 248.7 230.862 277.348Z" fill="white"/>
</mask>
<g mask="url(#mask2_624_181)">
<g opacity="0.5">
<path d="M244.068 289.868L244.878 290.179C245.071 289.677 264.519 239.497 298.799 195.565C330.38 155.091 381.377 111.794 444.985 135.366L445.287 134.552C416.972 124.059 388.76 125.715 361.434 139.473C339.606 150.464 318.299 169.16 298.104 195.044C263.749 239.079 244.261 289.365 244.068 289.868Z" fill="#BEB8F2"/>
<path d="M350.264 145.715L351.055 146.072C362.928 119.739 393.445 90.6565 393.752 90.3657L393.156 89.7354C392.848 90.0277 362.206 119.228 350.264 145.715Z" fill="#BEB8F2"/>
<path d="M368.722 137.048C403.142 136.712 421.903 158.377 422.088 158.595L422.75 158.035C422.562 157.812 403.555 135.84 368.714 136.18L368.722 137.048Z" fill="#BEB8F2"/>
<path d="M277.953 225.506C307.536 195.619 360.277 216.017 360.775 216.258L361.204 215.505C360.738 215.222 307.182 194.743 277.336 224.896L277.953 225.506Z" fill="#BEB8F2"/>
<path d="M286.749 210.563L287.567 210.854C296.575 185.577 281.651 155.309 281.499 155.006L280.724 155.395C280.874 155.695 295.632 185.639 286.749 210.563Z" fill="#BEB8F2"/>
<path d="M248.112 282.35C257.47 269.403 283.449 270.47 283.71 270.482L283.751 269.615C282.665 269.564 257.043 268.512 247.409 281.841L248.112 282.35Z" fill="#BEB8F2"/>
<path d="M252.558 270.405L253.365 270.725C258.031 258.988 249.18 237.348 246.272 230.238C245.861 229.233 245.506 228.365 245.473 228.198L244.619 228.353C244.662 228.59 244.896 229.167 245.469 230.566C248.344 237.597 257.095 258.992 252.558 270.405Z" fill="#BEB8F2"/>
</g>
</g>
<path d="M292.861 309.844C292.692 309.878 292.522 309.91 292.353 309.942C282.322 311.849 271.022 312.16 258.4 309.863C255.971 309.242 253.542 308.621 251.113 307.999C250.342 301.738 250.731 295.645 258.677 295.028C271.017 294.07 275.71 273.747 274.093 265.848C272.093 256.072 267.902 233.212 286.956 231.431C302.818 229.948 313.357 232.233 318.534 213.343C323.71 194.453 336.725 184.786 353.814 189.675C371.797 194.819 392.012 173.774 405.199 185.131C428.178 204.92 395.468 241.937 361.156 247.286C326.844 252.634 342.541 267.978 340.01 283.806C336.554 305.414 308.671 294.602 299.229 301.341C296.031 303.624 294.059 306.66 292.861 309.844Z" fill="url(#paint4_linear_624_181)"/>
<mask id="mask3_624_181" style="mask-type:luminance" maskUnits="userSpaceOnUse" x="250" y="181" width="163" height="141">
<path d="M291.155 321.795L251.474 312.88C250.424 306.743 249.801 295.717 258.677 295.028C271.017 294.07 275.71 273.747 274.093 265.848C272.093 256.072 267.902 233.212 286.956 231.431C302.818 229.948 313.357 232.233 318.534 213.343C323.711 194.453 336.725 184.786 353.814 189.675C371.797 194.819 392.012 173.774 405.2 185.131C428.178 204.92 395.468 241.937 361.156 247.285C326.844 252.634 342.541 267.978 340.01 283.805C336.554 305.413 308.671 294.602 299.229 301.341C291.827 306.624 290.972 315.94 291.155 321.795Z" fill="white"/>
</mask>
<g mask="url(#mask3_624_181)">
<g opacity="0.5">
<path d="M273.873 311.356L273.067 311C299.068 252.048 353.553 206.003 415.259 190.834L415.469 191.69C354.023 206.795 299.766 252.648 273.873 311.356Z" fill="#FCFDFE"/>
<path d="M290.802 280.428L289.941 280.239C295.383 255.509 278.454 231.574 278.283 231.335L278.999 230.821C279.173 231.063 296.33 255.309 290.802 280.428Z" fill="#FCFDFE"/>
<path d="M278.952 300.641L278.284 300.066C295.045 280.62 341.286 287.522 341.752 287.594L341.617 288.465C341.157 288.394 295.394 281.565 278.952 300.641Z" fill="#FCFDFE"/>
<path d="M333.159 233.586L332.445 233.07C344.375 216.565 338.644 185.868 338.585 185.56L339.45 185.393C339.511 185.705 345.31 216.777 333.159 233.586Z" fill="#FCFDFE"/>
<path d="M367.005 210.588L366.715 209.755C388.634 202.137 417.096 215.273 417.381 215.407L417.007 216.205C416.726 216.073 388.582 203.088 367.005 210.588Z" fill="#FCFDFE"/>
</g>
</g>
<path d="M94.4553 153.371C93.1933 152.733 91.1651 151.496 89.4793 149.253C87.6739 146.85 85.7452 142.609 87.2487 140.845C87.9695 140 88.9541 140.34 91.0236 139.987C95.3307 139.253 96.4898 136.854 99.2596 135.869C105.343 133.706 114.485 140.037 114.016 143.247C113.82 144.584 111.958 145.381 108.525 146.85C105.007 148.356 103.588 148.169 100.632 149.424C99.0928 150.078 96.8785 151.232 94.4553 153.371Z" fill="url(#paint5_linear_624_181)"/>
<path d="M37.3815 343.226L36.79 342.2C36.79 342.2 35.7282 341.564 35.226 342.88C34.7236 344.196 31.8738 351.069 31.7222 354.187C32.4698 356.053 34.5855 354.473 35.022 353.204C35.4585 351.936 36.9706 347.233 36.9706 347.233L37.3815 343.226Z" fill="url(#paint6_linear_624_181)"/>
<path d="M44.1092 348.133C43.2254 348.12 42.3465 348.126 41.4574 348.086C39.8361 348.014 38.2063 347.897 36.5704 347.734C36.8439 346.033 37.1171 344.331 37.3904 342.629C38.225 342.31 39.04 341.991 39.8376 341.67C40.2448 341.506 40.6347 341.341 41.0323 341.177C41.4075 341.022 41.7907 340.867 42.1577 340.711C42.6974 340.483 43.2186 340.253 43.7404 340.023C43.9479 339.932 44.1631 339.841 44.3678 339.749C44.9802 339.475 45.5752 339.201 46.163 338.926C46.2621 338.88 46.366 338.833 46.4644 338.787C47.1008 338.487 47.7201 338.187 48.328 337.886C48.372 337.864 48.4186 337.842 48.4626 337.82C49.1025 337.502 49.7267 337.184 50.3359 336.865C50.3443 336.86 50.3531 336.856 50.3616 336.851C51.6008 336.202 52.7766 335.55 53.8927 334.898C67.7244 326.815 72.2982 318.608 73.7074 312.154C77.6725 293.997 58.258 282.338 63.273 262.648C67.0518 247.81 83.0024 235.105 92.824 238.068C103.916 241.414 105.654 262.914 106.724 276.145C107.928 291.042 109.27 307.639 99.7421 322.504C90.7202 336.581 74.4215 345.244 55.6665 347.55C55.6665 347.55 55.6666 347.551 55.6666 347.553C55.2206 347.607 54.7637 347.632 54.3151 347.68C53.2276 347.795 52.1417 347.915 51.0394 347.988C50.5352 348.021 50.0221 348.024 49.5152 348.048C48.4405 348.099 47.3683 348.159 46.2827 348.17C45.5626 348.177 44.8333 348.143 44.1092 348.133Z" fill="url(#paint7_linear_624_181)"/>
<path opacity="0.25" d="M44.1092 348.133C43.2254 348.12 42.3465 348.126 41.4574 348.086C39.8361 348.014 38.2063 347.897 36.5704 347.734C36.8439 346.033 37.1171 344.331 37.3904 342.629C38.225 342.31 39.04 341.991 39.8376 341.67C40.2448 341.506 40.6347 341.341 41.0323 341.177C41.4075 341.022 41.7907 340.867 42.1577 340.711C42.6974 340.483 43.2186 340.253 43.7404 340.023C43.9479 339.932 44.1631 339.841 44.3678 339.749C44.9802 339.475 45.5752 339.201 46.163 338.926C46.2621 338.88 46.366 338.833 46.4644 338.787C47.1008 338.487 47.7201 338.187 48.328 337.886C48.372 337.864 48.4186 337.842 48.4626 337.82C49.1025 337.502 49.7267 337.184 50.3359 336.865C50.3443 336.86 50.3531 336.856 50.3616 336.851C51.6008 336.202 52.7766 335.55 53.8927 334.898C67.7244 326.815 72.2982 318.608 73.7074 312.154C77.6725 293.997 58.258 282.338 63.273 262.648C67.0518 247.81 83.0024 235.105 92.824 238.068C103.916 241.414 105.654 262.914 106.724 276.145C107.928 291.042 109.27 307.639 99.7421 322.504C90.7202 336.581 74.4215 345.244 55.6665 347.55C55.6665 347.55 55.6666 347.551 55.6666 347.553C55.2206 347.607 54.7637 347.632 54.3151 347.68C53.2276 347.795 52.1417 347.915 51.0394 347.988C50.5352 348.021 50.0221 348.024 49.5152 348.048C48.4405 348.099 47.3683 348.159 46.2827 348.17C45.5626 348.177 44.8333 348.143 44.1092 348.133Z" fill="url(#paint8_linear_624_181)"/>
<path d="M134.434 242.593C136.555 239.229 126.667 234.265 123.453 220.459C120.739 208.802 126.276 205.849 123.255 190.244C121.573 181.552 118.701 176.505 115.353 172.841C112.594 169.821 109.01 165.898 105.78 166.411C95.6496 168.019 83.6505 214.095 103.892 234.186C114.293 244.509 131.877 246.651 134.434 242.593Z" fill="url(#paint9_linear_624_181)"/>
<path d="M81.2622 388.48C81.7227 387.418 84.2585 390.088 86.6205 392.908C86.3162 396.966 86.0119 401.025 85.7076 405.083C86.5463 404.55 87.6038 403.968 88.7966 403.692C90.2302 403.362 92.7079 403.878 92.8984 404.563C94.0731 408.793 83.5259 409.716 82.3701 408.387C81.2144 407.058 81.4786 405.503 81.4786 405.503C82.5491 399.408 82.4075 395.281 81.8999 392.43C81.5433 390.429 81.0078 389.066 81.2622 388.48Z" fill="url(#paint10_linear_624_181)"/>
<path d="M54.2409 252.361C60.2598 243.487 66.1267 234.511 72.0085 225.546C73.164 223.784 73.834 221.74 74.1562 219.595C76.4917 221.448 78.7285 223.667 80.7899 226.264C82.446 234.568 85.0038 247.051 88.3785 262.18C96.9534 300.627 100.563 310.255 102.382 322.348C105.18 340.954 104.188 368.37 85.7076 405.083C84.2979 405.223 82.8883 405.363 81.4786 405.503C78.508 374.1 75.101 345.757 73.3817 331.191C72.7982 326.249 71.0766 311.424 63.139 299.482C63.0112 299.29 51.2658 283.229 47.2132 276.812C45.864 274.675 44.176 271.904 42.2577 268.198C46.8081 263.416 50.4549 257.942 54.2409 252.361Z" fill="url(#paint11_linear_624_181)"/>
<path opacity="0.25" d="M54.2409 252.362C60.2597 243.488 66.127 234.511 72.0085 225.546C73.1638 223.784 73.834 221.741 74.1562 219.595C76.4917 221.449 78.7285 223.668 80.7899 226.264C83.4152 236.417 85.2863 245.101 86.5964 251.741C90.2305 270.16 90.0238 275.254 87.4205 279.827C83.8419 286.114 79.7208 284.413 77.1058 289.885C72.5213 299.478 84.7977 306.033 84.6848 324.532C84.6221 334.789 80.9544 337.364 82.6242 346.779C83.0552 349.21 84.2771 354.55 83.7373 361.885C83.5004 365.107 83.2407 364.405 83.0432 367.316C82.4811 375.609 84.4591 383.233 83.6021 388.411C83.294 390.273 82.6606 391.571 82.4148 392.044C81.7549 393.312 80.9813 394.221 80.4372 394.784C77.7452 367.751 74.903 344.078 73.3817 331.191C72.7982 326.249 71.0766 311.424 63.139 299.482C63.0112 299.29 51.2658 283.228 47.2132 276.811C45.864 274.675 44.176 271.904 42.2577 268.198C46.8081 263.416 50.4551 257.942 54.2409 252.362Z" fill="url(#paint12_linear_624_181)"/>
<path d="M116.524 174.765C120.308 181.703 119.877 188.613 119.463 191.637C118.217 200.734 112.902 206.796 111.118 209.088C105.136 216.774 100.47 231.975 107.896 265.299C103.729 264.631 96.8729 263.989 88.8835 265.654C68.5627 269.89 60.4508 284.979 50.7017 282.229C47.1022 281.213 42.214 277.465 38.8054 263.469C35.8264 256.191 26.5433 230.939 36.06 201.242C42.8668 180.001 55.9602 166.881 62.4461 161.175C68.0222 159.297 85.4328 154.221 101.999 162.243C106.126 164.242 112.538 167.457 116.524 174.765Z" fill="url(#paint13_linear_624_181)"/>
<path d="M97.5003 217.797L113.042 212.308C113.329 212.216 113.558 211.997 113.663 211.713L116.239 204.701C116.506 203.976 115.868 203.243 115.114 203.406L100.511 206.565C100.177 206.637 99.4327 206.853 99.2046 207.474L96.3132 216.027C96.05 216.789 96.7326 218.043 97.5003 217.797Z" fill="url(#paint14_linear_624_181)"/>
<path d="M97.7386 217.886L112.757 213.083C113.045 212.991 113.274 212.771 113.378 212.488L115.955 205.475C116.221 204.751 115.584 204.018 114.829 204.181L100.226 207.339C99.8923 207.411 99.6199 207.653 99.5081 207.976L96.5148 216.634C96.2518 217.396 96.9709 218.132 97.7386 217.886Z" fill="url(#paint15_linear_624_181)"/>
<path d="M90.9292 213.195L92.6096 212.397C92.6096 212.397 95.2518 210.463 97.0271 209.683C98.8022 208.904 100.239 209.09 101.34 210.731C102.44 212.374 100.572 213.918 98.9684 215.274C97.9931 216.099 95.9592 216.173 94.3134 216.085C93.1563 216.024 90.8412 216.825 90.8412 216.825L90.9292 213.195Z" fill="url(#paint16_linear_624_181)"/>
<path d="M94.107 147.275C94.1121 148.741 94.0556 156.591 90.5678 157.88C89.8054 158.161 89.193 157.982 85.8111 158.07C83.8831 158.12 82.3146 158.223 81.3044 158.301C81.4759 159.638 81.8127 161.432 82.5295 163.449C86.8696 175.662 100.918 184.146 105.677 181.09C108.155 179.499 108.347 174.724 108.426 172.743C108.545 169.768 107.827 167.41 107.304 166.061C105.561 164.795 103.779 163.526 101.956 162.258C100.765 161.429 99.5803 160.616 98.4027 159.819C98.4822 158.317 98.5618 156.815 98.6413 155.313C97.1296 152.634 95.6183 149.954 94.107 147.275Z" fill="url(#paint17_linear_624_181)"/>
<path d="M92.5847 150.17C92.5847 150.17 92.568 156.63 97.726 158.731C102.344 160.613 108.402 149.77 106.576 146.252C105.967 145.078 104.144 143.699 102.379 143.381C101.138 143.156 95.9868 143.126 94.5272 147.173C94.093 145.894 93.2288 145.064 92.3359 145.055C92.1934 145.053 91.7844 145.113 91.4578 145.346C90.2753 146.189 90.6117 148.162 92.5847 150.17Z" fill="url(#paint18_linear_624_181)"/>
<path opacity="0.3" d="M36.0598 201.242C41.3853 184.624 50.5477 172.999 57.3946 165.983C65.2439 171.172 73.2295 178.202 72.5628 185.74C71.8041 194.319 60.3444 197.863 61.4145 203.288C62.9658 211.15 87.9282 208.172 90.8415 216.825C94.2742 227.021 64.6757 246.199 66.2585 248.37C67.3909 249.923 81.0047 238.949 96.4572 241.507C99.4548 242.003 102.141 243.172 104.534 244.712C105.084 250.672 106.154 257.481 107.896 265.3C103.73 264.631 96.873 263.989 88.8836 265.654C68.5629 269.89 60.4509 284.98 50.7019 282.229C47.1023 281.214 42.2142 277.466 38.8055 263.469C35.8262 256.192 26.5431 230.939 36.0598 201.242Z" fill="url(#paint19_linear_624_181)"/>
<path d="M73.4963 161.761C68.7788 160.585 68.7548 159.051 62.4458 161.175C44.3288 167.274 25.1497 194.615 35.0616 213.922C40.5747 224.661 53.7847 234.344 68.3487 232.11C80.2044 230.292 87.1681 221.464 88.9387 219.07C89.625 216.324 90.3113 213.579 90.9975 210.834C83.2712 215.214 77.8294 215.212 74.1825 214.265C67.9746 212.653 66.596 208.205 56.3378 204.314C52.3413 202.797 49.9404 202.482 49.8176 201.225C49.5639 198.625 59.6116 197.758 65.9464 192.303C70.5647 188.326 75.1718 180.221 73.4963 161.761Z" fill="url(#paint20_linear_624_181)"/>
<path d="M303.185 409.904C303.185 414.52 306.029 418.262 309.539 418.262C313.047 418.262 315.892 414.52 315.892 409.904C315.892 405.288 313.047 401.546 309.539 401.546C306.029 401.546 303.185 405.288 303.185 409.904Z" fill="url(#paint21_linear_624_181)"/>
<path d="M301.415 410.848C301.415 415.464 304.259 419.205 307.769 419.205C311.278 419.205 314.122 415.464 314.122 410.848C314.122 406.232 311.277 402.49 307.769 402.49C304.26 402.49 301.415 406.232 301.415 410.848Z" fill="url(#paint22_linear_624_181)"/>
<path d="M305.107 411.016C305.107 412.95 306.299 414.518 307.769 414.518C309.239 414.518 310.432 412.95 310.432 411.016C310.432 409.082 309.24 407.514 307.769 407.514C306.299 407.514 305.107 409.082 305.107 411.016Z" fill="url(#paint23_linear_624_181)"/>
<path d="M309.538 400.646V409.823C309.538 411.171 308.446 412.263 307.099 412.263C306.32 412.263 305.588 411.891 305.128 411.262L296.874 399.96L309.538 400.646Z" fill="#C2C2C2"/>
<path d="M235.162 402.575C235.162 407.191 238.007 410.933 241.516 410.933C245.024 410.933 247.869 407.191 247.869 402.575C247.869 397.959 245.024 394.217 241.516 394.217C238.007 394.217 235.162 397.959 235.162 402.575Z" fill="url(#paint24_linear_624_181)"/>
<path d="M233.392 403.518C233.392 408.134 236.237 411.876 239.745 411.876C243.254 411.876 246.099 408.134 246.099 403.518C246.099 398.903 243.254 395.161 239.745 395.161C236.237 395.161 233.392 398.903 233.392 403.518Z" fill="url(#paint25_linear_624_181)"/>
<path d="M237.084 403.687C237.084 405.621 238.276 407.189 239.746 407.189C241.217 407.189 242.409 405.621 242.409 403.687C242.409 401.752 241.217 400.185 239.746 400.185C238.276 400.185 237.084 401.752 237.084 403.687Z" fill="url(#paint26_linear_624_181)"/>
<path d="M241.516 393.317V402.494C241.516 403.842 240.423 404.934 239.076 404.934C238.297 404.934 237.565 404.562 237.105 403.933L228.851 392.631L241.516 393.317Z" fill="#C2C2C2"/>
<path d="M310.487 402.072C311.324 402.072 312.045 401.443 312.14 400.592C312.244 399.678 311.586 398.853 310.671 398.75L230.116 389.673C225.731 388.918 222.075 385.586 220.896 381.197L187.152 255.565C185.354 248.875 179.504 244.061 172.595 243.585L148.092 242.124C147.171 242.061 146.384 242.769 146.33 243.688C146.274 244.606 146.975 245.395 147.893 245.45L172.381 246.91C177.857 247.288 182.505 251.113 183.933 256.429L217.677 382.061C219.193 387.702 223.892 391.984 229.648 392.971L310.299 402.061C310.362 402.069 310.425 402.072 310.487 402.072Z" fill="#C2C2C2"/>
<path d="M254.443 352.616C255.168 352.616 255.835 352.139 256.044 351.407L275.013 285.03C275.266 284.145 274.754 283.224 273.87 282.971C272.986 282.718 272.063 283.231 271.81 284.114L252.84 350.491C252.587 351.377 253.1 352.298 253.984 352.551C254.137 352.595 254.292 352.616 254.443 352.616Z" fill="#C2C2C2"/>
<path d="M235.037 349.841C235.829 349.841 236.532 349.273 236.675 348.467L248.376 282.715C248.537 281.809 247.933 280.944 247.028 280.783C246.113 280.618 245.256 281.225 245.095 282.131L233.395 347.882C233.234 348.789 233.838 349.653 234.743 349.815C234.842 349.832 234.94 349.841 235.037 349.841Z" fill="#C2C2C2"/>
<path d="M222.979 347.685C223.002 347.685 223.026 347.684 223.049 347.683C223.969 347.645 224.683 346.869 224.645 345.95L221.944 280.894C221.907 279.975 221.171 279.245 220.211 279.299C219.291 279.337 218.577 280.113 218.615 281.032L221.315 346.088C221.352 346.984 222.091 347.685 222.979 347.685Z" fill="#C2C2C2"/>
<path d="M280.912 355.045C281.609 355.045 282.258 354.605 282.492 353.908L304.765 287.501C305.057 286.629 304.588 285.685 303.715 285.392C302.842 285.101 301.898 285.569 301.605 286.442L279.333 352.848C279.041 353.721 279.51 354.665 280.383 354.958C280.559 355.016 280.737 355.045 280.912 355.045Z" fill="#C2C2C2"/>
<path d="M90.7701 251.235C90.8621 251.235 90.9539 251.231 91.0476 251.223L145.869 246.716C147.703 246.566 149.068 244.956 148.917 243.122C148.766 241.287 147.155 239.921 145.322 240.074L90.5009 244.581C88.6672 244.732 87.302 246.341 87.4533 248.176C87.5966 249.917 89.0536 251.235 90.7701 251.235Z" fill="url(#paint27_linear_624_181)"/>
<path d="M243.505 432.698C243.505 437.314 246.35 441.056 249.858 441.056C253.368 441.056 256.212 437.314 256.212 432.698C256.212 428.082 253.368 424.34 249.858 424.34C246.35 424.34 243.505 428.082 243.505 432.698Z" fill="url(#paint28_linear_624_181)"/>
<path d="M241.735 433.642C241.735 438.258 244.579 442 248.089 442C251.597 442 254.442 438.258 254.442 433.642C254.442 429.026 251.597 425.284 248.089 425.284C244.58 425.284 241.735 429.026 241.735 433.642Z" fill="url(#paint29_linear_624_181)"/>
<path d="M245.427 433.811C245.427 435.745 246.619 437.313 248.089 437.313C249.56 437.313 250.752 435.745 250.752 433.811C250.752 431.877 249.56 430.309 248.089 430.309C246.619 430.308 245.427 431.876 245.427 433.811Z" fill="url(#paint30_linear_624_181)"/>
<path d="M249.858 423.44V432.618C249.858 433.965 248.766 435.058 247.419 435.058C246.64 435.058 245.908 434.686 245.448 434.057L237.194 422.754L249.858 423.44Z" fill="#999999"/>
<path d="M184.612 426.803C184.612 431.418 187.456 435.161 190.965 435.161C194.474 435.161 197.319 431.419 197.319 426.803C197.319 422.187 194.474 418.445 190.965 418.445C187.456 418.445 184.612 422.187 184.612 426.803Z" fill="url(#paint31_linear_624_181)"/>
<path d="M182.842 427.746C182.842 432.362 185.687 436.104 189.195 436.104C192.704 436.104 195.549 432.362 195.549 427.746C195.549 423.13 192.704 419.388 189.195 419.388C185.687 419.388 182.842 423.13 182.842 427.746Z" fill="url(#paint32_linear_624_181)"/>
<path d="M186.534 427.915C186.534 429.849 187.726 431.417 189.196 431.417C190.666 431.417 191.858 429.849 191.858 427.915C191.858 425.981 190.666 424.413 189.196 424.413C187.726 424.413 186.534 425.981 186.534 427.915Z" fill="url(#paint33_linear_624_181)"/>
<path d="M190.965 417.545V426.722C190.965 428.07 189.873 429.162 188.526 429.162C187.747 429.162 187.015 428.79 186.555 428.161L178.301 416.859L190.965 417.545Z" fill="#999999"/>
<path d="M335.549 290.16C336.415 290.16 337.146 289.49 337.21 288.613C337.276 287.696 336.585 286.897 335.667 286.832L192.198 276.504C192.064 276.498 191.93 276.501 191.798 276.524L132.404 286.641C131.497 286.795 130.887 287.656 131.041 288.563C131.196 289.469 132.045 290.08 132.963 289.926L192.159 279.843L335.428 290.156C335.469 290.158 335.509 290.16 335.549 290.16Z" fill="#C2C2C2"/>
<path opacity="0.75" d="M351.352 122.289C351.342 63.0285 300.88 14.9979 238.644 15.0093C176.408 15.0207 125.964 63.0698 125.975 122.33C125.982 158.293 144.57 190.12 173.095 209.583C185.196 217.84 192.537 231.452 192.539 246.102L192.541 254.314C192.544 272.155 207.01 286.615 224.851 286.612L252.536 286.607C270.377 286.603 284.838 272.138 284.835 254.297L284.833 246.086C284.83 231.435 292.166 217.821 304.264 209.559C332.782 190.085 351.359 158.252 351.352 122.289Z" fill="#F4F7FA"/>
<path d="M238.702 347.685C252.508 347.685 263.7 341.76 263.7 334.451C263.7 327.142 252.508 321.216 238.702 321.216C224.897 321.216 213.705 327.142 213.705 334.451C213.705 341.76 224.897 347.685 238.702 347.685Z" fill="url(#paint34_linear_624_181)"/>
<path d="M205.486 310.815L205.488 324.33C205.489 328.903 208.092 333.092 212.219 335.059C217.95 337.791 227.477 340.788 241.322 340.43C252.553 340.14 259.877 338.305 264.533 336.377C269.031 334.514 271.914 330.066 271.913 325.197L271.912 317.719L205.486 310.815Z" fill="url(#paint35_linear_624_181)"/>
<path opacity="0.3" d="M205.488 322.653C206.5 323.637 207.673 324.472 208.99 325.099C215.419 328.164 257.525 335.005 267.681 331.187C269 330.692 270.186 330.029 271.225 329.229C271.669 327.952 271.913 326.594 271.913 325.197L271.912 317.719L205.486 310.815L205.488 322.653Z" fill="url(#paint36_linear_624_181)"/>
<path d="M208.433 301.619C204.692 301.23 201.437 304.165 201.437 307.926V308.309C201.438 313.439 204.358 318.138 208.989 320.346C215.418 323.41 257.524 330.252 267.68 326.434C272.792 324.512 275.96 320.122 275.959 314.66V314.352C275.959 311.104 273.504 308.382 270.275 308.047L208.433 301.619Z" fill="url(#paint37_linear_624_181)"/>
<path opacity="0.3" d="M270.274 308.047L208.433 301.619C205.993 301.365 203.767 302.53 202.509 304.411C203.751 307.338 206.014 309.785 208.988 311.203C215.416 314.267 259.316 322.002 267.678 318.06C270.934 316.525 273.486 313.935 274.854 310.786C273.834 309.292 272.194 308.246 270.274 308.047Z" fill="url(#paint38_linear_624_181)"/>
<path d="M206.01 279.723C203.482 279.723 201.433 281.773 201.433 284.301L201.435 294.886C201.436 300.016 204.356 304.716 208.987 306.923C215.415 309.987 259.315 317.722 267.677 313.779C272.618 311.45 275.958 306.699 275.956 301.237L275.953 284.287C275.953 281.76 273.903 279.71 271.375 279.711L206.01 279.723Z" fill="url(#paint39_linear_624_181)"/>
<path d="M238.693 291.604C258.762 291.604 275.032 287.757 275.032 283.012C275.032 278.267 258.762 274.421 238.693 274.421C218.624 274.421 202.354 278.267 202.354 283.012C202.354 287.757 218.624 291.604 238.693 291.604Z" fill="url(#paint40_linear_624_181)"/>
<path d="M351.352 122.289C351.342 63.0285 300.88 14.9979 238.644 15.0093C176.408 15.0207 125.964 63.0698 125.975 122.33C125.982 158.293 144.57 190.12 173.095 209.583C185.196 217.84 192.537 231.452 192.539 246.102L192.541 254.314C192.544 272.155 207.01 286.615 224.851 286.612L252.536 286.607C270.377 286.603 284.838 272.138 284.835 254.297L284.833 246.086C284.83 231.435 292.166 217.821 304.264 209.559C332.782 190.085 351.359 158.252 351.352 122.289Z" fill="url(#paint41_linear_624_181)"/>
<path opacity="0.5" d="M238.692 282.524C253.377 282.524 265.282 279.709 265.282 276.237C265.282 272.765 253.377 269.951 238.692 269.951C224.007 269.951 212.102 272.765 212.102 276.237C212.102 279.709 224.007 282.524 238.692 282.524Z" fill="#F4F7FA"/>
<path d="M231.763 280.081C231.002 280.081 230.341 279.515 230.241 278.74L210.652 126.621C210.544 125.78 211.138 125.01 211.98 124.901C212.823 124.788 213.592 125.387 213.7 126.229L233.289 278.348C233.397 279.19 232.803 279.96 231.961 280.068C231.895 280.077 231.829 280.081 231.763 280.081Z" fill="url(#paint42_linear_624_181)"/>
<path d="M243.913 280.078C243.848 280.078 243.782 280.074 243.716 280.066C242.874 279.958 242.279 279.188 242.387 278.346L261.92 126.22C262.029 125.378 262.798 124.778 263.64 124.892C264.482 125 265.077 125.769 264.969 126.611L245.435 278.737C245.336 279.512 244.675 280.078 243.913 280.078Z" fill="url(#paint43_linear_624_181)"/>
<path d="M259.816 126.489C259.317 126.489 258.827 126.246 258.531 125.798L253.131 117.609C253.076 117.525 252.99 117.476 252.912 117.486C252.778 117.489 252.721 117.584 252.703 117.615L249.14 123.586C248.549 124.575 247.514 125.183 246.37 125.212C245.234 125.249 244.159 124.685 243.518 123.724L238.622 116.387C238.569 116.308 238.498 116.267 238.411 116.266C238.307 116.285 238.258 116.303 238.206 116.378L233.907 122.593C233.287 123.491 232.269 124.029 231.184 124.031C231.182 124.031 231.18 124.031 231.177 124.031C230.093 124.031 229.073 123.497 228.448 122.601L222.247 113.722C222.192 113.642 222.113 113.614 222.029 113.606C221.94 113.61 221.871 113.655 221.822 113.739L216.166 123.506C215.741 124.24 214.8 124.491 214.067 124.066C213.332 123.641 213.082 122.7 213.507 121.966L219.163 112.198C219.738 111.206 220.761 110.584 221.899 110.536C223.028 110.478 224.11 111.022 224.767 111.963L230.967 120.842C231.021 120.918 231.091 120.958 231.176 120.958H231.177C231.26 120.957 231.328 120.92 231.38 120.845L235.678 114.63C236.307 113.721 237.343 113.18 238.436 113.193C239.537 113.202 240.563 113.759 241.179 114.682L246.074 122.018C246.129 122.101 246.212 122.17 246.293 122.139C246.426 122.136 246.482 122.042 246.501 122.011L250.064 116.04C250.657 115.047 251.696 114.439 252.844 114.414C253.98 114.388 255.059 114.951 255.697 115.918L261.097 124.107C261.564 124.815 261.369 125.768 260.66 126.235C260.4 126.407 260.106 126.489 259.816 126.489Z" fill="url(#paint44_linear_624_181)"/>
<path opacity="0.3" d="M240.724 206.944C243.131 165.587 312.849 155.895 312.544 118.961C312.356 96.2134 284.647 79.325 278.731 75.9426C235.134 51.018 181.483 79.8195 170.398 59.4439C167.638 54.3711 168.931 48.848 169.667 45.7026C170.78 40.949 173.3 36.5209 177.038 32.4707C146.286 51.6357 125.968 84.7223 125.975 122.33C125.982 158.294 144.57 190.12 173.095 209.583C185.196 217.841 192.537 231.453 192.539 246.103L192.541 254.314C192.544 272.155 207.01 286.615 224.851 286.612L252.536 286.607C270.377 286.604 284.838 272.138 284.835 254.297L284.833 247.732C281.023 250.653 276.647 252.69 271.849 252.652C255.197 252.518 239.527 227.524 240.724 206.944Z" fill="url(#paint45_linear_624_181)"/>
<path opacity="0.44" d="M240.467 220.011C294.022 220.011 337.438 178.141 337.438 126.493C337.438 74.8444 294.022 32.9751 240.467 32.9751C186.911 32.9751 143.496 74.8444 143.496 126.493C143.496 178.141 186.911 220.011 240.467 220.011Z" fill="#F4F7FA"/>
<path d="M286.799 304.961C286.963 304.961 287.126 304.936 287.283 304.889L336.032 290.088C336.912 289.821 337.409 288.89 337.142 288.01C336.874 287.129 335.939 286.635 335.064 286.899L286.632 301.604L132.846 286.625C131.915 286.525 131.114 287.206 131.026 288.121C130.936 289.037 131.607 289.852 132.522 289.941L286.637 304.952C286.692 304.958 286.746 304.961 286.799 304.961Z" fill="#999999"/>
<path d="M151.241 357.327C151.325 357.327 151.41 357.32 151.496 357.307L209.941 348.34L298.859 356.899C299.774 356.985 300.59 356.315 300.677 355.4C300.765 354.483 300.094 353.67 299.178 353.581L210.053 345.003C209.918 344.99 209.777 344.994 209.641 345.015L150.99 354.014C150.08 354.153 149.457 355.004 149.596 355.914C149.723 356.737 150.433 357.327 151.241 357.327Z" fill="#C2C2C2"/>
<path d="M257.215 367.403C257.853 367.403 258.442 367.036 258.72 366.45L288.305 304.008C288.699 303.177 288.344 302.183 287.513 301.789C286.682 301.396 285.687 301.749 285.293 302.581L256.209 363.967L151.401 354.002C150.472 353.914 149.672 354.588 149.584 355.503C149.498 356.419 150.169 357.233 151.086 357.32L257.056 367.395C257.109 367.4 257.162 367.403 257.215 367.403Z" fill="#999999"/>
<path d="M257.212 367.402C257.347 367.402 257.483 367.386 257.62 367.352L299.425 356.856C299.875 356.742 300.258 356.447 300.481 356.04L337.01 289.293C337.452 288.486 337.155 287.473 336.348 287.031C335.54 286.591 334.528 286.887 334.086 287.694L297.907 353.801L256.808 364.12C255.916 364.344 255.374 365.25 255.598 366.142C255.788 366.898 256.467 367.402 257.212 367.402Z" fill="#999999"/>
<path d="M276.039 327.672C276.197 327.672 276.355 327.649 276.507 327.605L322.419 314.148C323.301 313.889 323.807 312.963 323.549 312.08C323.291 311.198 322.36 310.691 321.482 310.95L275.871 324.318L140.3 312.495C139.368 312.403 138.576 313.094 138.496 314.01C138.415 314.927 139.094 315.735 140.011 315.815L275.894 327.665C275.942 327.67 275.991 327.672 276.039 327.672Z" fill="#999999"/>
<path d="M264.821 351.346C264.973 351.346 265.124 351.326 265.271 351.284L309.255 338.962C310.142 338.714 310.658 337.795 310.41 336.909C310.162 336.022 309.243 335.504 308.357 335.754L264.665 347.993L146.941 337.695C146.026 337.598 145.216 338.293 145.136 339.21C145.056 340.126 145.734 340.934 146.651 341.014L264.677 351.34C264.725 351.344 264.773 351.346 264.821 351.346Z" fill="#999999"/>
<path d="M235.575 365.346C236.293 365.346 236.956 364.878 237.172 364.155L256.039 300.855C256.302 299.973 255.8 299.045 254.918 298.782C254.04 298.518 253.109 299.021 252.845 299.903L233.978 363.203C233.715 364.085 234.217 365.014 235.099 365.276C235.257 365.323 235.417 365.346 235.575 365.346Z" fill="#999999"/>
<path d="M214.705 363.361C215.499 363.361 216.202 362.792 216.344 361.984L227.66 297.853C227.82 296.946 227.215 296.082 226.309 295.922C225.406 295.764 224.538 296.368 224.379 297.273L213.062 361.405C212.903 362.311 213.507 363.175 214.414 363.336C214.511 363.353 214.609 363.361 214.705 363.361Z" fill="#999999"/>
<path d="M191.166 360.682C192.043 360.682 192.778 359.996 192.828 359.109L196.394 295.431C196.446 294.512 195.743 293.725 194.824 293.674C193.899 293.638 193.118 294.325 193.067 295.244L189.5 358.922C189.449 359.842 190.152 360.628 191.07 360.679C191.102 360.681 191.134 360.682 191.166 360.682Z" fill="#999999"/>
<path d="M168.862 358.185C168.891 358.185 168.921 358.185 168.95 358.183C169.869 358.135 170.575 357.351 170.527 356.432L167.133 291.738C167.085 290.819 166.31 290.114 165.383 290.161C164.463 290.209 163.758 290.993 163.806 291.912L167.199 356.606C167.246 357.495 167.981 358.185 168.862 358.185Z" fill="#999999"/>
<path d="M269.856 364.228C270.476 364.228 271.072 363.881 271.359 363.285L301.853 299.902C302.252 299.073 301.903 298.077 301.074 297.679C300.246 297.281 299.249 297.629 298.85 298.457L268.356 361.84C267.957 362.669 268.306 363.664 269.135 364.064C269.368 364.175 269.614 364.228 269.856 364.228Z" fill="#999999"/>
<path d="M286.798 359.974C287.41 359.974 287.999 359.636 288.29 359.052L320.66 294.21C321.071 293.387 320.737 292.386 319.914 291.976C319.089 291.562 318.088 291.899 317.679 292.722L285.309 357.564C284.897 358.387 285.232 359.388 286.055 359.798C286.294 359.918 286.548 359.974 286.798 359.974Z" fill="#999999"/>
<path d="M250.178 426.006C250.388 426.006 250.596 425.966 250.792 425.889L311.099 401.955C311.955 401.614 312.373 400.646 312.034 399.791C311.695 398.936 310.725 398.517 309.871 398.857L249.958 422.635L177.209 413.748C172.031 413.116 167.79 409.456 166.404 404.427L126.525 259.65C124.705 253.043 118.89 248.27 112.054 247.775L90.8946 246.241C89.9867 246.188 89.1788 246.864 89.1122 247.782C89.0463 248.7 89.7361 249.498 90.6539 249.565L111.813 251.099C117.245 251.492 121.866 255.284 123.313 260.536L163.192 405.312C164.938 411.649 170.281 416.258 176.806 417.056L249.976 425.994C250.043 426.002 250.11 426.006 250.178 426.006Z" fill="#999999"/>
<path d="M129.372 242.078C129.899 242.06 137.238 241.854 137.935 244.026C138.133 244.641 137.952 245.253 137.952 245.253C137.567 246.549 135.955 246.993 135.721 247.054C138.189 248.633 141.165 248.209 142.584 246.454C143.578 245.225 143.866 243.273 143.077 241.774C142.347 240.386 140.966 239.847 140.182 239.59C134.691 237.789 129.372 242.078 129.372 242.078Z" fill="url(#paint46_linear_624_181)"/>
<defs>
<linearGradient id="paint0_linear_624_181" x1="191.102" y1="-30.2275" x2="-18.9486" y2="299.866" gradientUnits="userSpaceOnUse">
<stop stop-color="#311944"/>
<stop offset="1" stop-color="#893976"/>
</linearGradient>
<linearGradient id="paint1_linear_624_181" x1="194.226" y1="-28.1517" x2="-12.5505" y2="296.797" gradientUnits="userSpaceOnUse">
<stop stop-color="#FF9085"/>
<stop offset="1" stop-color="#FB6FBB"/>
</linearGradient>
<linearGradient id="paint2_linear_624_181" x1="414.293" y1="-2.34709" x2="178.565" y2="293.575" gradientUnits="userSpaceOnUse">
<stop stop-color="#AA80F9"/>
<stop offset="0.9964" stop-color="#6165D7"/>
</linearGradient>
<linearGradient id="paint3_linear_624_181" x1="417.517" y1="110.912" x2="226.572" y2="266.926" gradientUnits="userSpaceOnUse">
<stop offset="0.0036" stop-color="#E38DDD"/>
<stop offset="1" stop-color="#9571F6"/>
</linearGradient>
<linearGradient id="paint4_linear_624_181" x1="395.187" y1="150.478" x2="185.785" y2="451.492" gradientUnits="userSpaceOnUse">
<stop stop-color="#FF9085"/>
<stop offset="1" stop-color="#FB6FBB"/>
</linearGradient>
<linearGradient id="paint5_linear_624_181" x1="114.033" y1="144.399" x2="86.7092" y2="144.399" gradientUnits="userSpaceOnUse">
<stop stop-color="#311944"/>
<stop offset="1" stop-color="#6B3976"/>
</linearGradient>
<linearGradient id="paint6_linear_624_181" x1="69.2065" y1="325.012" x2="16.6841" y2="360.74" gradientUnits="userSpaceOnUse">
<stop stop-color="#AB316D"/>
<stop offset="1" stop-color="#792D3D"/>
</linearGradient>
<linearGradient id="paint7_linear_624_181" x1="117.454" y1="313.46" x2="71.6989" y2="295.615" gradientUnits="userSpaceOnUse">
<stop stop-color="#40447E"/>
<stop offset="0.9964" stop-color="#3C3B6B"/>
</linearGradient>
<linearGradient id="paint8_linear_624_181" x1="117.454" y1="313.46" x2="71.6989" y2="295.615" gradientUnits="userSpaceOnUse">
<stop stop-color="#40447E"/>
<stop offset="0.9964" stop-color="#3C3B6B"/>
</linearGradient>
<linearGradient id="paint9_linear_624_181" x1="145.12" y1="180.194" x2="106.969" y2="216.456" gradientUnits="userSpaceOnUse">
<stop stop-color="#AA80F9"/>
<stop offset="0.9964" stop-color="#6165D7"/>
</linearGradient>
<linearGradient id="paint10_linear_624_181" x1="90.4076" y1="376.943" x2="80.538" y2="436.85" gradientUnits="userSpaceOnUse">
<stop stop-color="#AB316D"/>
<stop offset="1" stop-color="#792D3D"/>
</linearGradient>
<linearGradient id="paint11_linear_624_181" x1="95.2903" y1="275.078" x2="65.4769" y2="333.702" gradientUnits="userSpaceOnUse">
<stop stop-color="#40447E"/>
<stop offset="0.9964" stop-color="#3C3B6B"/>
</linearGradient>
<linearGradient id="paint12_linear_624_181" x1="81.831" y1="264.423" x2="62.7749" y2="329.001" gradientUnits="userSpaceOnUse">
<stop stop-color="#40447E"/>
<stop offset="0.9964" stop-color="#3C3B6B"/>
</linearGradient>
<linearGradient id="paint13_linear_624_181" x1="101.977" y1="203.286" x2="-4.95528" y2="266.602" gradientUnits="userSpaceOnUse">
<stop stop-color="#AA80F9"/>
<stop offset="0.9964" stop-color="#6165D7"/>
</linearGradient>
<linearGradient id="paint14_linear_624_181" x1="99.1652" y1="197.92" x2="103.595" y2="205.734" gradientUnits="userSpaceOnUse">
<stop stop-color="#FFC444"/>
<stop offset="0.9964" stop-color="#F36F56"/>
</linearGradient>
<linearGradient id="paint15_linear_624_181" x1="102.858" y1="219.99" x2="113.857" y2="190.057" gradientUnits="userSpaceOnUse">
<stop stop-color="#FFC444"/>
<stop offset="0.9964" stop-color="#F36F56"/>
</linearGradient>
<linearGradient id="paint16_linear_624_181" x1="100.983" y1="210.199" x2="84.2004" y2="221.445" gradientUnits="userSpaceOnUse">
<stop stop-color="#311944"/>
<stop offset="1" stop-color="#A03976"/>
</linearGradient>
<linearGradient id="paint17_linear_624_181" x1="85.9195" y1="187.236" x2="107.141" y2="140.271" gradientUnits="userSpaceOnUse">
<stop stop-color="#311944"/>
<stop offset="1" stop-color="#893976"/>
</linearGradient>
<linearGradient id="paint18_linear_624_181" x1="92.824" y1="182.071" x2="97.888" y2="152.989" gradientUnits="userSpaceOnUse">
<stop stop-color="#311944"/>
<stop offset="1" stop-color="#A03976"/>
</linearGradient>
<linearGradient id="paint19_linear_624_181" x1="104.384" y1="202.77" x2="-5.40607" y2="267.778" gradientUnits="userSpaceOnUse">
<stop stop-color="#AA80F9"/>
<stop offset="0.9964" stop-color="#6165D7"/>
</linearGradient>
<linearGradient id="paint20_linear_624_181" x1="75.2526" y1="191.278" x2="19.7304" y2="226.46" gradientUnits="userSpaceOnUse">
<stop stop-color="#AA80F9"/>
<stop offset="0.9964" stop-color="#6165D7"/>
</linearGradient>
<linearGradient id="paint21_linear_624_181" x1="316.402" y1="404.132" x2="312.887" y2="407.088" gradientUnits="userSpaceOnUse">
<stop stop-color="#AA80F9"/>
<stop offset="0.9964" stop-color="#6165D7"/>
</linearGradient>
<linearGradient id="paint22_linear_624_181" x1="314.122" y1="410.848" x2="301.415" y2="410.848" gradientUnits="userSpaceOnUse">
<stop stop-color="#AA80F9"/>
<stop offset="0.9964" stop-color="#6165D7"/>
</linearGradient>
<linearGradient id="paint23_linear_624_181" x1="310.432" y1="411.016" x2="305.107" y2="411.016" gradientUnits="userSpaceOnUse">
<stop stop-color="#40447E"/>
<stop offset="0.9964" stop-color="#3C3B6B"/>
</linearGradient>
<linearGradient id="paint24_linear_624_181" x1="248.379" y1="396.803" x2="244.864" y2="399.759" gradientUnits="userSpaceOnUse">
<stop stop-color="#AA80F9"/>
<stop offset="0.9964" stop-color="#6165D7"/>
</linearGradient>
<linearGradient id="paint25_linear_624_181" x1="246.099" y1="403.519" x2="233.392" y2="403.519" gradientUnits="userSpaceOnUse">
<stop stop-color="#AA80F9"/>
<stop offset="0.9964" stop-color="#6165D7"/>
</linearGradient>
<linearGradient id="paint26_linear_624_181" x1="242.409" y1="403.687" x2="237.084" y2="403.687" gradientUnits="userSpaceOnUse">
<stop stop-color="#40447E"/>
<stop offset="0.9964" stop-color="#3C3B6B"/>
</linearGradient>
<linearGradient id="paint27_linear_624_181" x1="148.928" y1="245.649" x2="87.4419" y2="245.649" gradientUnits="userSpaceOnUse">
<stop stop-color="#40447E"/>
<stop offset="0.9964" stop-color="#3C3B6B"/>
</linearGradient>
<linearGradient id="paint28_linear_624_181" x1="256.722" y1="426.927" x2="253.207" y2="429.883" gradientUnits="userSpaceOnUse">
<stop stop-color="#AA80F9"/>
<stop offset="0.9964" stop-color="#6165D7"/>
</linearGradient>
<linearGradient id="paint29_linear_624_181" x1="254.442" y1="433.642" x2="241.735" y2="433.642" gradientUnits="userSpaceOnUse">
<stop stop-color="#AA80F9"/>
<stop offset="0.9964" stop-color="#6165D7"/>
</linearGradient>
<linearGradient id="paint30_linear_624_181" x1="250.752" y1="433.811" x2="245.427" y2="433.811" gradientUnits="userSpaceOnUse">
<stop stop-color="#40447E"/>
<stop offset="0.9964" stop-color="#3C3B6B"/>
</linearGradient>
<linearGradient id="paint31_linear_624_181" x1="197.829" y1="421.031" x2="194.314" y2="423.987" gradientUnits="userSpaceOnUse">
<stop stop-color="#AA80F9"/>
<stop offset="0.9964" stop-color="#6165D7"/>
</linearGradient>
<linearGradient id="paint32_linear_624_181" x1="195.549" y1="427.746" x2="182.842" y2="427.746" gradientUnits="userSpaceOnUse">
<stop stop-color="#AA80F9"/>
<stop offset="0.9964" stop-color="#6165D7"/>
</linearGradient>
<linearGradient id="paint33_linear_624_181" x1="191.858" y1="427.915" x2="186.534" y2="427.915" gradientUnits="userSpaceOnUse">
<stop stop-color="#40447E"/>
<stop offset="0.9964" stop-color="#3C3B6B"/>
</linearGradient>
<linearGradient id="paint34_linear_624_181" x1="236.359" y1="353.229" x2="238.357" y2="337.218" gradientUnits="userSpaceOnUse">
<stop offset="0.0036" stop-color="#26264F"/>
<stop offset="1" stop-color="#444B8C"/>
</linearGradient>
<linearGradient id="paint35_linear_624_181" x1="228.125" y1="338.638" x2="248.131" y2="302.61" gradientUnits="userSpaceOnUse">
<stop offset="0.0036" stop-color="#26264F"/>
<stop offset="1" stop-color="#444B8C"/>
</linearGradient>
<linearGradient id="paint36_linear_624_181" x1="205.488" y1="321.571" x2="271.913" y2="321.557" gradientUnits="userSpaceOnUse">
<stop offset="0.0036" stop-color="#26264F"/>
<stop offset="1" stop-color="#444B8C"/>
</linearGradient>
<linearGradient id="paint37_linear_624_181" x1="230.029" y1="328.793" x2="249.784" y2="290.764" gradientUnits="userSpaceOnUse">
<stop offset="0.0036" stop-color="#26264F"/>
<stop offset="1" stop-color="#444B8C"/>
</linearGradient>
<linearGradient id="paint38_linear_624_181" x1="202.51" y1="310.376" x2="274.854" y2="310.361" gradientUnits="userSpaceOnUse">
<stop offset="0.0036" stop-color="#26264F"/>
<stop offset="1" stop-color="#444B8C"/>
</linearGradient>
<linearGradient id="paint39_linear_624_181" x1="201.436" y1="297.305" x2="275.956" y2="297.29" gradientUnits="userSpaceOnUse">
<stop offset="0.0036" stop-color="#26264F"/>
<stop offset="1" stop-color="#444B8C"/>
</linearGradient>
<linearGradient id="paint40_linear_624_181" x1="236.844" y1="291.677" x2="244.175" y2="257.32" gradientUnits="userSpaceOnUse">
<stop offset="0.0036" stop-color="#26264F"/>
<stop offset="1" stop-color="#444B8C"/>
</linearGradient>
<linearGradient id="paint41_linear_624_181" x1="222.715" y1="99.9731" x2="368.353" y2="331.089" gradientUnits="userSpaceOnUse">
<stop stop-color="#FCB148"/>
<stop offset="0.0521" stop-color="#FDBA46"/>
<stop offset="0.1424" stop-color="#FFC244"/>
<stop offset="0.3183" stop-color="#FFC444"/>
<stop offset="0.4849" stop-color="#FDB946"/>
<stop offset="0.7754" stop-color="#F99C4D"/>
<stop offset="0.8658" stop-color="#F8924F"/>
<stop offset="1" stop-color="#F8924F"/>
</linearGradient>
<linearGradient id="paint42_linear_624_181" x1="196.152" y1="277.959" x2="225.822" y2="191.226" gradientUnits="userSpaceOnUse">
<stop offset="0.494" stop-color="#EBEFF2"/>
<stop offset="1" stop-color="white"/>
</linearGradient>
<linearGradient id="paint43_linear_624_181" x1="224.536" y1="287.668" x2="254.206" y2="200.936" gradientUnits="userSpaceOnUse">
<stop offset="0.494" stop-color="#EBEFF2"/>
<stop offset="1" stop-color="white"/>
</linearGradient>
<linearGradient id="paint44_linear_624_181" x1="185.816" y1="274.417" x2="215.485" y2="187.688" gradientUnits="userSpaceOnUse">
<stop offset="0.494" stop-color="#EBEFF2"/>
<stop offset="1" stop-color="white"/>
</linearGradient>
<linearGradient id="paint45_linear_624_181" x1="227.815" y1="47.8686" x2="198.843" y2="287.039" gradientUnits="userSpaceOnUse">
<stop stop-color="#FCB148"/>
<stop offset="0.0521" stop-color="#FDBA46"/>
<stop offset="0.1424" stop-color="#FFC244"/>
<stop offset="0.3183" stop-color="#FFC444"/>
<stop offset="0.4849" stop-color="#FDB946"/>
<stop offset="0.7754" stop-color="#F99C4D"/>
<stop offset="0.8658" stop-color="#F8924F"/>
<stop offset="1" stop-color="#F8924F"/>
</linearGradient>
<linearGradient id="paint46_linear_624_181" x1="130.163" y1="232.544" x2="136.769" y2="242.753" gradientUnits="userSpaceOnUse">
<stop stop-color="#311944"/>
<stop offset="1" stop-color="#A03976"/>
</linearGradient>
</defs>
</svg>
