<svg width="20" height="20" viewBox="0 0 20 20" fill="none" xmlns="http://www.w3.org/2000/svg">
<path d="M17 0H3C1.34315 0 0 1.34315 0 3V17C0 18.6569 1.34315 20 3 20H17C18.6569 20 20 18.6569 20 17V3C20 1.34315 18.6569 0 17 0Z" fill="#008080"/>
<path d="M16.437 14.3267H3.12992C3.05906 14.3267 3 14.2677 3 14.1968V5.13383C3 5.06296 3.05906 5.00391 3.12992 5.00391H16.437C16.5079 5.00391 16.5669 5.06296 16.5669 5.13383V14.1968C16.5669 14.2677 16.5079 14.3267 16.437 14.3267Z" fill="#E6E9EE"/>
<path d="M3 14.1931C3.09055 14.2758 3.2126 14.327 3.34646 14.327H15.874C16.0079 14.327 16.1299 14.2758 16.2205 14.1931L9.61024 8.97266L3 14.1931Z" fill="#CED5E0"/>
<path d="M10.2638 10.2598L16.2362 5.14173C16.1417 5.05512 16.0197 5 15.8819 5H3.35433C3.21654 5 3.09449 5.05512 3 5.14173L8.97244 10.2598C9.34252 10.5787 9.8937 10.5787 10.2638 10.2598Z" fill="white"/>
</svg>
