<svg width="20" height="20" viewBox="0 0 20 20" fill="none" xmlns="http://www.w3.org/2000/svg">
<g clip-path="url(#clip0_617_122)">
<path d="M17 0H3C1.34315 0 0 1.34315 0 3V17C0 18.6569 1.34315 20 3 20H17C18.6569 20 20 18.6569 20 17V3C20 1.34315 18.6569 0 17 0Z" fill="#37AEE2"/>
<path d="M7.77344 15.7812C7.34375 15.7812 7.38281 15.625 7.26562 15.2344L6.01562 11.1328L15.5859 5.50781" fill="#C8DAEA"/>
<path d="M7.77344 15.7812C8.04688 15.7812 8.20312 15.625 8.39844 15.4688L10.1562 13.7891L7.96875 12.4609" fill="#A9C9DD"/>
<path d="M7.96874 12.461L13.2422 16.3282C13.7891 16.6797 14.2578 16.4844 14.4141 15.7813L16.5625 5.70317C16.7578 4.8438 16.2109 4.45317 15.625 4.72661L3.08593 9.57036C2.26561 9.88286 2.26561 10.3907 2.92968 10.586L6.17186 11.6016L13.5937 6.87505C13.9453 6.67974 14.2578 6.75786 14.0234 7.0313" fill="#F6FBFE"/>
</g>
<defs>
<clipPath id="clip0_617_122">
<rect width="20" height="20" fill="white"/>
</clipPath>
</defs>
</svg>
