<svg width="20" height="20" viewBox="0 0 20 20" fill="none" xmlns="http://www.w3.org/2000/svg">
<g clip-path="url(#clip0_617_128)">
<path d="M6.9375 0H13.0729C18.6771 0 20 1.33333 20 6.9375V13.0729C20 18.6771 18.6667 20 13.0625 20H6.92708C1.32292 20 0 18.6667 0 13.0625V6.92708C0 1.33333 1.33333 0 6.9375 0Z" fill="#5181B8"/>
<mask id="mask0_617_128" style="mask-type:luminance" maskUnits="userSpaceOnUse" x="0" y="0" width="20" height="20">
<path d="M6.9375 0H13.0729C18.6771 0 20 1.33333 20 6.9375V13.0729C20 18.6771 18.6667 20 13.0625 20H6.92708C1.32292 20 0 18.6667 0 13.0625V6.92708C0 1.33333 1.33333 0 6.9375 0Z" fill="white"/>
</mask>
<g mask="url(#mask0_617_128)">
<path d="M-0.520813 -0.520508H20.5209V20.5212H-0.520813V-0.520508Z" fill="#5181B8"/>
</g>
<path fill-rule="evenodd" clip-rule="evenodd" d="M16.0595 7.03962C16.1486 6.74259 16.0595 6.53467 15.6436 6.53467H14.2575C13.9011 6.53467 13.7426 6.72279 13.6535 6.93071C13.6535 6.93071 12.9506 8.65348 11.9506 9.76239C11.6238 10.0891 11.4852 10.1881 11.307 10.1881C11.2179 10.1881 11.0892 10.0891 11.0892 9.79209V7.03962C11.0892 6.68318 10.9902 6.53467 10.6931 6.53467H8.51491C8.29709 6.53467 8.15848 6.70298 8.15848 6.8515C8.15848 7.18813 8.65352 7.26734 8.71293 8.19803V10.2376C8.71293 10.6832 8.63372 10.7624 8.45551 10.7624C7.99016 10.7624 6.84164 9.03962 6.16838 7.05942C6.02976 6.69308 5.90105 6.53467 5.54461 6.53467H4.15848C3.76244 6.53467 3.68323 6.72279 3.68323 6.93071C3.68323 7.29704 4.14857 9.11883 5.87135 11.5248C7.01986 13.1683 8.63372 14.0594 10.0991 14.0594C10.9803 14.0594 11.0892 13.8614 11.0892 13.5248V12.2772C11.0892 11.8812 11.1684 11.802 11.4555 11.802C11.6634 11.802 12.01 11.901 12.8317 12.6931C13.7723 13.6337 13.9308 14.0594 14.4555 14.0594H15.8416C16.2377 14.0594 16.4357 13.8614 16.3169 13.4753C16.1882 13.0891 15.7426 12.5248 15.1486 11.8515C14.8218 11.4654 14.3367 11.0594 14.1981 10.8515C13.9902 10.5842 14.0496 10.4654 14.1981 10.2376C14.1981 10.2277 15.8911 7.8515 16.0595 7.03962Z" fill="white"/>
</g>
<defs>
<clipPath id="clip0_617_128">
<rect width="20" height="20" fill="white"/>
</clipPath>
</defs>
</svg>
