<svg width="253" height="82" viewBox="0 0 253 82" fill="none" xmlns="http://www.w3.org/2000/svg">
<path opacity="0.5" d="M212.424 32.9418C234.516 32.9418 252.424 28.0395 252.424 21.9924C252.424 15.9452 234.516 11.043 212.424 11.043C190.333 11.043 172.424 15.9452 172.424 21.9924C172.424 28.0395 190.333 32.9418 212.424 32.9418Z" fill="url(#paint0_radial_608_7734)"/>
<path d="M212.76 31.559C202.55 31.559 191.69 29.3528 191.69 25.2788C191.69 21.1946 202.55 18.9883 212.76 18.9883C222.98 18.9883 233.84 21.1946 233.84 25.2788C233.84 29.3528 222.98 31.559 212.76 31.559ZM212.76 20.3839C200.55 20.3839 193.05 23.2367 193.05 25.2788C193.05 27.3106 200.55 30.1634 212.76 30.1634C224.97 30.1634 232.48 27.3106 232.48 25.2788C232.48 23.2367 224.98 20.3839 212.76 20.3839Z" fill="#001D4D"/>
<path d="M68.25 55.4688C59.47 55.4688 50.13 53.5704 50.13 50.0608C50.13 46.5513 59.47 44.6631 68.25 44.6631C77.04 44.6631 86.38 46.5513 86.38 50.0608C86.38 53.5704 77.04 55.4688 68.25 55.4688ZM68.25 45.8637C57.75 45.8637 51.3 48.3061 51.3 50.0608C51.3 51.8156 57.75 54.2682 68.25 54.2682C78.76 54.2682 85.21 51.8156 85.21 50.0608C85.21 48.3061 78.76 45.8637 68.25 45.8637Z" fill="#001D4D"/>
<path d="M59.46 24.0368C47.51 24.0368 34.81 21.461 34.81 16.6893C34.81 11.9175 47.51 9.3418 59.46 9.3418C71.41 9.3418 84.11 11.9175 84.11 16.6893C84.11 21.461 71.41 24.0368 59.46 24.0368ZM59.46 10.9734C45.17 10.9734 36.4 14.2983 36.4 16.6893C36.4 19.0803 45.17 22.4051 59.46 22.4051C73.74 22.4051 82.52 19.0803 82.52 16.6893C82.52 14.2983 73.74 10.9734 59.46 10.9734Z" fill="#001D4D"/>
<path d="M111.59 37.4189C111.59 37.4189 103.88 39.3276 95.38 42.5499L87.84 52.4012L106.35 49.3535L111.59 37.4189Z" fill="url(#paint1_linear_608_7734)"/>
<path d="M73.6283 62.6734L92.9573 66.4538L92.2443 53.3525L78.2933 54.3079L73.6283 62.6734Z" fill="#001D4D"/>
<path d="M73.84 54.3913C73.84 56.9568 71.8 59.0502 69.3 59.0502C66.79 59.0502 64.76 56.9568 64.76 54.3913C64.76 51.8156 66.79 49.7324 69.3 49.7324C71.8 49.7324 73.84 51.8156 73.84 54.3913Z" fill="#001D4D"/>
<path d="M64.81 64.9304C64.81 64.9304 60.68 63.5451 59.38 54.6686C59.38 54.6686 68.89 51.7029 78.29 54.3094C78.29 54.3094 79.26 60.4255 75.37 64.2942C75.37 64.3045 70.23 66.8392 64.81 64.9304Z" fill="url(#paint2_linear_608_7734)"/>
<path d="M64.81 64.9296C62.77 63.3391 75.34 62.2924 75.37 64.2934C75.39 65.648 66.85 66.5202 64.81 64.9296Z" fill="#001D4D"/>
<path d="M102.41 49.5375C102.41 49.5375 108.05 41.8206 111.59 37.4182C111.59 37.4182 135.94 32.3284 156.31 41.6153C156.31 41.6153 156.31 41.6153 160.99 50.6765C160.99 50.6868 137.62 47.7006 102.41 49.5375Z" fill="#001D4D"/>
<path d="M124.5 55.5603C146.122 55.5603 163.65 53.3734 163.65 50.6756C163.65 47.9779 146.122 45.791 124.5 45.791C102.878 45.791 85.35 47.9779 85.35 50.6756C85.35 53.3734 102.878 55.5603 124.5 55.5603Z" fill="url(#paint3_linear_608_7734)"/>
<path d="M85.35 50.6864C85.35 50.6864 79.73 55.5813 73.62 68.5934L171.85 67.7108C171.85 67.7108 169.66 57.8903 163.64 50.6864C163.64 50.6864 117.22 41.4405 85.35 50.6864Z" fill="url(#paint4_linear_608_7734)"/>
<path d="M122.93 76.5572C149.948 76.5572 171.85 72.992 171.85 68.5941C171.85 64.1961 149.948 60.6309 122.93 60.6309C95.9123 60.6309 74.01 64.1961 74.01 68.5941C74.01 72.992 95.9123 76.5572 122.93 76.5572Z" fill="#001D4D"/>
<path d="M79.18 65.0325C79.18 65.0325 83.67 70.615 92.95 76.5668L111.57 74.8634C111.57 74.8634 104.61 67.6185 100.97 61.4717C100.98 61.4717 87.76 61.7077 79.18 65.0325Z" fill="url(#paint5_linear_608_7734)"/>
<path d="M111.57 74.8633C111.57 74.8633 137.34 79.163 153.96 79.7479L146.97 81.7182C146.97 81.7182 118.25 81.7182 92.95 76.5565L111.57 74.8633Z" fill="#001D4D"/>
<path d="M158.44 74.0732L153.96 79.748C153.96 79.748 124.9 78.8142 111.57 74.8634C111.57 74.8634 103.7 66.695 100.97 61.4717L158.44 74.0732Z" fill="#000E3C"/>
<path d="M219 34.0723C219 37.2535 216.48 39.8395 213.38 39.8395C210.28 39.8395 207.75 37.2638 207.75 34.0723C207.75 30.8809 210.27 28.2949 213.38 28.2949C216.49 28.2949 219 30.8809 219 34.0723Z" fill="#001D4D"/>
<path d="M158.44 48.2542C158.44 48.2542 155.35 55.9096 161.79 63.7599L210.6 45.0423L209.82 37.0996L158.44 48.2542Z" fill="#001D4D"/>
<path d="M207.81 47.1365C207.81 47.1365 202.7 45.4125 201.09 34.4118C201.09 34.4118 212.87 30.7483 224.52 33.9705C224.52 33.9705 225.72 41.5541 220.9 46.3566C220.9 46.3463 214.54 49.507 207.81 47.1365Z" fill="url(#paint6_linear_608_7734)"/>
<path d="M207.81 47.1354C205.29 45.1651 220.87 43.8721 220.9 46.3555C220.92 48.0179 210.34 49.1057 207.81 47.1354Z" fill="#001D4D"/>
<path d="M89.61 62.735L57.21 36.5468L59.8499 27.1982L96.46 47.2909C96.46 47.2909 101.18 57.7375 89.61 62.735Z" fill="#001D4D"/>
<path d="M59.46 31.7125C63.3867 31.7125 66.57 28.4459 66.57 24.4163C66.57 20.3867 63.3867 17.1201 59.46 17.1201C55.5332 17.1201 52.35 20.3867 52.35 24.4163C52.35 28.4459 55.5332 31.7125 59.46 31.7125Z" fill="#001D4D"/>
<path d="M52.42 40.9174C52.42 40.9174 45.96 38.7419 43.93 24.8474C43.93 24.8474 58.82 20.209 73.53 24.2932C73.53 24.2932 75.05 33.8675 68.96 39.9323C68.96 39.9323 60.92 43.9139 52.42 40.9174Z" fill="url(#paint7_linear_608_7734)"/>
<path d="M52.42 40.9169C49.23 38.4335 68.92 36.7916 68.96 39.9317C68.99 42.0354 55.62 43.4105 52.42 40.9169Z" fill="#001D4D"/>
<path d="M158.44 48.2542C158.44 48.2542 133.16 42.9694 100.98 61.4715L108.94 63.7599C108.94 63.7599 132.01 51.6612 158.44 49.773V48.2542Z" fill="#001D4D"/>
<path d="M60.83 30.779C60.83 33.6728 58.54 36.0228 55.71 36.0228C52.88 36.0228 50.6 33.6728 50.6 30.779C50.6 27.8851 52.89 25.5352 55.71 25.5352C58.53 25.5352 60.83 27.8851 60.83 30.779Z" fill="#AEFFDB"/>
<path d="M223.43 40.0553C222.99 42.9184 221.5 45.0528 220.11 44.8271C218.72 44.6013 217.94 42.0974 218.38 39.2344C218.81 36.3816 220.3 34.2368 221.69 34.4626C223.09 34.6884 223.86 37.1923 223.43 40.0553Z" fill="#AEFFDB"/>
<path d="M99.72 74.1657C99.63 74.1862 99.53 74.2067 99.44 74.217C93.48 75.4484 82.24 68.0394 85.35 65.792C89.2 63.0008 93.97 62.693 96.79 62.8879C97.75 62.9598 98.48 63.0829 98.89 63.1958C100.48 63.6268 105.58 72.6572 99.72 74.1657Z" fill="#66E2DB"/>
<path d="M99.72 74.1655C99.63 74.186 99.53 74.2065 99.44 74.2168C93.41 73.2932 85.73 67.7005 88.38 65.7815C91.05 63.842 94.17 63.1032 96.78 62.8877C97.75 62.9595 98.48 63.0827 98.89 63.1955C100.48 63.6265 105.58 72.657 99.72 74.1655Z" fill="#AEFFDB"/>
<path opacity="0.3" d="M252.42 21.9945C252.42 15.94 234.51 11.0451 212.42 11.0451C190.32 11.0451 172.41 15.94 172.41 21.9945C172.41 27.618 187.92 32.2563 207.88 32.8721C207.87 32.9336 207.86 32.9952 207.85 33.0568C203.78 33.5801 201.09 34.4113 201.09 34.4113C201.34 36.084 201.67 37.5207 202.05 38.7931L159.61 47.998C156.32 41.6357 156.31 41.6151 156.31 41.6151C135.95 32.3179 111.59 37.4181 111.59 37.4181C111.59 37.4181 104.77 39.101 96.87 41.9948C92.88 40.9687 88.04 40.1785 82.67 39.7167L72.53 34.1548C72.81 33.3646 73.03 32.5745 73.19 31.8048C98.73 30.0398 117.64 23.7185 117.64 16.1863C117.64 7.28927 91.3 0.0751953 58.82 0.0751953C26.34 0.0751953 0 7.28927 0 16.1863C0 23.8314 19.49 30.2348 45.61 31.8767C47.93 38.475 51.32 40.4145 52.2 40.825C41.97 42.6003 35.17 45.7301 35.17 49.3013C35.17 53.7344 45.72 57.5005 60.34 58.8243C62.05 63.9962 64.81 64.9301 64.81 64.9301C66.85 66.5206 75.38 65.6381 75.37 64.2938C75.72 63.9449 76.02 63.5755 76.29 63.1958L76.36 63.2061C75.47 64.8274 74.55 66.6027 73.62 68.5935H74C74 70.9127 80.11 73.0061 89.85 74.4633C90.82 75.1509 91.85 75.8487 92.95 76.5567C118.24 81.7184 146.96 81.7184 146.96 81.7184L153.96 79.7482L158.44 74.0734C166.74 72.6367 171.85 70.7177 171.85 68.5935C171.85 68.2959 171.74 67.9984 171.55 67.711H171.85C171.85 67.711 171.17 64.694 169.55 60.774L206.75 46.5203C207.38 46.9821 207.81 47.136 207.81 47.136C210.34 49.096 220.92 48.0185 220.9 46.3459C225.72 41.5536 224.52 33.9701 224.52 33.9701C222.63 33.4467 220.73 33.1081 218.89 32.9028C218.88 32.8618 218.86 32.831 218.86 32.8002C237.89 31.9587 252.42 27.4435 252.42 21.9945Z" fill="url(#paint8_linear_608_7734)"/>
<defs>
<radialGradient id="paint0_radial_608_7734" cx="0" cy="0" r="1" gradientUnits="userSpaceOnUse" gradientTransform="translate(212.424 21.9922) scale(40 10.9514)">
<stop stop-color="#1A2E5E"/>
<stop offset="1" stop-color="white"/>
</radialGradient>
<linearGradient id="paint1_linear_608_7734" x1="99.715" y1="52.4012" x2="99.715" y2="37.4189" gradientUnits="userSpaceOnUse">
<stop stop-color="#116372"/>
<stop offset="1" stop-color="#1B4874"/>
</linearGradient>
<linearGradient id="paint2_linear_608_7734" x1="68.8887" y1="65.642" x2="68.8887" y2="53.2373" gradientUnits="userSpaceOnUse">
<stop stop-color="#116372"/>
<stop offset="1" stop-color="#1B4874"/>
</linearGradient>
<linearGradient id="paint3_linear_608_7734" x1="124.5" y1="55.5603" x2="124.5" y2="45.791" gradientUnits="userSpaceOnUse">
<stop stop-color="#116372"/>
<stop offset="1" stop-color="#1B4874"/>
</linearGradient>
<linearGradient id="paint4_linear_608_7734" x1="122.735" y1="68.5934" x2="122.735" y2="46.5771" gradientUnits="userSpaceOnUse">
<stop stop-color="#116372"/>
<stop offset="1" stop-color="#1B4874"/>
</linearGradient>
<linearGradient id="paint5_linear_608_7734" x1="95.375" y1="76.5668" x2="95.375" y2="61.4717" gradientUnits="userSpaceOnUse">
<stop stop-color="#116372"/>
<stop offset="1" stop-color="#1B4874"/>
</linearGradient>
<linearGradient id="paint6_linear_608_7734" x1="212.871" y1="48.0183" x2="212.871" y2="32.6445" gradientUnits="userSpaceOnUse">
<stop stop-color="#116372"/>
<stop offset="1" stop-color="#1B4874"/>
</linearGradient>
<linearGradient id="paint7_linear_608_7734" x1="58.8143" y1="42.0343" x2="58.8143" y2="22.6113" gradientUnits="userSpaceOnUse">
<stop stop-color="#116372"/>
<stop offset="1" stop-color="#1B4874"/>
</linearGradient>
<linearGradient id="paint8_linear_608_7734" x1="0" y1="40.8968" x2="252.42" y2="40.8968" gradientUnits="userSpaceOnUse">
<stop/>
<stop offset="1" stop-color="#A1FFCA"/>
</linearGradient>
</defs>
</svg>
